<?xml version="1.0" encoding="utf-8"?>
<!-- Generator: Adobe Illustrator 24.3.0, SVG Export Plug-In . SVG Version: 6.00 Build 0)  -->
<svg version="1.1" id="Layer_1" xmlns="http://www.w3.org/2000/svg" xmlns:xlink="http://www.w3.org/1999/xlink" x="0px" y="0px"
	 viewBox="0 0 644.8 629.7" style="enable-background:new 0 0 644.8 629.7;" xml:space="preserve">
<style type="text/css">
	.st0{fill:#323B9E;}
</style>
<g>
	<path class="st0" d="M644.8,318.4C644.8,141.5,503.3,0,326.4,0S8.1,141.5,8.1,318.4c0,92,38.9,176.9,102.6,233.5l0,0
		c3.5,3.5,7.1,7.1,10.6,7.1s3.5,3.5,7.1,3.5c7.1,3.5,10.6,10.6,17.7,14.1c3.5,0,3.5,3.5,7.1,3.5c7.1,3.5,10.6,7.1,17.7,10.6
		c3.5,0,3.5,3.5,7.1,3.5c7.1,3.5,14.1,7.1,21.2,10.6c3.5,0,3.5,3.5,7.1,3.5c7.1,3.5,14.1,7.1,21.2,7.1c3.5,0,3.5,3.5,7.1,3.5
		c7.1,3.5,14.1,3.5,21.2,7.1c3.5,0,3.5,0,7.1,0c7.1,3.5,17.7,3.5,28.3,3.5h3.5c10.6,0,21.2,0,31.8,0s21.2,0,31.8,0h3.5
		c10.6,0,17.7-3.5,28.3-3.5c3.5,0,3.5,0,7.1,0c7.1-3.5,14.1-3.5,21.2-7.1c3.5,0,3.5-3.5,7.1-3.5c7.1-3.5,14.1-3.5,21.2-7.1
		c3.5,0,3.5-3.5,7.1-3.5c7.1-3.5,14.1-7.1,21.2-10.6c3.5,0,3.5-3.5,7.1-3.5c7.1-3.5,14.1-7.1,17.7-10.6c3.5,0,3.5-3.5,7.1-3.5
		c7.1-3.5,14.1-10.6,17.7-14.1c3.5,0,3.5-3.5,7.1-3.5c3.5-3.5,7.1-7.1,10.6-7.1l0,0C605.9,495.3,644.8,410.4,644.8,318.4z
		 M482.1,477.6c-84.9-56.6-226.4-56.6-314.8,0c-14.1,10.6-24.8,21.2-35.4,31.8C82.3,459.9,54,392.7,54,318.4
		C54,169.8,174.3,46,322.9,46s268.9,120.3,268.9,272.4c0,74.3-28.3,141.5-77.8,191C510.4,495.3,496.2,484.6,482.1,477.6z"/>
	<path class="st0" d="M326.4,155.7c-67.2,0-120.3,53.1-120.3,120.3c0,63.7,49.5,116.7,116.7,120.3h3.5h3.5l0,0
		c63.7-3.5,113.2-53.1,116.7-120.3C446.7,208.7,393.6,155.7,326.4,155.7z"/>
</g>
</svg>
