<?xml version="1.0" encoding="utf-8"?>
<!-- Generator: Adobe Illustrator 24.3.0, SVG Export Plug-In . SVG Version: 6.00 Build 0)  -->
<svg version="1.1" id="Layer_1" xmlns="http://www.w3.org/2000/svg" xmlns:xlink="http://www.w3.org/1999/xlink" x="0px" y="0px"
	 viewBox="0 0 517.9 544.7" style="enable-background:new 0 0 517.9 544.7;" xml:space="preserve">
<style type="text/css">
	.st0{fill:#2A56F4;}
	.st1{fill:#FFBD39;}
</style>
<path class="st0" d="M453.5,335.2V49.6c0-4.9-2.8-8.9-6.2-8.9h-49.5v17.9v39.3c0,4.9-2.8,8.9-6.2,8.9h-47.2c-3.4,0-6.2-4-6.2-8.9
	V58.6V40.7H173.1v17.9v39.3c0,4.9-2.8,8.9-6.2,8.9h-47.2c-3.4,0-6.2-4-6.2-8.9V58.6V40.7H64.3c-3.4,0-6.2,4-6.2,8.9v138.7
	c-0.2,0.8-0.3,1.6-0.3,2.5c0,0.9,0.1,1.7,0.3,2.5v136.6l-40,204.9c9.3-0.5,44.4-1.4,80.8-1.5c3.7,1.2,7.5,1.8,11.4,1.8h337
	c1.4,0,2.7-0.7,3.7-1.8c24,0.1,46.5,0.6,60.4,1.8L453.5,335.2z"/>
<path class="st1" d="M397.7,29.4c0-3.9-2.8-7-6.2-7h-47.2c-3.4,0-6.2,3.1-6.2,7v27.5H338v9.4h0v12.4v27.2c0,3.4,2.8,6.2,6.2,6.2
	h47.2c3.4,0,6.2-2.8,6.2-6.2V78.8v-0.1V66.4v-4.5h0.1V29.4z"/>
<path class="st1" d="M166.6,19.6h-47.2c-3.4,0-6.2,3.6-6.2,8v37.1v1.8v12.4v27.2c0,3.4,2.8,6.2,6.2,6.2h47.2c3.4,0,6.2-2.8,6.2-6.2
	V79V66.6h-0.1v-1.8h0.1v-0.1V27.6C172.8,23.2,170,19.6,166.6,19.6z"/>
</svg>
