<?xml version="1.0" encoding="utf-8"?>
<!-- Generator: Adobe Illustrator 24.3.0, SVG Export Plug-In . SVG Version: 6.00 Build 0)  -->
<svg version="1.1" id="Layer_1" xmlns="http://www.w3.org/2000/svg" xmlns:xlink="http://www.w3.org/1999/xlink" x="0px" y="0px"
	 viewBox="0 0 595.3 506.6" style="enable-background:new 0 0 595.3 506.6;" xml:space="preserve">
<style type="text/css">
	.st0{fill:#1CA01C;}
	.st1{fill:#FFFFFF;}
</style>
<path class="st0" d="M537.1,264.2c0,64-24.9,124.1-70.1,169.3c-45.2,45.2-105.4,70.1-169.3,70.1c-64,0-124.1-24.9-169.3-70.1
	c-45.2-45.2-70.1-105.4-70.1-169.3c0-64,24.9-124.1,70.1-169.3c45.2-45.2,105.4-70.1,169.3-70.1c64,0,124.1,24.9,169.3,70.1
	C512.2,140.1,537.1,200.3,537.1,264.2z"/>
<path class="st1" d="M469.8,140.1L469.8,140.1c-5.1-5.1-13.5-5.1-18.6,0L192.3,399l-81.6-81.6c-5.1-5.1-13.5-5.1-18.6,0l0,0
	c-5.1,5.1-5.1,13.5,0,18.6l90.9,90.9c2.6,2.6,6,3.9,9.3,3.9c3.4,0,6.8-1.3,9.3-3.9l268.2-268.2C475,153.6,475,145.2,469.8,140.1z"/>
</svg>
