<?xml version="1.0" encoding="utf-8"?>
<!-- Generator: Adobe Illustrator 24.3.0, SVG Export Plug-In . SVG Version: 6.00 Build 0)  -->
<svg version="1.1" id="Layer_1" xmlns="http://www.w3.org/2000/svg" xmlns:xlink="http://www.w3.org/1999/xlink" x="0px" y="0px"
	 viewBox="0 0 532.3 506.6" style="enable-background:new 0 0 532.3 506.6;" xml:space="preserve">
<style type="text/css">
	.st0{fill:#D80909;}
	.st1{fill:#FFFFFF;}
</style>
<path class="st0" d="M503.5,261.1c0,64-24.9,124.1-70.1,169.3C388.1,475.7,328,500.6,264,500.6c-64,0-124.1-24.9-169.3-70.1
	c-45.2-45.2-70.1-105.4-70.1-169.3c0-64,24.9-124.1,70.1-169.3C139.9,46.6,200,21.6,264,21.6c64,0,124.1,24.9,169.3,70.1
	C478.6,137,503.5,197.2,503.5,261.1z"/>
<path class="st1" d="M-579.7,194.6"/>
<g>
	<path class="st1" d="M115.5,418.5l-1.8-1.7c-6.5-6.3-6.8-16.6-0.5-23.2l276.2-289.3c6.3-6.5,16.6-6.8,23.2-0.5l1.8,1.7
		c6.5,6.3,6.8,16.6,0.5,23.2L138.7,417.9C132.4,424.5,122,424.7,115.5,418.5z"/>
	<path class="st1" d="M412.5,418.5l1.8-1.7c6.5-6.3,6.8-16.6,0.5-23.2L138.7,104.3c-6.3-6.5-16.6-6.8-23.2-0.5l-1.8,1.7
		c-6.5,6.3-6.8,16.6-0.5,23.2l276.2,289.3C395.6,424.5,406,424.7,412.5,418.5z"/>
</g>
</svg>
