<?xml version="1.0" encoding="utf-8"?>
<!-- Generator: Adobe Illustrator 24.3.0, SVG Export Plug-In . SVG Version: 6.00 Build 0)  -->
<svg version="1.1" id="Layer_1" xmlns="http://www.w3.org/2000/svg" xmlns:xlink="http://www.w3.org/1999/xlink" x="0px" y="0px"
	 viewBox="0 0 432.3 462.9" style="enable-background:new 0 0 432.3 462.9;" xml:space="preserve">
<style type="text/css">
	.st0{fill:#FAFAFA;}
	.st1{fill:#E0E0E0;}
	.st2{fill:#2C29BB;}
	.st3{opacity:0.6;fill:#FFFFFF;enable-background:new    ;}
	.st4{opacity:0.3;fill:#2C29BB;enable-background:new    ;}
	.st5{fill:#FFBDA7;}
	.st6{fill:#F0997A;}
	.st7{opacity:0.1;enable-background:new    ;}
	.st8{fill:#263238;}
	.st9{fill:#455A64;}
	.st10{fill:#37474F;}
	.st11{fill:#EBEBEB;}
	.st12{fill:#F0F0F0;}
	.st13{fill:#B16668;}
	.st14{opacity:0.3;enable-background:new    ;}
	.st15{opacity:0.5;fill:#2C29BB;enable-background:new    ;}
	.st16{opacity:0.2;enable-background:new    ;}
	.st17{opacity:0.2;fill:#FFFFFF;enable-background:new    ;}
	.st18{opacity:0.15;enable-background:new    ;}
	.st19{opacity:0.3;fill:#FFFFFF;enable-background:new    ;}
	.st20{opacity:0.35;fill:#FFFFFF;enable-background:new    ;}
</style>
<g>
	<path class="st0" d="M63.3,231.9c-84.4,48.8-84.4,127.7,0,176.5s221.3,48.8,305.7,0c84.4-48.8,84.4-127.7,0-176.5
		C284.6,183.1,147.7,183.2,63.3,231.9z"/>
	<path class="st1" d="M377,272.3c1-0.5,2.1-0.8,3.1-1.2c1.1-0.3,2.3-0.6,3.5-0.7c1.3-0.1,2.5-0.1,3.8,0c1.4,0.2,2.8,0.5,4.2,0.9
		c1.9,0.5,3.6,1.4,5.2,2.5c1.4,1,2.6,2.2,3.5,3.6c0.8,1.4,1.4,2.9,1.6,4.5c0.2,1.7,0,3.5-0.5,5.1c-0.4,1.5-1.2,3-2.1,4.3
		c-0.8,1-1.8,2-2.9,2.7c-1,0.7-2.1,1.2-3.2,1.7l-3.1,1.1c-0.9,0.3-1.8,0.7-2.6,1.1c-0.7,0.4-1.3,0.9-1.7,1.6l-2.3,4.7l-5.7-1.8
		l1.1-5.8c0.1-1,0.6-1.9,1.3-2.7c0.7-0.7,1.5-1.3,2.5-1.7c1-0.5,2-0.9,3.1-1.2s2.2-0.8,3.2-1.3s1.9-1.1,2.8-1.9
		c0.9-0.8,1.5-1.9,1.8-3.1c0.2-0.8,0.3-1.6,0.2-2.3c-0.1-0.7-0.4-1.4-0.8-2.1c-0.4-0.7-1-1.2-1.6-1.7c-0.7-0.5-1.5-0.9-2.4-1.1
		c-1.1-0.4-2.3-0.6-3.4-0.6c-0.9,0-1.7,0.1-2.6,0.3c-0.7,0.2-1.4,0.3-1.9,0.5c-0.4,0.2-0.9,0.2-1.3,0.1c-0.4-0.1-0.7-0.3-1-0.6
		s-0.4-0.6-0.5-1L377,272.3z M372.3,310.8c0.2-0.7,0.5-1.3,1-1.9c0.4-0.5,1-1,1.6-1.3s1.3-0.5,2-0.6s1.5,0,2.2,0.2s1.3,0.6,1.9,1
		c0.5,0.4,1,1,1.3,1.6s0.5,1.3,0.6,2s0,1.4-0.2,2.1c-0.2,0.7-0.6,1.4-1,1.9s-1,1-1.6,1.3s-1.3,0.5-2,0.6s-1.5,0-2.2-0.2
		s-1.4-0.6-1.9-1s-1-1-1.3-1.6s-0.5-1.3-0.6-2C371.9,312.3,372,311.5,372.3,310.8z"/>
	<path class="st1" d="M390.8,145.8c-0.7,0.4-1.4,0.7-2.1,1c-0.8,0.3-1.5,0.5-2.3,0.7c-0.9,0.2-1.7,0.2-2.6,0.2c-1,0-2-0.1-2.9-0.3
		c-1.3-0.3-2.5-0.7-3.7-1.4c-1-0.6-1.9-1.3-2.6-2.3c-0.7-0.9-1.1-1.9-1.3-3c-0.2-1.2-0.2-2.4,0-3.5s0.6-2.1,1.2-3
		c0.5-0.8,1.1-1.4,1.8-2c0.6-0.5,1.4-1,2.1-1.3l2.1-1c0.6-0.3,1.2-0.6,1.7-0.9s0.8-0.7,1-1.2l1.3-3.4l4,0.9l-0.4,4
		c0,0.7-0.3,1.4-0.8,1.9s-1,0.9-1.6,1.3s-1.3,0.7-2,1s-1.4,0.6-2.1,1.1c-0.7,0.4-1.3,0.9-1.8,1.4c-0.5,0.6-0.9,1.4-1,2.2
		c-0.1,0.5-0.1,1,0,1.6c0.1,0.5,0.3,1,0.7,1.4c0.3,0.4,0.8,0.8,1.2,1c0.5,0.3,1.1,0.5,1.7,0.6c0.8,0.2,1.6,0.2,2.4,0.2
		c0.6,0,1.2-0.2,1.8-0.3c0.5-0.2,0.9-0.3,1.3-0.4c0.3-0.1,0.6-0.2,0.9-0.1c0.3,0,0.5,0.2,0.7,0.3c0.2,0.2,0.3,0.4,0.4,0.7
		L390.8,145.8z M391.7,119.3c-0.1,0.5-0.3,0.9-0.6,1.4c-0.3,0.4-0.6,0.7-1,1s-0.8,0.4-1.3,0.5s-1,0.1-1.5,0s-0.9-0.3-1.4-0.6
		c-0.4-0.3-0.7-0.6-1-1s-0.4-0.8-0.5-1.3s-0.1-1,0-1.5s0.3-1,0.6-1.4c0.3-0.4,0.6-0.7,1-1c0.4-0.2,0.9-0.4,1.3-0.5
		c0.5-0.1,1-0.1,1.5,0s1,0.3,1.4,0.6c0.4,0.3,0.7,0.6,1,1s0.4,0.9,0.5,1.3C391.8,118.3,391.8,118.8,391.7,119.3L391.7,119.3z"/>
	<path class="st1" d="M48.6,290.6c-0.7,0.4-1.4,0.7-2.1,1c-0.8,0.3-1.5,0.5-2.3,0.7c-0.9,0.2-1.7,0.2-2.6,0.2c-1,0-1.9-0.1-2.9-0.3
		c-1.3-0.3-2.5-0.7-3.7-1.4c-1-0.6-1.9-1.3-2.6-2.3c-0.7-0.9-1.1-1.9-1.3-3c-0.2-1.2-0.2-2.4,0.1-3.5c0.2-1.1,0.6-2.1,1.2-3
		c0.5-0.8,1.1-1.4,1.8-2c0.6-0.5,1.4-1,2.1-1.3l2.1-1c0.6-0.3,1.2-0.6,1.7-0.9c0.5-0.3,0.8-0.7,1.1-1.2l1.3-3.3l4,0.9l-0.4,4
		c0,0.7-0.3,1.4-0.7,1.9c-0.5,0.5-1,1-1.6,1.3c-0.6,0.4-1.3,0.7-2,1s-1.4,0.7-2.1,1.1c-0.7,0.4-1.2,0.9-1.8,1.4
		c-0.5,0.6-0.9,1.4-1.1,2.2c-0.1,0.5-0.1,1.1,0,1.6s0.3,1,0.6,1.4c0.3,0.4,0.8,0.8,1.2,1c0.5,0.3,1.1,0.5,1.7,0.6
		c0.8,0.2,1.6,0.2,2.4,0.2c0.6-0.1,1.2-0.2,1.8-0.3c0.5-0.2,0.9-0.3,1.2-0.4c0.3-0.1,0.6-0.2,0.9-0.1c0.3,0,0.5,0.1,0.7,0.3
		s0.3,0.4,0.4,0.7L48.6,290.6z M49.5,264.1c-0.2,1-0.8,1.8-1.6,2.3c-0.4,0.3-0.9,0.4-1.3,0.5c-0.5,0.1-1,0.1-1.5,0s-1-0.3-1.4-0.6
		s-0.7-0.6-1-1s-0.4-0.8-0.5-1.3s-0.1-1,0-1.5s0.3-0.9,0.6-1.4c0.3-0.4,0.6-0.7,1-1c0.8-0.5,1.8-0.7,2.8-0.5c0.5,0.1,1,0.3,1.4,0.6
		s0.7,0.6,1,1s0.4,0.8,0.5,1.3C49.6,263.1,49.6,263.6,49.5,264.1L49.5,264.1z"/>
	<path class="st1" d="M27.7,119.8c0.4-0.7,0.8-1.3,1.3-1.9s1.1-1.2,1.7-1.8c0.7-0.6,1.4-1.1,2.1-1.5c0.9-0.5,1.7-0.9,2.7-1.2
		c1.2-0.4,2.5-0.6,3.9-0.6c1.2,0,2.3,0.2,3.4,0.7c1,0.4,1.9,1.1,2.7,1.9c1.5,1.8,2.2,4,2.2,6.3c0,0.9-0.2,1.8-0.6,2.7
		c-0.3,0.8-0.7,1.5-1.2,2.2l-1.3,1.9c-0.4,0.5-0.7,1.1-1,1.7c-0.3,0.5-0.4,1-0.3,1.6l0.6,3.5l-3.9,1.3l-1.6-3.7
		c-0.3-0.6-0.4-1.3-0.3-2s0.4-1.3,0.7-1.9c0.4-0.7,0.8-1.3,1.2-1.9c0.5-0.6,0.9-1.3,1.3-2s0.6-1.4,0.8-2.1c0.1-0.8,0.1-1.6-0.2-2.4
		c-0.2-0.5-0.4-1-0.8-1.4c-0.3-0.4-0.8-0.7-1.2-0.9c-0.5-0.2-1-0.3-1.6-0.3s-1.2,0.1-1.8,0.3c-0.8,0.3-1.5,0.6-2.1,1.1
		c-0.5,0.3-0.9,0.7-1.4,1.2c-0.3,0.4-0.6,0.7-0.9,1c-0.2,0.2-0.4,0.4-0.7,0.5c-0.2,0.1-0.5,0.1-0.8,0.1c-0.2-0.1-0.5-0.2-0.7-0.4
		L27.7,119.8z M40.2,143.3c-0.2-0.5-0.2-1-0.2-1.5s0.2-0.9,0.4-1.4c0.2-0.4,0.5-0.8,0.9-1.1c0.4-0.3,0.8-0.6,1.3-0.7
		c0.5-0.2,1-0.2,1.5-0.2s0.9,0.2,1.4,0.4c0.4,0.2,0.8,0.5,1.1,0.9c0.3,0.4,0.6,0.8,0.7,1.3c0.2,0.5,0.2,1,0.2,1.5
		c-0.1,0.5-0.2,0.9-0.4,1.3c-0.2,0.4-0.5,0.8-0.9,1.1c-0.4,0.3-0.8,0.6-1.3,0.7c-0.5,0.2-1,0.2-1.5,0.2s-0.9-0.2-1.4-0.4
		c-0.4-0.2-0.8-0.5-1.1-0.9C40.6,144.2,40.4,143.7,40.2,143.3z"/>
	<path class="st1" d="M172.2,123.6c-0.5,0.8-1.1,1.5-1.7,2.2s-1.4,1.4-2.1,2c-0.8,0.6-1.7,1.2-2.7,1.6c-1.1,0.5-2.2,0.9-3.3,1.2
		c-1.5,0.4-3.1,0.6-4.7,0.5c-1.4-0.1-2.8-0.5-4-1.1s-2.2-1.5-3-2.5c-0.9-1.1-1.5-2.4-1.8-3.8c-0.4-1.3-0.5-2.6-0.3-3.9
		c0.1-1.1,0.4-2.2,0.9-3.2c0.4-0.9,0.9-1.8,1.6-2.5l1.7-2.2c0.5-0.6,1-1.3,1.4-1.9c0.3-0.6,0.5-1.2,0.4-1.9l-0.4-4.3l4.8-1.2
		l1.7,4.5c0.3,0.8,0.4,1.6,0.2,2.5c-0.2,0.8-0.6,1.6-1,2.2c-0.5,0.8-1.1,1.5-1.7,2.1c-0.6,0.7-1.2,1.5-1.7,2.3s-0.9,1.6-1.1,2.5
		c-0.3,1-0.3,2,0,2.9c0.1,0.6,0.4,1.2,0.8,1.7s0.9,0.9,1.5,1.2c0.6,0.3,1.2,0.5,1.9,0.5c0.7,0,1.5,0,2.2-0.2
		c0.9-0.2,1.8-0.6,2.7-1.1c0.6-0.4,1.2-0.8,1.7-1.3c0.5-0.4,0.8-0.8,1.1-1.1c0.2-0.3,0.5-0.5,0.9-0.6c0.3-0.1,0.6-0.1,0.9,0
		s0.6,0.3,0.8,0.5L172.2,123.6z M159.1,94.4c0.2,0.6,0.2,1.2,0.1,1.8c-0.1,0.6-0.3,1.1-0.6,1.6c-0.3,0.5-0.7,0.9-1.1,1.3
		c-0.5,0.4-1,0.6-1.6,0.8c-0.6,0.2-1.2,0.2-1.8,0.1c-0.6-0.1-1.1-0.3-1.6-0.6c-0.5-0.3-0.9-0.7-1.3-1.1c-0.4-0.5-0.6-1-0.8-1.6
		c-0.1-0.6-0.2-1.2-0.1-1.8c0.1-0.6,0.3-1.1,0.6-1.6c0.3-0.5,0.7-0.9,1.2-1.2c0.5-0.4,1-0.6,1.6-0.8c0.6-0.1,1.2-0.2,1.8-0.1
		c0.6,0.1,1.1,0.3,1.6,0.5c0.5,0.3,0.9,0.7,1.2,1.1C158.6,93.3,158.9,93.9,159.1,94.4z"/>
	<path class="st1" d="M263.7,76.4c0.7-0.3,1.5-0.6,2.2-0.9c1.7-0.6,3.5-0.9,5.2-0.8c1,0.1,2,0.2,3,0.5c1.3,0.3,2.6,0.9,3.8,1.7
		c1,0.7,1.9,1.5,2.6,2.5s1.1,2,1.2,3.2c0.2,1.2,0.1,2.5-0.2,3.7c-0.3,1.1-0.8,2.2-1.4,3.1c-0.6,0.8-1.2,1.5-2,2
		c-0.7,0.5-1.5,0.9-2.3,1.3l-2.2,0.9c-0.6,0.3-1.2,0.5-1.9,0.9c-0.5,0.3-0.9,0.7-1.1,1.2l-1.5,3.5l-4.2-1.1l0.7-4.2
		c0.1-0.7,0.4-1.4,0.9-2c0.5-0.5,1.1-0.9,1.7-1.3c0.7-0.3,1.4-0.6,2.2-0.9c0.8-0.3,1.5-0.6,2.3-1c0.7-0.4,1.4-0.9,1.9-1.4
		c0.6-0.6,1-1.4,1.2-2.2c0.2-0.5,0.2-1.1,0.1-1.7c-0.1-0.5-0.3-1-0.6-1.5c-0.3-0.5-0.7-0.9-1.2-1.2c-0.5-0.3-1.1-0.6-1.7-0.8
		c-0.8-0.2-1.6-0.4-2.5-0.3c-0.6,0-1.2,0.1-1.8,0.3c-0.5,0.1-1,0.3-1.3,0.4s-0.6,0.1-0.9,0.1c-0.3-0.1-0.5-0.2-0.7-0.4
		c-0.2-0.2-0.3-0.4-0.4-0.7L263.7,76.4z M261.3,104.2c0.1-0.5,0.4-1,0.7-1.4c0.3-0.4,0.7-0.7,1.1-1c0.7-0.4,1.5-0.6,2.2-0.5
		c0.8,0.1,1.5,0.3,2.1,0.8c0.4,0.3,0.7,0.7,1,1.1s0.4,0.9,0.5,1.4s0,1-0.1,1.6c-0.1,0.5-0.4,1-0.7,1.4c-0.3,0.4-0.7,0.7-1.1,1
		s-0.9,0.4-1.4,0.5s-1,0-1.5-0.1s-1-0.4-1.4-0.7c-0.4-0.3-0.7-0.7-1-1.1c-0.2-0.4-0.4-0.9-0.5-1.4
		C261.1,105.2,261.1,104.7,261.3,104.2z"/>
	<path class="st1" d="M382.3,44.4c0.4-1,0.8-2,1.3-3s1.2-2,1.9-2.9c0.8-1,1.6-1.9,2.6-2.7c1-0.9,2.2-1.7,3.4-2.3
		c1.6-0.9,3.4-1.5,5.2-1.9c1.6-0.3,3.2-0.3,4.8,0.1c1.5,0.3,2.9,1,4.2,2c1.3,1,2.4,2.3,3.2,3.8c0.8,1.3,1.3,2.8,1.5,4.3
		c0.2,1.3,0.1,2.6-0.1,3.8c-0.2,1.2-0.5,2.3-1,3.3s-0.9,2-1.3,2.9c-0.4,0.8-0.7,1.7-1,2.6c-0.2,0.7-0.2,1.5,0,2.2l1.7,4.8l-5.1,2.8
		l-3.2-4.6c-0.6-0.8-0.9-1.7-1-2.7c0-1,0.2-1.9,0.5-2.8c0.4-1,0.8-2,1.2-2.9c0.5-1,1-2,1.3-3.1c0.4-1,0.5-2.1,0.6-3.2
		c0-1.2-0.3-2.3-0.9-3.3c-0.3-0.7-0.8-1.3-1.5-1.8c-0.6-0.4-1.2-0.7-1.9-0.9c-0.8-0.1-1.5-0.1-2.3,0c-0.8,0.2-1.6,0.5-2.4,0.9
		c-1,0.5-1.9,1.2-2.7,2c-0.6,0.6-1.1,1.3-1.6,2c-0.4,0.6-0.7,1.2-1,1.6c-0.2,0.4-0.5,0.7-0.8,0.9c-0.3,0.2-0.7,0.3-1,0.3
		c-0.4,0-0.7-0.1-1-0.3L382.3,44.4z M405.6,73.6c-0.3-0.6-0.5-1.3-0.6-2s0-1.3,0.2-2c0.2-0.6,0.5-1.2,0.9-1.8c0.4-0.6,1-1,1.6-1.3
		s1.3-0.6,2-0.6c0.7-0.1,1.3,0,2,0.2c0.6,0.2,1.2,0.5,1.8,0.9c1.1,0.9,1.8,2.2,2,3.5c0.1,0.7,0,1.3-0.2,2c-0.2,0.6-0.5,1.3-0.9,1.8
		c-0.4,0.6-1,1-1.6,1.3s-1.3,0.6-2,0.6c-0.7,0.1-1.3,0-2-0.2c-0.6-0.2-1.2-0.5-1.8-0.9C406.3,74.8,405.9,74.2,405.6,73.6z"/>
	<path class="st1" d="M49.8,79.5c-1.1,0.2-2.1,0.3-3.2,0.3c-2.4,0-4.7-0.4-7-1.2c-1.3-0.5-2.5-1.1-3.7-1.9c-1.6-1-3-2.2-4.1-3.6
		c-1-1.3-1.8-2.7-2.3-4.3c-0.4-1.5-0.5-3.1-0.3-4.6c0.3-1.6,0.9-3.2,1.8-4.6c0.8-1.3,1.9-2.5,3.1-3.4c1-0.8,2.2-1.4,3.4-1.8
		c1.1-0.4,2.3-0.6,3.4-0.7l3.2-0.2c0.9-0.1,1.8-0.2,2.7-0.4c0.8-0.1,1.4-0.5,2-1.1l3.4-3.8l4.9,3.1l-2.5,5c-0.4,0.9-1.1,1.7-1.9,2.1
		c-0.9,0.4-1.8,0.7-2.7,0.9c-1,0.2-2.1,0.3-3.2,0.3s-2.2,0.1-3.3,0.3c-1.1,0.2-2.1,0.5-3.1,1c-1,0.6-1.9,1.4-2.5,2.4
		c-0.4,0.6-0.7,1.4-0.8,2.1c-0.1,0.7,0,1.4,0.2,2.1s0.6,1.4,1.1,2c0.5,0.7,1.2,1.2,1.9,1.7c0.9,0.6,2,1.1,3,1.4
		c0.8,0.2,1.6,0.4,2.5,0.4c0.7,0,1.4,0.1,1.9,0.1c0.4,0,0.8,0.1,1.2,0.3c0.3,0.2,0.6,0.4,0.8,0.8c0.2,0.3,0.2,0.7,0.2,1.1L49.8,79.5
		z M64.1,45c-0.4,0.6-0.9,1.1-1.4,1.5s-1.1,0.7-1.8,0.8c-0.6,0.1-1.3,0.1-2,0s-1.4-0.4-2-0.8s-1.1-0.9-1.5-1.5s-0.6-1.2-0.8-1.8
		c-0.1-0.7-0.2-1.4,0-2c0.1-0.7,0.4-1.3,0.7-1.9c0.4-0.6,0.9-1.1,1.4-1.5c0.6-0.4,1.2-0.6,1.8-0.8c1-0.2,2.1-0.1,3,0.3
		c1,0.4,1.8,1.1,2.4,1.9c0.4,0.5,0.7,1.1,0.8,1.8c0.1,0.6,0.1,1.3,0,2C64.8,43.7,64.5,44.4,64.1,45z"/>
	<path class="st1" d="M120.3,382.8c-0.4,1.9-1.1,3.7-2.2,5.2c-2.2,3.1-5.1,5.7-8.5,7.5c-14.6,8.4-38.4,8.4-53,0
		c-3.4-1.8-6.2-4.4-8.5-7.5c-1.1-1.6-1.9-3.4-2.2-5.2c-1.3-6.3,2.3-13,10.7-17.8c14.6-8.5,38.4-8.5,53,0
		C118,369.8,121.6,376.4,120.3,382.8z"/>
	<path class="st1" d="M320.3,288.8c50.7,29.8,50.4,77.5-0.8,106.5c-51.1,29-133.7,28.4-184.5-1.3c-50.7-29.8-50.4-77.5,0.8-106.5
		C187,258.5,269.6,259.1,320.3,288.8z"/>
	<path class="st2" d="M158.2,169.8c-23.4,13.5-57.3,45.5-57.3,103.2s27.3,100.6,79.5,119.7c16.7,6.1,39.5,8.8,61.3,7.7
		c25-1.1,49.2-9.8,69.2-24.9c13.9-10.6,24.1-23.2,30.9-40.8c11.1-32.5-8.7-66.6-35.7-86c-27-19.5-23.7-41.6-42.8-64.6
		c-10.2-12.4-25.4-23-43.8-25C199.3,156.9,176,159.5,158.2,169.8z"/>
	<path class="st3" d="M158.2,169.8c-23.4,13.5-57.3,45.5-57.3,103.2s27.3,100.6,79.5,119.7c16.7,6.1,39.5,8.8,61.3,7.7
		c25-1.1,49.2-9.8,69.2-24.9c13.9-10.6,24.1-23.2,30.9-40.8c11.1-32.5-8.7-66.6-35.7-86c-27-19.5-23.7-41.6-42.8-64.6
		c-10.2-12.4-25.4-23-43.8-25C199.3,156.9,176,159.5,158.2,169.8z"/>
	<path class="st4" d="M326.6,322c3.7-3.9,6.5-8.5,8.2-13.6s2.4-10.4,1.8-15.8c-0.5-5.3-2.2-10.5-4.9-15.1
		c-2.7-4.6-6.4-8.6-10.8-11.7c-7.9-5.6-17.9-7.7-26.4-12.4C274,242,270,229.6,252.1,183.2c-2-5.3-4.5-10.4-7.4-15.3
		c-7.7-4.8-16.4-7.8-25.4-8.9c-20.1-2.2-43.4,0.4-61.2,10.6c-6.2,3.6-12,7.8-17.5,12.5c-6,24.8-5.3,65.8,1.5,88.7
		c4.4,15,10.6,22.1,10.6,22.1c-23.5-4.6-42.2,11.2-42.2,11.2c6.8-3.2,15.4-3.5,22.7-3.2c9.1,0.5,18.1,2.4,26.7,5.7
		c8.9,3.3,12.4,7.6,18.4,14.7c3.9,4.7,9.1,8.2,14.9,10.1c7.5,2.4,15.5,2.1,23.3,3.1s16.1,3.7,20.4,10.3c2.1,3.2,3,6.9,4,10.6l5,20.3
		c0.7,2.9,1.5,5.9,3.2,8.4c4.4,6.4,14.6,7.3,20.7,2.4c2.9-2.3,4.9-5.6,8-7.7c5.8-4,13.1-2.8,19.6-1.9c3.6,0.4,7.3,0.6,11,0.4
		c0.9-0.6,1.8-1.3,2.7-1.9c7.7-5.8,14.4-12.6,20.1-20.4c-1.4-1.5-2.9-2.7-4.6-3.8c-3.8-2.6-8.1-4.9-10.6-8.8
		C309.9,333.4,321.3,327.6,326.6,322z"/>
	<path class="st4" d="M264.3,397.4c-31.9,2.5-64.7-5.8-90.8-23.5c-42-28.6-60.2-73.9-51.2-127.6c8-47.4,31.7-73.5,55.5-84.3
		c-1.3,0.4-2.7,0.7-3.9,1.1c-1.3,0.4-2.6,0.8-3.8,1.3H170c-1.2,0.5-2.5,0.9-3.7,1.5h-0.1c-1.2,0.5-2.5,1.1-3.7,1.7
		c-19.3,14.1-36.4,39-43,78.2c-9.2,54.9,9.4,101.3,52.4,130.5c20.9,14.2,46,22.4,71.5,24.1C250.4,400,257.4,398.9,264.3,397.4z"/>
	<path class="st5" d="M344.5,126.4c-1.4-0.3-2.9-0.3-4.2,0.1c-1.6,0.5-3.2,1.2-4.7,2c-2.3,1.2-4.7,2.2-7.1,3.2
		c-2.1,0.9-4.4,1.9-6.7,1.8c-0.8,0-2.4-0.3-1.4-1.3c1.4-1.2,2.8-2.6,3.9-4.1c0.6-0.7,1-1.6,1.3-2.5c0.2-0.9,0.3-1.9,0.2-2.8
		c-0.1-0.6-0.4-1.1-0.8-1.4c-0.7-0.5-1.1-0.1-1.6,0.3s-1.1,0.8-1.7,1.1c-1.2,0.7-2.4,1.5-3.5,2.2c-6.9,4.3-14.9,7.7-18.8,15.1
		c-0.6,1.1-2.2,6-3.7,14.5c-1.6,8.5-8.3,30.8-8.3,30.8s-13.3-15.5-23-27.9c-4.5-6-10.7-10.5-17.7-13.1c-3.5-1.2-7-2.2-10.6-2.9
		l9.7,41.9c0,0,23.1,24.7,36.4,35.1c11.9,9.4,19.2,5.4,21.5,2c3.7-5.7,6.9-8.1,9.3-42.9c0.2-2.7,0.3-5.4,0.5-8.1
		c0.6-5.6,2.2-11.1,4.6-11.9c4.4-1.4,8.5-3.3,12.5-5.6c2.6-1.5,5-3.4,7.1-5.6c0.9-0.9,2.3-2.2,2.7-3.5c0.3-1.2,0-2.7,0.6-3.9
		c0.4-0.8,1.1-1.4,1.5-2.3c0.8-1.8,1-4,2.5-5.4c0.8-0.8,2.1-1.4,2.1-2.5c0-0.5-0.2-0.9-0.5-1.2c-0.3-0.4-0.7-0.6-1.1-0.8
		C345,126.6,344.8,126.5,344.5,126.4z"/>
	<path class="st6" d="M287.3,185.4c-3,8.9-3.2,20.7-3.2,20.7s-3.3-13.6,0.5-23.9L287.3,185.4z"/>
	<path class="st6" d="M317.8,137c-1.5,4.5-5.8,9.7-8.3,11.2c0,0,4-1.4,6.2-4.4C318,140.6,318.1,138.8,317.8,137z"/>
	<path class="st1" d="M236,140.2c13.6,3.2,19.3,5.3,25.7,12.4c6.4,7.1,25.8,31.2,25.8,31.2l1.4-4.2c0,0-0.1,8.9,9,15.3
		c9.1,6.4,13.5,3.1,13.5,3.1s-1,7-2.5,13.4s-6.1,13.6-11,14.3s-11.1-1.8-22-11.3s-34.4-32.1-34.4-32.1L236,140.2z"/>
	<path class="st7" d="M287.6,183.7c-1.8,5.7-4.8,16.2-1.5,23.3c-3.7-4.6-3.6-14.9-0.4-25.6L287.6,183.7z"/>
	<path class="st5" d="M274.1,323.2l13.1-21l21.3,15.1L278,347.6c0,0-13.6-2.5-15.2-9.8C261.1,330.3,270.1,325.2,274.1,323.2z"/>
	<path class="st8" d="M257.5,330.4c-1.3,0.8-2.5,1.9-3.4,3.1c-1,1.3-1.3,7.8-2.4,10.7s-1.9,3.7-3.6,7.4c-2,4-5.3,7.6-2.9,18.7
		c2.4,11.2,7.3,16.7,11.6,19.7c1.6,1,3.4,1.6,5.3,1.8c0,0,6.1-1.7,5.5-5.3C267,382.9,257.5,330.4,257.5,330.4z"/>
	<path class="st9" d="M282.5,344.5c-0.3,1.1-2,2.7-2.7,3.5c-2.4,2.9-3.7,6.9-4.8,10.4c-5,16.8,1,26-8.7,31.6
		c-2.8,1.4-8.3,0.5-15.7-11c-3.8-5.9-5.3-17.4-3.1-22.3c2.1-5,4.7-8.1,6.1-11.9c1.4-3.8,1.5-11.2,4-14.4c1.6-1.8,3.5-3.2,5.7-4.1
		c1.7-0.9,5.4-1.8,7.1-2.7c1.9-0.9,2.8-1.8,3.7-0.5l-2.1,2.2c-3.4,3.9-2.6,4.6-2.7,6.8s-1.1,4.7-1.7,6.9c2.4-2.5,3.4-4.8,5.7-4.2
		c2.1,0.6,2.6,0.5,5.6,3.9C282,342.3,282.7,343.6,282.5,344.5z"/>
	<path class="st10" d="M250.6,379.1c-3.8-5.9-5.3-17.4-3.1-22.3c0.7-1.6,1.5-3.2,2.4-4.8c-0.1,0.3-0.2,0.7-0.3,1
		c-0.2,0.7-0.3,1.3-0.4,2c-0.5,2.5-0.7,5.3,0.2,7.8c0.8,2.2,2.5,7.7,5.4,8.1c1.6,0.2,3.1-1.3,3.9-3c0.3-0.7,1-2.8,1-2.8
		c2.6,0.8,5,2.1,7.2,3.7c3.9,3.1,3.7,3.7,3.7,3.7c-0.4,1.2-0.5,2.4-0.5,3.7c0.1,1.3,0.5,2.6,1.2,3.8c0.3,0.4,0.6,0.7,1,0.9
		c-0.5,3.9-1.8,6.9-5.9,9.3C263.5,391.6,258,390.6,250.6,379.1z"/>
	<path class="st10" d="M275,358.5c-1.3,4.4-2,9-2.3,13.6c-1.9,4.2-3.3,4-3.3,1.7s3.8-11.4,6.8-19C275.8,356,275.4,357.3,275,358.5z"
		/>
	<path class="st10" d="M267,330.2c0-2.2,0.8-4.4,2.2-6.1c0.4-0.2,0.8-0.3,1.1-0.5c1.9-0.9,2.8-1.8,3.7-0.5l-2.1,2.2
		c-3.4,3.9-2.6,4.6-2.7,6.8s-1.1,4.7-1.7,6.9c-2.4,7.3-4.2,9.6-5.6,16.5s-0.4,11.8-1.4,12.1s-3-0.7-2.8-6.3
		c0.1-5.6,3.4-14.8,5.6-19.2C265.4,337.9,267.1,333.3,267,330.2z"/>
	<path class="st11" d="M259,365.5c0.1,0.1,0.2,0.2,0.3,0.2c4.8,1.5,7.3,2.9,10.6,7.5c0.1,0.1,0.3,0.2,0.5,0.3c0.2,0,0.4,0,0.5-0.1
		c0.2-0.1,0.3-0.3,0.3-0.5s0-0.4-0.1-0.5c-3.5-4.9-6.2-6.5-11.4-8.1c-0.1,0-0.3,0-0.4,0c-0.1,0.1-0.3,0.1-0.4,0.3
		c-0.1,0.1-0.1,0.3-0.1,0.4C258.9,365.3,258.9,365.4,259,365.5L259,365.5z"/>
	<path class="st11" d="M260.4,359.8c0.1,0.1,0.2,0.2,0.3,0.2c5,1.6,7.7,3.3,11.2,8.2c0,0.1,0.1,0.1,0.2,0.2c0.1,0.1,0.2,0.1,0.3,0.1
		c0.1,0,0.2,0,0.3,0c0.1,0,0.2-0.1,0.3-0.1c0.1,0,0.1-0.1,0.2-0.2s0.1-0.2,0.1-0.3s0-0.2,0-0.3s-0.1-0.2-0.1-0.2
		c-3.7-5.1-6.6-7-11.9-8.7c-0.2,0-0.4,0-0.5,0c-0.2,0.1-0.3,0.2-0.4,0.4c0,0.1,0,0.2,0,0.4C260.3,359.5,260.3,359.7,260.4,359.8z"/>
	<path class="st11" d="M260.8,353.3c0.1,0.1,0.2,0.2,0.4,0.2c5.5,1.8,8.6,3.8,12.4,9.2c0.1,0.2,0.3,0.3,0.5,0.3s0.4,0,0.6-0.1
		s0.3-0.3,0.3-0.5s0-0.4-0.1-0.6c-4-5.6-7.5-7.9-13.3-9.8c-0.2-0.1-0.4,0-0.6,0c-0.2,0.1-0.3,0.3-0.4,0.5c0,0.1,0,0.3,0,0.4
		C260.7,353.1,260.7,353.2,260.8,353.3z"/>
	<path class="st11" d="M262.3,347.9c0.1,0.1,0.2,0.2,0.4,0.2c5.4,1.8,8.4,3.7,12.2,9c0.1,0.2,0.3,0.2,0.5,0.3c0.2,0,0.4,0,0.6-0.1
		s0.3-0.3,0.3-0.5s0-0.4-0.1-0.6c-4-5.5-7.3-7.7-13-9.5c-0.2-0.1-0.4,0-0.6,0c-0.2,0.1-0.3,0.3-0.4,0.5c0,0.1,0,0.3,0,0.4
		C262.2,347.7,262.2,347.8,262.3,347.9z"/>
	<path class="st11" d="M264.7,342.7c0.1,0.1,0.2,0.2,0.3,0.2c5.4,1.8,8.4,3.7,12.2,9c0,0.1,0.1,0.2,0.2,0.2s0.2,0.1,0.3,0.1
		c0.1,0,0.2,0,0.3,0c0.1,0,0.2-0.1,0.3-0.1c0.1-0.1,0.2-0.1,0.2-0.2c0.1-0.1,0.1-0.2,0.1-0.3s0-0.2,0-0.3s-0.1-0.2-0.2-0.3
		c-4-5.5-7.3-7.7-13-9.5c-0.2-0.1-0.4,0-0.6,0c-0.2,0.1-0.3,0.3-0.4,0.5c0,0.1,0,0.3,0,0.4C264.6,342.5,264.7,342.6,264.7,342.7z"/>
	<path class="st5" d="M280,325.5l13.5,13.2l7.8,5.9l-10.9,16.9l-25.3-15L280,325.5z"/>
	<path class="st9" d="M257.3,243.5c0,0,53.7-4.2,76.3-2c23.1,2.2,23.7,19.7,17,29.8c-12.8,19.4-55.1,59.2-55.1,59.2
		s-12.4-7.1-15.4-18.6l10.5-19.4l-28.4,6.4l-13.3-10.7l-0.5-7.3L257.3,243.5z"/>
	<path class="st9" d="M257.3,243.5l-92.9,7.3c0,0-2.8,21.9,4.1,42.2c5.9,17.5,20.4,26.3,32,29.2c9.1,2.1,18.2,3.6,27.5,4.7
		c0,0,6.7,6.3,13.7,9.8s37.8,19.7,37.8,19.7s9.6-6.8,10.1-22.7l-27.3-34.6c-6.1-8.9-8.2-11.8-11.9-14
		C256.6,261.3,256.9,255.9,257.3,243.5z"/>
	<path class="st10" d="M258.2,293.2c2.8,3.9,4.1,5.8,4.1,5.8l4.5-1.1c0,0-7.1-9.2-11.8-14.1c-5.1-5.4-12.4-6.3-19.5-5.8
		c-9,0.7-35.1,2.8-35.1,2.8s24.8-0.1,37.7,0.5C251,282,255.4,289.3,258.2,293.2z"/>
	<path class="st10" d="M252.2,258.4c-0.5,9-6.3,19.1-9.6,21.7l5.3,2.4C247.9,282.5,254.3,270.4,252.2,258.4z"/>
	<path class="st10" d="M296.8,275.8c-4.8,5.9-9.3,12-13.4,18.4l7.2-1.6c9.6-18.3,11.7-23.7,25.2-31.4
		C315.9,261.1,306.4,263.7,296.8,275.8z"/>
	<path class="st10" d="M222.1,315.6c0,0,4.2,7.4,19.3,15.4c8.5,4.5,34.7,17.5,42.8,20.2c-1.3,2-2.9,3.7-4.7,5.1
		c0,0-30.8-16.2-37.8-19.7c-1.5-0.8-3-1.6-4.4-2.6c-0.6-0.4-1.2-0.8-1.8-1.2c-1.6-1.1-3-2.2-4.1-3.1c-1.2-0.9-2.1-1.7-2.7-2.2
		l-0.6-0.5l-0.1-0.1C221.6,320.3,222.1,315.6,222.1,315.6z"/>
	<path class="st8" d="M333.8,356.7c6,3,9.6,5.8,12.2,9.8c2.5,4,3.1,7.9,0,12.2s-8.6,9.2-14.5,8.4c-5.9-0.9-9.5-2.7-14.7-6.2
		L333.8,356.7z"/>
	<path class="st9" d="M283.6,357.6c-0.2,1.9,7.3,6.2,15.1,10.9c8.4,4.9,10.3,7.8,17.1,12c7.8,4.7,10.9,5.2,17.4,4
		s15.1-9.6,10.4-18.4c-3.9-7.2-9.4-9.5-18-12.6c-6.8-2.4-13.4-5.2-19.8-8.4c-6.1-3-10.9-7.8-12.3-6.4c0.9,0.5,7.1,5.2,5.8,6.2
		c-0.4,0.5-1.3,0.3-2.8-0.5c-0.3-0.2-0.7-0.3-1.1-0.4c-0.4-0.1-0.8,0-1.2,0.1c-0.8,0.4-1.4,1-1.8,1.8c-1.2,1.8-1.4,2.9-2.4,4.8
		c-0.6,1.1-0.3,0.5-0.9,1.6c-0.6,1.3-1.8,3.1-1.8,4.3c0,0.7,0.5,1,1,1.4s1.3,0.9,1.8,1.3c0.2,0.2,0.5,0.8,0.4,1
		c-0.2,0.5-1.4,0.1-1.8-0.1c-0.4-0.2-1.2-0.5-1.8-0.8C286.4,359.2,285,358.4,283.6,357.6z"/>
	<path class="st10" d="M313.2,378.9c1.1,0.7,8.2,4.8,10.8,2.9c2.7-2-2.9-6.1-2.9-6.1s-0.4-5.7,7-13.3c1.1,1,6,1.4,6.2-1.5
		s-7.7-7.1-7.8-7.2c8.2,3,13.5,5.4,17.2,12.3c4.7,8.8-3.9,17.2-10.4,18.4s-9.6,0.7-17.4-4C315.1,380,313.9,379.3,313.2,378.9z"/>
	<path class="st10" d="M321.9,375.2c3,1.3,0.6,3.9-3.8,2.7c-6.7-2-12-6.3-19.3-9.4c-7.8-4.6-15.8-9-15.1-11c1.4,0.7,4.4,2.2,4.4,2.2
		c0.6,0.3,2.1,1,2.1,1c6,3.2,12.4,8.1,19,10.5C314.9,373.4,318.8,373.9,321.9,375.2z"/>
	<path class="st10" d="M327.5,363.4c-2.7-1.9-3.1-3.3-8.4-6.4c-5.3-3-14.2-9.3-19.7-13.2c-2.1-1.6-4-3.4-5.9-5.2
		c1-1,4.5,0.3,7.9,2.8c3.3,2.5,5.4,4.1,8.7,6.3c6.5,4.7,14,8.1,17.7,11C331.4,361.6,330.2,365.3,327.5,363.4z"/>
	<path class="st12" d="M328,362.7c-0.1,0.1-0.1,0.2-0.2,0.2c-0.1,0.1-4.9,4.5-6.5,13.2c0,0.2-0.1,0.4-0.3,0.5
		c-0.2,0.1-0.4,0.2-0.6,0.2c-0.1,0-0.2-0.1-0.3-0.1c-0.1-0.1-0.1-0.1-0.2-0.2c-0.1-0.1-0.1-0.2-0.1-0.3s0-0.2,0-0.3
		c1.7-9.3,6.8-14,7.1-14.2c0.1-0.1,0.1-0.1,0.2-0.2c0.1,0,0.2,0,0.3,0c0.1,0,0.2,0,0.3,0.1c0.1,0,0.1,0.1,0.2,0.2
		c0.1,0.1,0.1,0.3,0.1,0.4C328.1,362.4,328.1,362.5,328,362.7z"/>
	<path class="st12" d="M322.9,358.2c0,0.1-0.1,0.2-0.2,0.2c-4,4.4-6.7,9.8-8,15.6c0,0.2-0.1,0.4-0.3,0.5c-0.2,0.1-0.4,0.2-0.6,0.2
		c-0.1,0-0.2,0-0.3-0.1c-0.1-0.1-0.1-0.1-0.2-0.2c-0.1-0.1-0.1-0.2-0.1-0.3s0-0.2,0-0.3c1.3-6.2,4.2-11.9,8.5-16.5
		c0.1-0.1,0.1-0.1,0.2-0.2c0.1,0,0.2,0,0.3,0c0.1,0,0.2,0,0.3,0c0.1,0,0.2,0.1,0.2,0.2c0.1,0.1,0.2,0.3,0.2,0.5
		C323,357.9,322.9,358,322.9,358.2z"/>
	<path class="st12" d="M309.4,372.9c-0.1,0.1-0.2,0.2-0.3,0.3c-0.1,0.1-0.3,0.1-0.4,0.1s-0.2,0-0.3-0.1c-0.1,0-0.2-0.1-0.2-0.2
		c-0.1-0.1-0.1-0.2-0.1-0.2c0-0.1,0-0.2,0-0.3c1.2-9.9,8.4-18.6,8.7-18.9c0.1-0.1,0.1-0.1,0.2-0.2c0.1,0,0.2,0,0.3,0
		c0.1,0,0.2,0,0.3,0.1c0.1,0,0.2,0.1,0.2,0.2c0.1,0.2,0.1,0.4,0.1,0.6c0,0.2-0.1,0.4-0.3,0.5c-0.1,0.1-7,8.6-8.1,17.8
		C309.5,372.7,309.4,372.8,309.4,372.9z"/>
	<path class="st12" d="M304.6,369.3c-0.1,0.1-0.2,0.2-0.3,0.3c-0.1,0.1-0.3,0.1-0.4,0.1s-0.2,0-0.3-0.1c-0.1,0-0.2-0.1-0.2-0.2
		c-0.1-0.1-0.1-0.2-0.1-0.2c0-0.1,0-0.2,0-0.3c0.8-6.8,4-13.2,9-17.9c0.1-0.1,0.1-0.1,0.2-0.1s0.2,0,0.3,0c0.1,0,0.2,0,0.3,0.1
		c0.1,0,0.1,0.1,0.2,0.2c0.1,0.2,0.1,0.4,0.1,0.6c0,0.2-0.1,0.4-0.3,0.5c-4.6,4.4-7.5,10.3-8.4,16.7
		C304.7,369,304.7,369.2,304.6,369.3z"/>
	<path class="st11" d="M298.3,365.9c-0.1,0.1-0.2,0.2-0.3,0.3c-0.1,0.1-0.2,0.1-0.4,0.1c-0.1,0-0.2,0-0.3-0.1
		c-0.1,0-0.2-0.1-0.2-0.2c-0.1-0.1-0.1-0.2-0.1-0.2c0-0.1,0-0.2,0-0.3c0.9-10.3,8.9-17.7,9.2-17.9c0.1-0.1,0.1-0.1,0.2-0.2
		c0.1,0,0.2,0,0.3,0c0.1,0,0.2,0,0.3,0.1c0.1,0,0.1,0.1,0.2,0.2c0.1,0.2,0.1,0.4,0.1,0.6c0,0.2-0.1,0.4-0.3,0.5
		c-0.1,0.1-7.7,7.2-8.6,16.7C298.4,365.7,298.3,365.8,298.3,365.9z"/>
	<path class="st8" d="M251.7,174.7c0.9-24.7-4.1-32-16.4-34.4l-20.4-4c-6.2,0.7-33.8,10.5-41,12.3c-4.7,1.2-7.5,10.7-9.8,25.8
		c-1.9,12.3-1.7,22-2.8,39.1c-0.9,14.3,0.2,37.5,2.9,57.7c39,14.8,87.7-8.2,92.4-26.9c-1.2-5.2-8.6-14-8.7-24.4
		C250.3,198.6,251.4,182.4,251.7,174.7z"/>
	<path class="st11" d="M173.4,148l21.9-8.8c0,0,2.1,6.7,7,19.7c4.9,12.9,4.6,18.6,3.3,40.3c-1.3,21.7-3.1,45,5.3,76.6
		c-10.2,1.4-24.1,3.8-48.2-2.7c0,0-2.7-21.9-2.3-61.8C160.4,189.1,162.1,153.3,173.4,148z"/>
	<path class="st11" d="M224,139.9c8.5,4.2,14,14.5,14.9,28.1s-0.4,48.1,0.1,58.4c0.6,10.3,9.9,30.4,9.9,30.4
		c4.4-3.7,8-8.3,10.5-13.5c-4.4-6.9-8.2-16.3-8.3-24.8c-0.1-8.5,3-35.5,2.7-45.9c-0.4-10.4-0.2-24.8-12-30.6
		c-5.1-2.5-17.4-4.4-17.4-4.4L224,139.9z"/>
	<path class="st0" d="M239.2,175.9c-0.3-10-4.4-28.2-14.8-32.8c-0.3-1-0.5-2.1-0.4-3.2l0.5-5.1c3.1,1.4,6.1,3.2,8.8,5.3
		c4.4,3.4,11.5,13.6,12.9,21.5C241.9,157.2,239.5,163.5,239.2,175.9z"/>
	<path class="st10" d="M193.4,79.5c0,0-4.5,0.2-7.7,5.8c-1.6,2.8-2.9,8,0.7,23.1c2.3,9.8,5.3,14,6.6,16.8c0.9,1.7,2.4,2.9,4.2,3.5
		l0.1-11.5l-0.1-8c0,0,6.7-5.6,7.4-11.4c1-7.4-1.8-11.7-1.8-11.7L193.4,79.5z"/>
	<path class="st10" d="M191.8,79.9c1.4-6.4,9.9-13.8,25.7-14.1c13-0.2,20.4,4.5,24.6,12.2s0.9,17.4,0.9,17.4l-40.6-4.2L191.8,79.9z"
		/>
	<path class="st5" d="M186.6,120.3c5.9,3.1,8.7-1.5,8.7-1.5v25.8c10.9,15.7,41.6,10.7,29.5-1.2l0.2-7.3c1.7,0,3.5-0.1,5.2-0.4
		c2.7-0.3,5.2-1.4,7.2-3.2c2-1.8,3.5-4.1,4.3-6.7c2.7-8.4,3-21.9,0.4-36.4c-0.5-2.8-1.6-5.9-4.1-7.2c-6.2-3.4-12.2,0.9-21.2,4.1
		c-3.7,1.3-12.6,1.6-14.9,0.4c3,3.5,0.9,12.2-0.1,15c-1.3,4-3.1,5.9-3.9,6c-3.6,0.6-3.9-2.5-5.5-4.2c-1.6-1.8-7.6-3.5-10.4,2
		c-0.7,1.3-1.1,2.7-1.3,4.1c-0.2,1.4,0,2.9,0.4,4.3s1.1,2.7,2,3.8C184.2,118.7,185.3,119.6,186.6,120.3z"/>
	<path class="st6" d="M202.8,128.5c1,5.9,8.8,10,22.2,10.8l0.1-3.2c-3.3-0.2-6.5-0.6-9.8-1.2C209.1,133.6,202.8,128.5,202.8,128.5z"
		/>
	<path class="st10" d="M211.2,95.8l5.7-2.9c0.4,0.8,0.4,1.7,0.1,2.5s-0.8,1.5-1.6,1.9c-0.4,0.2-0.8,0.3-1.2,0.3
		c-0.4,0-0.8,0-1.2-0.2c-0.4-0.1-0.8-0.4-1.1-0.6C211.6,96.6,211.4,96.2,211.2,95.8z"/>
	<path class="st10" d="M234.2,87.6l5.2,3.8c-0.2,0.3-0.5,0.6-0.9,0.9c-0.3,0.2-0.7,0.4-1.1,0.5s-0.8,0.1-1.2,0
		c-0.4-0.1-0.8-0.3-1.1-0.5c-0.7-0.5-1.1-1.3-1.3-2.1C233.5,89.2,233.7,88.3,234.2,87.6z"/>
	<path class="st8" d="M214,102.3c0,0.5,0.1,1,0.4,1.5c0.3,0.4,0.6,0.8,1.1,1s1,0.3,1.5,0.2c0.5-0.1,1-0.3,1.4-0.6
		c0.4-0.3,0.6-0.8,0.8-1.3c0.1-0.5,0.1-1-0.1-1.5s-0.5-0.9-0.9-1.2c-0.4-0.3-0.9-0.5-1.4-0.5c-0.3,0-0.7,0-1,0.1s-0.6,0.3-0.9,0.5
		c-0.2,0.2-0.4,0.5-0.6,0.8S214,101.9,214,102.3z"/>
	<path class="st8" d="M234.2,101.4c0,0.5,0.1,1,0.4,1.5c0.3,0.4,0.6,0.8,1.1,1s1,0.3,1.5,0.2c0.5-0.1,1-0.3,1.4-0.6
		c0.4-0.3,0.6-0.8,0.8-1.3c0.1-0.5,0.1-1-0.1-1.5s-0.5-0.9-0.9-1.2c-0.4-0.3-0.9-0.5-1.4-0.5c-0.4-0.1-0.7,0-1,0.1s-0.6,0.3-0.9,0.5
		s-0.5,0.5-0.6,0.8C234.2,100.7,234.2,101.1,234.2,101.4z"/>
	<path class="st6" d="M224.9,96.7l0.2,16.9l9.4-2.1C232.7,104.8,228.2,100.1,224.9,96.7z"/>
	<path class="st13" d="M222.1,120.4c-0.1-0.1-0.2-0.2-0.3-0.2l-0.2-0.1l0,0c-0.1,0-0.2-0.1-0.3-0.1h-0.1v0.1v0.1c0,0,0,0.1,0.1,0.1
		c0.1,0.1,0.2,0.2,0.4,0.2l0.3,0.1c0.1,0,0.1,0,0.2,0c0,0,0,0,0-0.1v-0.1C222.2,120.5,222.2,120.4,222.1,120.4z M224.4,119.6
		c-0.2-0.2-0.4-0.4-0.7-0.5c-0.5-0.3-1-0.6-1.5-0.8c-0.5-0.2-1.1-0.4-1.6-0.5c-0.6-0.2-1.2-0.2-1.8-0.1c-0.4,0.1-0.1,0.6,0.2,0.7
		c0.6,0.2,1.3,0.2,1.9,0.3c0.5,0.1,1,0.3,1.5,0.5s0.9,0.5,1.3,0.8c0.3,0.2,0.5,0.3,0.8,0.5c0.1,0.1,0.2,0.1,0.3,0.2
		c0.2,0,0.2-0.1,0.2-0.2C224.9,120.1,224.7,119.8,224.4,119.6z"/>
	<path class="st0" d="M206.4,179.7c-0.7-19.6-10-15.4-12.4-9.2c-6.1-11.2-5.2-25.1-4.8-28.7c2.2-3.2,2.6-3.9,3.5-5.4
		c1.3-2.1,1.5-2.5,2.6-2.8v5.7c0,0,1.6,3.8,6.8,11.5C205.9,156.3,206.8,163.2,206.4,179.7z"/>
	<path class="st5" d="M90.5,120.7c1.4-0.1,2.9,0.2,4.2,0.8c1.5,0.8,2.9,1.7,4.3,2.7c2.1,1.5,4.2,3,6.4,4.3c2,1.2,4,2.6,6.3,2.9
		c0.8,0.1,2.4,0.1,1.6-1c-1.2-1.5-2.3-3-3.2-4.7c-0.5-0.8-0.7-1.7-0.8-2.7s0-1.9,0.3-2.8c0.2-0.5,0.6-1,1.1-1.3
		c0.7-0.3,1.1,0,1.5,0.5c0.5,0.5,1,1,1.5,1.4c1,0.9,2.1,1.8,3.1,2.8c6.1,5.4,13.4,10.1,16.1,18c0.4,1.1,1.1,6.3,1.3,14.9
		c0.1,8.7,2.9,29,2.9,29s3.9-4.9,13.3-17.6c8.6-11.6,11.3-16.1,18.8-18.5c3.4-1.1,7.1-1.9,8.2-2.2c6.2,7.3,2.4,32.7-9.3,45.1
		c0,0-16.6,20.3-29.9,31c-11.9,9.5-19.7,3.9-21.3,0.1c-2.7-6.2-6.9-12.4-3.4-47.1c0.2-2.7,0.6-5.4,0.8-8.1
		c0.3-5.6-0.4-11.3-2.5-12.5c-4.1-2.1-7.9-4.7-11.4-7.6c-2.3-2-4.3-4.2-6.1-6.7c-0.7-1-1.9-2.6-2.1-3.8s0.4-2.7,0-4
		c-0.3-0.9-0.9-1.6-1.1-2.5c-0.5-1.9-0.3-4.1-1.6-5.8c-0.7-0.9-1.8-1.7-1.7-2.8c0.1-0.4,0.4-0.8,0.7-1.1c0.3-0.3,0.8-0.5,1.2-0.6
		C90.1,120.8,90.3,120.7,90.5,120.7z"/>
	<path class="st6" d="M137.2,185.6c1.4,9.3,0.1,22.2,0.1,22.2s5.2-15.7,3.2-26.5L137.2,185.6z"/>
	<path class="st6" d="M115.2,135.5c0.7,4.7,4.1,10.5,6.4,12.4c0,0-3.8-2.1-5.4-5.3C114.4,139.1,114.6,137.2,115.2,135.5z"/>
	<path class="st1" d="M178.1,146.1c-6.2,1.6-11.9,3.1-15.1,5.6s-5.3,5.4-10,11.8c-4.7,6.3-15.5,20.4-15.5,20.4l-1.6-8.9
		c0,0,0.3,5.4-5.3,10.1c-5.5,4.7-16.1,6.7-18.5,3.3c0,0-1.1,13.6,0,21.9c1.1,8.3,4.8,15.7,7.3,18.2c2.4,2.5,7,2.8,15.2-1.8
		c8.2-4.5,21.8-19.3,27.1-25.5c5.3-6.2,9.5-10,11.8-13.8C175.8,183.7,187.2,160.1,178.1,146.1z"/>
	<path class="st7" d="M137.5,183.9c1.6,7.7,1.5,18.4-1,24.7c5.6-10.2,4.4-21.9,3.3-27.7L137.5,183.9z"/>
	<path class="st10" d="M113,354.1H53.1l6.2,25.8c0.5,3.1,2.8,6.1,6.9,8.5c9.3,5.4,24.4,5.4,33.7,0c4.4-2.6,6.7-5.9,6.9-9.2
		L113,354.1z"/>
	<path class="st8" d="M105.7,371.7c1.2-0.7,2.4-1.6,3.5-2.5l3.4-13.8c-1.8,1.9-3.8,3.5-6,4.8c-12.6,7.3-32.8,7.5-45.9,0.6l1.5-6.1
		l-0.5-0.6h-8.6l6.2,25.7c0.5,3.1,2.8,6.1,6.9,8.5c6.6,3.8,16.2,4.9,24.5,3.3c-14.9,1.1-25.1-5.4-26.7-11.4
		c-0.6-2.4-1.7-7.7-1.7-7.7C74.8,378.8,93.8,378.6,105.7,371.7z"/>
	<path class="st9" d="M116.1,346.4c-0.3,1.7-1,3.3-2,4.6c-2,2.8-4.5,5.1-7.5,6.7c-13,7.5-34.1,7.5-47,0c-3-1.6-5.6-3.9-7.5-6.7
		c-1-1.4-1.6-3-2-4.6c-1.1-5.6,2-11.5,9.5-15.8c13-7.5,34.1-7.5,47.1,0C114.1,334.9,117.3,340.8,116.1,346.4z"/>
	<path class="st10" d="M114.1,351.1c-2,2.8-4.5,5.1-7.5,6.7c-13,7.5-34.1,7.5-47,0c-3-1.6-5.6-3.9-7.5-6.7c-1-1.4-1.6-3-2-4.6
		l1.5,10.1c0.7,4.1,3.7,8,9.1,11.2c12.4,7.1,32.4,7.1,44.8,0c5.3-3.1,8.4-7,9.1-11l0.1-0.5l1.4-9.8
		C115.8,348.1,115.1,349.7,114.1,351.1z"/>
	<path class="st8" d="M102.7,332.8c-10.8-6.3-28.4-6.3-39.2,0c-6.1,3.5-8.8,8.3-8,12.9c0.6,3.5,3.3,7,8,9.7
		c10.8,6.2,28.4,6.2,39.2,0c4.7-2.7,7.4-6.2,8-9.7C111.5,341.2,108.9,336.4,102.7,332.8z"/>
	<path class="st0" d="M57.3,350c1.6,2.2,3.7,4.1,6.2,5.4c10.8,6.2,28.4,6.2,39.2,0c2.4-1.3,4.5-3.2,6.1-5.4
		c-0.1-3.7-2.6-7.5-7.5-10.3c-10-5.8-26.4-5.8-36.4,0C59.9,342.6,57.4,346.3,57.3,350z"/>
	<path class="st2" d="M85.2,338.4c-5-1.3-5.8-12.1-3-23.5c2.7-11.1,11.4-27.7,13.2-27.3c1.8,0.4,4.2,18.4,2.9,30.3
		C96.7,332.4,90.1,339.8,85.2,338.4z"/>
	<path class="st14" d="M85.2,338.4c-5-1.3-5.8-12.1-3-23.5c2.7-11.1,11.4-27.7,13.2-27.3c1.8,0.4,4.2,18.4,2.9,30.3
		C96.7,332.4,90.1,339.8,85.2,338.4z"/>
	<path class="st15" d="M87.6,303.6c0.9,1.4,1.5,3.8,3.5,3.8c1.7,0,2.6-1.8,4.1-2.2c0.6-0.1,1.2,0,1.8,0.1c0.6,0.2,1.1,0.5,1.6,0.9
		c0-0.4,0-0.9-0.1-1.3c-0.8-0.6-1.8-1-2.9-1c-0.9,0.1-1.7,0.5-2.4,1.1c-0.8,0.6-1.7,1.5-2.8,1.1c-1.1-0.4-1.6-2-2.2-3
		c-0.3-0.6-0.8-1-1.3-1.4c-0.1,0.3-0.3,0.6-0.4,0.9C86.9,302.8,87.3,303.1,87.6,303.6z M93.5,299.1c0.7-0.3,1.1-1,1.7-1.6
		c0.3-0.3,0.8-0.5,1.2-0.6c0.5-0.1,0.9,0,1.4,0.1h0.1c0-0.4-0.1-0.8-0.1-1.1c-0.2-0.1-0.3-0.1-0.5-0.1c-0.7-0.1-1.5,0-2.1,0.5
		c-0.7,0.5-1.1,1.3-1.8,1.8c-1.3,0.8-2.3-0.6-2.7-1.7c-0.2-0.5-0.3-1-0.5-1.5l-0.4,0.8c0.1,0.3,0.2,0.7,0.3,1
		C90.5,298.1,91.8,300,93.5,299.1L93.5,299.1z M93.3,313.5c-0.9,0.5-1.7,1.5-2.7,1.8c-2.6,0.7-3.2-3.2-4.8-4.4
		c-0.7-0.5-1.5-0.7-2.3-0.6c-0.1,0.3-0.2,0.6-0.3,0.9c0.4-0.1,0.9-0.1,1.3,0c0.5,0.1,1,0.4,1.3,0.7c0.4,0.3,0.7,0.8,0.9,1.2
		c0.8,1.5,1.8,3.5,3.9,3.2c0.9-0.3,1.7-0.7,2.4-1.3c0.5-0.4,1-0.7,1.6-0.8c0.6-0.2,1.2-0.2,1.8-0.1c0.7,0.2,1.4,0.5,2,1
		c0-0.4,0-0.8,0.1-1.2c-0.7-0.6-1.5-0.9-2.4-1.1C95.2,312.8,94.2,313,93.3,313.5L93.3,313.5z M94.9,322.2c-1.1-0.3-2.3-0.1-3.4,0.4
		c-1.2,0.6-2,1.8-3.3,2.2c-2.7,1-3.1-2.9-5.1-3.9c-0.6-0.3-1.3-0.4-2-0.4c0,0.3-0.1,0.6-0.1,0.9c0.3,0,0.5,0,0.8,0
		c0.6,0.1,1.2,0.3,1.7,0.7s0.9,0.9,1.1,1.4c1,1.8,2.2,3.2,4.4,2.2c1.2-0.6,2-1.6,3.2-2.2c0.6-0.3,1.4-0.5,2.1-0.4s1.4,0.3,2,0.8
		c0.3,0.3,0.5,0.6,0.8,0.9c0.1-0.4,0.2-0.8,0.3-1.2C96.7,323,95.8,322.5,94.9,322.2L94.9,322.2z"/>
	<path class="st7" d="M85.2,338.4c5,1.3,11.5-6.1,13.1-20.5c0.4-4.1,0.5-8.2,0.3-12.4c-4.1,3.3-8.1,10.1-8.1,10.1
		c-1.4-3.7-3-7.3-4.8-10.9c-1.4,3.3-2.5,6.7-3.4,10.1C79.3,326.3,80.2,337.1,85.2,338.4z"/>
	<path class="st2" d="M81.1,344.4c-6.6,4.2-12.6-10.7-15.9-22s-1.1-40.8,2.2-42.4c2.3-1.1,14.7,25.3,17.1,38.1
		C86.3,327.5,86.3,341.1,81.1,344.4z"/>
	<path class="st7" d="M81.1,344.4c-6.6,4.2-12.6-10.7-15.9-22s-1.1-40.8,2.2-42.4c2.3-1.1,14.7,25.3,17.1,38.1
		C86.3,327.5,86.3,341.1,81.1,344.4z"/>
	<path class="st2" d="M67,300.9c2.1,1,3.7,1,5.3-0.7c1.6-1.7,2.6-3.6,4.9-3.4c-0.2-0.5-0.5-1-0.7-1.5c-0.4,0-0.8,0-1.1,0.1
		c-2,0.5-2.9,2.7-4.4,4c-2.2,2.1-4.5-0.6-7-0.5h-0.2c0,0.5,0,0.9-0.1,1.4C64.9,300.1,66,300.3,67,300.9z M85,321.1
		c-0.4-0.1-0.7-0.2-1.1-0.3c-0.5-0.1-1.1-0.1-1.6,0s-1,0.4-1.5,0.7c-2,1.5-2.1,4.7-5.3,3.8c-2.4-0.6-4.3-2.3-6.8-1
		c-0.9,0.5-1.7,1.1-2.4,1.8l0.4,1.1c0.9-0.9,2-1.6,3.2-2c2.8-0.7,4.8,2.1,7.6,1.6c2.2-0.4,2.5-2.8,4-4c1.1-0.9,2.4-0.7,3.6-0.2
		C85.1,322.1,85,321.6,85,321.1L85,321.1z M67.1,290.1c0.8,1.1,1.8,2.2,3.3,1.5c1.4-0.7,1.6-2.7,2.6-3.8c-0.2-0.3-0.4-0.7-0.5-1
		c-0.9,1.3-1.4,4-3.2,3.9c-1.4-0.1-2-2.2-3.2-2.8c-0.4-0.2-0.8-0.3-1.2-0.2l-0.1,0.9h0.3C66,288.6,66.6,289.4,67.1,290.1z M72,312.5
		c2.6,0.6,3.9-2.5,5-4.2c0.8-1.4,2.1-2.4,3.5-3l-0.5-1.4c-0.5,0.1-0.9,0.3-1.3,0.5c-1.1,0.7-2.1,1.7-2.8,2.8
		c-0.8,1.2-1.4,2.7-2.7,3.5c-1.4,0.9-3-0.5-4.4-0.8c-1.3-0.2-2.7-0.1-4,0.3c-0.4,0.2-0.8,0.3-1.2,0.6c0,0.6,0,1.3,0.1,1.9
		c1.2-1,2.7-1.5,4.2-1.4C69.5,311.4,70.6,312.2,72,312.5z"/>
	<path class="st7" d="M81.1,306.4c-2.2,2.6-3.9,5.6-5.3,8.7c0,0-7.1-9.6-12.1-14c-0.3,8,0.1,16.4,1.5,21.3
		c3.2,11.3,9.4,26.2,15.9,22c5.2-3.3,5.1-16.9,3.4-26.2C83.6,314.2,82.5,310.3,81.1,306.4z"/>
	<path class="st2" d="M80.7,352.1c-12,0.7-23.1-6.6-30.4-15.7c-7.2-9.1-12.9-28-11.3-29.2s21,10.7,28.2,19.3
		C76.7,337.8,80.7,352.1,80.7,352.1z"/>
	<path class="st16" d="M80.7,352.1c-12,0.7-23.1-6.6-30.4-15.7c-7.2-9.1-12.9-28-11.3-29.2s21,10.7,28.2,19.3
		C76.7,337.8,80.7,352.1,80.7,352.1z"/>
	<path class="st2" d="M54.5,322.1c0.7-1.1,0.3-2.5,0.1-3.7c-0.1-0.8,0-1.6,0.5-2.3l-1.4-1c-0.5,1-0.7,2.1-0.5,3.2
		c0.2,1.4,0.5,3.1-1.3,3.4c-2,0.3-4.8-1.5-6.4,0.5c-0.8,1-0.5,2.2-0.5,3.3c0,0.5-0.2,1-0.4,1.5c0.2,0.5,0.4,0.9,0.7,1.3
		c0.5-0.6,0.8-1.3,0.9-2c0.2-1.4-0.4-3.2,1.5-3.5c1.3-0.2,2.6,0.4,3.8,0.5c0.6,0.1,1.1,0,1.7-0.2C53.7,323,54.2,322.6,54.5,322.1z
		 M47.9,312.2c0.1-0.2,0.3-0.4,0.5-0.6c-0.4-0.2-0.7-0.5-1.1-0.7c-0.9,1.2-0.9,2.7-1.8,3.9c-0.3,0.3-0.6,0.6-1,0.7
		c-0.4,0.1-0.8,0.1-1.2,0c-0.8-0.3-1.7-0.2-2.5,0.1c-0.2,0.1-0.3,0.2-0.5,0.3c0.1,0.3,0.2,0.6,0.3,0.9c0.4-0.2,0.8-0.3,1.2-0.3
		c0.9,0,1.8,0.4,2.7,0.4c0.3,0,0.6-0.1,0.9-0.2c0.3-0.1,0.5-0.3,0.7-0.6C47.1,314.8,47.1,313.3,47.9,312.2L47.9,312.2z M61.2,328.2
		c0.9-0.8,1.5-1.9,1.8-3.1c0.1-0.8,0.3-1.7,0.3-2.5l-1.1-1c-0.2,1.4-0.1,2.8-0.8,4.1c-0.8,1.5-2.1,2-3.7,2c-1.2,0-2.4,0.1-3.2,1
		c-0.7,0.9-1.1,2-1.2,3.2c-0.2,1.7-0.5,3.2-2,4.2c-0.3,0.2-0.5,0.3-0.8,0.4c0.3,0.4,0.6,0.7,0.9,1c0.7-0.3,1.2-0.7,1.7-1.3
		c2-2.4,0.4-7.1,4.6-7.1C58.8,329.1,60.1,329,61.2,328.2L61.2,328.2z M67.6,329.4c0.2-0.5,0.5-0.9,0.9-1.3c-0.3-0.4-0.7-0.9-1-1.3
		c-1,1.1-1.6,2.4-1.9,3.8c-0.4,1.5-0.6,3.2-1.6,4.4c-1,1.3-2.7,1.2-4.1,2c-1.2,0.7-2.1,1.7-2.6,3c-0.3,1-0.5,2-0.6,3
		c0.4,0.4,0.9,0.7,1.3,1c0-0.1,0-0.1,0-0.2c0.3-1.7,0.5-3.4,1.8-4.7c1.3-1.2,3-1,4.4-2C66.7,335.4,66.3,331.9,67.6,329.4L67.6,329.4
		z M72.8,334.4c-0.3,0.3-0.7,0.6-1,0.9c-2,2.2-1.8,5.2-2.5,7.9c-0.1,0.7-0.4,1.4-0.9,2s-1,1.1-1.7,1.4c-1.1,0.5-2.4,0-3.4,0.9
		l-0.1,0.1c0.6,0.3,1.2,0.7,1.8,1c0.3-0.1,0.7-0.1,1-0.1c0.6,0,1.3-0.2,1.9-0.5c1-0.6,1.8-1.4,2.3-2.5c1.2-2.6,0.7-5.7,2.2-8.1
		c0.4-0.6,0.8-1.1,1.3-1.5C73.4,335.3,73.1,334.8,72.8,334.4L72.8,334.4z"/>
	<path class="st16" d="M53.7,315c1.1,9.9,6.4,36.6,26.9,37c0,0-4-14.3-13.5-25.6C64.1,322.9,58.9,318.6,53.7,315z"/>
	<path class="st2" d="M80.7,352.1c-9.4-1.4-17.5-7.3-21.6-25.1c-4.2-17.7-4.8-25.7-1.9-27.5c3.3-2,16.1,15.8,20.3,23.7
		C87.7,343,80.7,352.1,80.7,352.1z"/>
	<path class="st17" d="M63.2,319.3c2.4,0.7,5.4,1.5,7.2-0.8c0.9-1.1,1.1-2.7,1.7-3.9l-1.2-1.8c-1,1.7-1,4.1-2.8,5.1
		c-1.4,0.7-3,0.2-4.4-0.2c-1.4-0.5-2.8-0.7-4.3-0.7c-0.8,0.1-1.6,0.4-2.2,0.8c0.1,0.5,0.2,1.1,0.3,1.6c0.3-0.2,0.6-0.3,0.9-0.4
		C59.9,318.6,61.6,318.7,63.2,319.3z M60.4,310.1c0.7,0.4,1.4,0.5,2.2,0.4c1.4-0.3,2.2-1.7,2.9-2.8c0.2-0.3,0.5-0.6,0.7-0.9
		l-0.9-1.1l-0.2,0.2c-0.9,1.1-1.6,3.3-3.3,3.3c-0.8-0.1-1.6-0.4-2.4-0.7c-0.7-0.1-1.4-0.2-2,0c-0.7,0.1-1.3,0.4-1.9,0.7
		c0.1,0.4,0.1,0.8,0.2,1.3c0.8-0.5,1.6-0.8,2.5-0.8C59,309.7,59.8,309.9,60.4,310.1z M70.7,329.8c0.9-1.3,1.6-2.8,2.9-3.8
		c1.6-1.1,3.1-1,4.8-0.9c-0.3-0.7-0.6-1.3-1-2c-1.1-0.2-2.2-0.1-3.2,0.2c-1.4,0.5-2.7,1.4-3.5,2.7c-0.8,1.1-1.4,2.5-2.4,3.5
		c-1.9,1.8-4.5,0.2-6.6-0.2c-0.6-0.1-1.2-0.2-1.9-0.2c0.2,0.6,0.3,1.2,0.5,1.8c0.8,0,1.7,0.1,2.5,0.4
		C65.8,332.4,68.5,333,70.7,329.8z M81.6,333.3c-0.2,0-0.3,0.1-0.5,0.1c-1.3,0.5-2.4,1.3-3.2,2.4c-0.9,1.2-1.4,2.6-2.2,3.8
		c-0.4,0.6-1,1.1-1.6,1.3c-0.7,0.2-1.5,0.2-2.1-0.1c-1.3-0.6-2.8-0.7-4.1-0.3c-1,0.3-1.9,0.9-2.7,1.6c0.3,0.5,0.7,0.9,1,1.4
		c0.6-0.5,1.3-0.9,2-1.2c1.1-0.3,2.2-0.1,3.2,0.4c1.2,0.6,2.5,0.7,3.7,0.3s2.3-1.2,2.9-2.3c0.8-1.2,1.3-2.6,2.2-3.7
		c0.5-0.6,1.2-1.1,1.9-1.5C82,334.8,81.8,334.1,81.6,333.3L81.6,333.3z"/>
	<path class="st18" d="M77.3,323.2c-0.8-1.4-1.8-3.2-3-5.1c-4.1,12.6-5.4,31,6.3,33.9C80.7,352.1,87.7,343,77.3,323.2z"/>
	<path class="st2" d="M85.5,352.1c12,0.7,23.1-6.6,30.4-15.7c7.2-9.1,12.9-28,11.3-29.2s-21,10.7-28.2,19.3
		C89.5,337.8,85.5,352.1,85.5,352.1z"/>
	<path class="st16" d="M85.5,352.1c12,0.7,23.1-6.6,30.4-15.7c7.2-9.1,12.9-28,11.3-29.2s-21,10.7-28.2,19.3
		C89.5,337.8,85.5,352.1,85.5,352.1z"/>
	<path class="st2" d="M114.6,323.3c1.3-0.1,2.5-0.7,3.8-0.5c1.9,0.3,1.3,2.1,1.5,3.5c0.1,0.7,0.4,1.5,0.9,2c0.2-0.4,0.4-0.9,0.7-1.3
		c-0.2-0.4-0.4-0.9-0.4-1.5c0-1.1,0.3-2.4-0.5-3.3c-1.6-2-4.4-0.2-6.4-0.5c-1.9-0.2-1.5-2-1.3-3.4c0.2-1.1,0.1-2.3-0.5-3.2l-1.4,1
		c0.4,0.7,0.6,1.5,0.5,2.3c-0.1,1.2-0.5,2.6,0.1,3.7c0.3,0.5,0.8,0.8,1.3,1C113.5,323.3,114.1,323.4,114.6,323.3z M120.1,315.9
		c0.2,0.2,0.4,0.4,0.7,0.6c0.3,0.1,0.6,0.2,0.9,0.2c0.9,0.1,1.8-0.4,2.7-0.4c0.4,0,0.9,0.1,1.2,0.3c0.1-0.3,0.2-0.6,0.3-0.9
		c-0.2-0.1-0.3-0.2-0.5-0.3c-0.8-0.3-1.7-0.3-2.5-0.1c-0.4,0.1-0.8,0.2-1.2,0c-0.4-0.1-0.8-0.4-1-0.7c-0.9-1.2-0.9-2.7-1.8-3.9
		c-0.4,0.2-0.7,0.4-1.1,0.7c0.2,0.2,0.4,0.3,0.5,0.6C119.1,313.3,119.1,314.8,120.1,315.9z M108.7,329.1c4.3,0,2.7,4.7,4.6,7.1
		c0.5,0.5,1.1,1,1.7,1.3c0.3-0.3,0.6-0.7,0.9-1c-0.3-0.1-0.6-0.2-0.8-0.4c-1.5-0.9-1.8-2.5-2-4.2c-0.1-1.2-0.5-2.3-1.2-3.2
		c-0.8-0.9-2-1-3.2-1c-1.6,0-2.9-0.4-3.7-2c-0.7-1.3-0.6-2.7-0.8-4.1l-1.1,1c0.1,0.9,0.1,1.7,0.3,2.5c0.3,1.2,0.9,2.3,1.8,3.1
		C106.1,329,107.3,329.1,108.7,329.1z M102.1,337.2c1.3,0.9,3.1,0.8,4.4,2s1.5,3,1.8,4.7c0,0.1,0,0.1,0,0.2c0.4-0.3,0.9-0.7,1.3-1
		c-0.1-1-0.3-2-0.6-3c-0.5-1.3-1.4-2.3-2.5-3c-1.4-0.8-3-0.6-4.1-2s-1.2-2.9-1.6-4.4c-0.3-1.4-1-2.7-1.9-3.8c-0.4,0.4-0.7,0.9-1,1.3
		c0.4,0.4,0.6,0.8,0.9,1.3C99.9,331.9,99.5,335.4,102.1,337.2L102.1,337.2z M92.5,335.9c0.5,0.4,0.9,0.9,1.3,1.5
		c1.6,2.4,1,5.6,2.2,8.1c0.5,1.1,1.3,1.9,2.3,2.5c0.6,0.3,1.2,0.4,1.9,0.5c0.3,0,0.7,0,1,0.1c0.6-0.3,1.2-0.6,1.8-1l-0.1-0.1
		c-1-0.9-2.3-0.4-3.4-0.9c-0.6-0.3-1.2-0.8-1.7-1.4c-0.4-0.6-0.8-1.3-0.9-2c-0.8-2.7-0.5-5.7-2.5-7.9c-0.3-0.3-0.6-0.6-1-0.9
		C93.1,334.8,92.8,335.3,92.5,335.9z"/>
	<path class="st16" d="M112.5,315c-1.1,9.9-6.4,36.6-27,37c0,0,4-14.3,13.5-25.6C102.1,322.9,107.3,318.6,112.5,315z"/>
	<path class="st2" d="M85.5,352.1c9.4-1.4,17.5-7.3,21.6-25.1s4.8-25.7,1.9-27.5c-3.3-2-16.1,15.8-20.3,23.7
		C78.4,343,85.5,352.1,85.5,352.1z"/>
	<path class="st17" d="M107.9,319.1c0.3,0.1,0.6,0.3,0.9,0.4c0.1-0.5,0.2-1.1,0.3-1.6c-0.7-0.4-1.5-0.7-2.2-0.8
		c-1.5-0.1-3,0.1-4.3,0.7c-1.4,0.4-3,0.9-4.4,0.2c-1.8-1-1.8-3.4-2.8-5.1l-1.3,1.8c0.6,1.2,0.8,2.7,1.7,3.9c1.8,2.3,4.8,1.5,7.2,0.8
		C104.5,318.6,106.3,318.6,107.9,319.1z M107.9,309.7c0.9,0,1.8,0.3,2.5,0.8c0.1-0.4,0.1-0.9,0.2-1.3c-0.6-0.4-1.2-0.6-1.9-0.7
		c-0.7-0.1-1.4-0.1-2,0c-0.8,0.3-1.5,0.5-2.4,0.7c-1.7,0-2.4-2.2-3.3-3.3l-0.2-0.2l-0.9,1.1c0.3,0.3,0.5,0.6,0.7,0.9
		c0.7,1.1,1.5,2.5,2.9,2.8c0.8,0.1,1.5-0.1,2.2-0.4C106.4,309.8,107.2,309.7,107.9,309.7L107.9,309.7z M103.6,331.4
		c0.8-0.3,1.6-0.4,2.5-0.4c0.2-0.6,0.4-1.2,0.5-1.8c-0.6,0-1.3,0-1.9,0.2c-2.1,0.4-4.7,2-6.7,0.2c-1-0.9-1.6-2.3-2.4-3.5
		c-0.9-1.2-2.1-2.2-3.6-2.7c-1-0.3-2.2-0.4-3.2-0.2c-0.4,0.7-0.7,1.3-1,2c1.7-0.2,3.2-0.3,4.8,0.9c1.3,0.9,2,2.4,2.9,3.8
		C97.6,333,100.4,332.4,103.6,331.4z M84,335.6c0.8,0.3,1.4,0.9,1.9,1.5c0.9,1.1,1.4,2.5,2.2,3.7c0.6,1.1,1.7,2,2.9,2.3
		c1.2,0.4,2.6,0.3,3.7-0.3c1-0.5,2.1-0.7,3.2-0.4c0.8,0.2,1.4,0.6,2,1.2c0.3-0.4,0.7-0.9,1-1.4c-0.8-0.7-1.7-1.3-2.7-1.6
		c-1.4-0.4-2.8-0.3-4.1,0.3c-0.7,0.3-1.4,0.3-2.1,0.1s-1.3-0.7-1.6-1.3c-0.9-1.2-1.3-2.7-2.2-3.8c-0.8-1.1-1.9-1.9-3.2-2.4
		c-0.1-0.1-0.3-0.1-0.5-0.1C84.4,334.1,84.2,334.8,84,335.6z"/>
	<path class="st18" d="M88.8,323.2c0.8-1.4,1.8-3.2,3-5.1c4.1,12.6,5.4,31-6.3,33.9C85.5,352.1,78.4,343,88.8,323.2z"/>
	<path class="st2" d="M83.1,354.1c8,0,10.6-10.8,9.8-19.5c-0.8-8.7-6.3-25.2-9.8-25.2s-9,16.5-9.8,25.2
		C72.6,343.3,75.2,354.1,83.1,354.1z"/>
	<path class="st19" d="M83.1,354.1c8,0,10.6-10.8,9.8-19.5c-0.8-8.7-6.3-25.2-9.8-25.2s-9,16.5-9.8,25.2
		C72.6,343.3,75.2,354.1,83.1,354.1z"/>
	<path class="st17" d="M83,320.6c1.3-0.2,2.1-1.3,3-2.1c0.7-0.6,1.5-1.1,2.4-1.3c-0.2-0.5-0.4-1-0.6-1.5c-1.3,0.4-2.4,1.1-3.4,2.1
		c-0.4,0.5-1,1-1.7,1.2c-1,0.3-1.5-0.2-2.2-0.8c-0.7-0.8-1.6-1.3-2.6-1.6h-0.1c-0.2,0.4-0.3,0.8-0.5,1.3c1.1,0.2,2,0.8,2.8,1.6
		c0.3,0.4,0.8,0.7,1.2,0.9C82,320.6,82.5,320.7,83,320.6z M77.1,330.1c2.7,2.1,4.8-0.9,6.5-2.6c1.4-1.5,2.9-1.8,4.5-0.4
		c0.9,0.9,1.9,1.6,3,2.2c0.3,0.1,0.6,0.2,0.9,0.2c-0.1-0.5-0.2-1-0.3-1.5c-1.2-0.3-2.2-1.3-3.2-2.1c-2.4-1.9-4.5-1.1-6.4,1
		c-1.1,1.2-2.8,3.4-4.6,2c-1-0.8-1.5-2.1-2.7-2.9l0,0c-0.1,0.4-0.2,0.9-0.3,1.3C75.6,328,76.1,329.4,77.1,330.1z M80.1,339.6
		c1.5,2,3.4,2.5,5.4,0.8c1-0.8,1.6-2,2.7-2.7c1.5-1,3.2-0.5,4.8,0.1c0-0.5,0-0.9,0-1.4c-0.7-0.3-1.4-0.5-2.2-0.7
		c-0.6-0.1-1.2-0.1-1.8,0c-0.6,0.1-1.1,0.4-1.6,0.7c-1.1,0.8-1.8,2-2.9,2.9c-0.6,0.5-1.5,1-2.3,0.7s-1.4-1.5-2.1-2.1
		c-0.8-0.9-1.9-1.5-3.1-1.8c-1.3-0.3-2.6-0.2-3.8,0.4c0,0.5,0,0.9,0,1.4c1.2-0.5,2.5-0.6,3.8-0.3S79.3,338.6,80.1,339.6z
		 M87.6,347.7c-1.2,1-2.8,1.5-4.4,1.3c-0.8,0-1.6-0.4-2.3-1c-0.4-0.5-0.8-1-1.2-1.5c-0.8-0.8-1.9-1.3-3-1.4c-0.8-0.1-1.7,0-2.5,0.2
		c0.1,0.5,0.3,1,0.5,1.4c0.6-0.3,1.4-0.3,2-0.2c0.7,0.1,1.4,0.4,1.9,0.8c1,0.7,1.4,1.9,2.4,2.5c0.9,0.6,2,0.8,3.1,0.8
		c1.2,0,2.3-0.3,3.3-0.8c1.1-0.6,2-1.6,3.1-2.3c0.3-0.2,0.6-0.3,0.9-0.4c0.2-0.6,0.4-1.2,0.6-1.8c-0.4,0-0.7,0.1-1.1,0.2
		C89.7,346.2,88.6,346.9,87.6,347.7z"/>
	<path class="st8" d="M293.7,57.3l3.7-4.1c0.1-0.1,0.1-0.1,0.2-0.2l7.8-5.5c0.4-0.3,0.9-0.4,1.3-0.3c0.5,0.1,0.9,0.3,1.2,0.6
		l39.4,43.9l9.9,11c0.3,0.3,0.5,0.7,0.5,1.1s-0.2,0.8-0.5,1.1c0,0-3.1,3.5-3.7,4.1l-0.1,0.1l-7.1,6.3c-0.3,0.3-0.8,0.5-1.2,0.4
		c-0.5,0-0.9-0.2-1.2-0.6l-50.2-56c-0.3-0.3-0.4-0.6-0.4-1C293.3,57.9,293.4,57.5,293.7,57.3z"/>
	<path class="st9" d="M293.7,57.3l3.7-4.1c0.1-0.1,0.1-0.1,0.2-0.2l7.8-5.5c0.2-0.2,0.5-0.3,0.8-0.3s0.6,0,0.8,0.1L294,60l-0.5-0.5
		c-0.3-0.3-0.4-0.7-0.4-1C293.3,57.9,293.4,57.5,293.7,57.3z"/>
	<path class="st10" d="M293.9,57.1l7.8-5.5c0.4-0.3,0.9-0.4,1.3-0.3c0.5,0.1,0.9,0.3,1.2,0.6l39.4,43.9l9.9,11
		c0.2,0.2,0.3,0.3,0.4,0.6s0.1,0.4,0.1,0.6s-0.1,0.4-0.1,0.6c-0.1,0.2-0.2,0.4-0.4,0.5l-7.1,6.3c-0.3,0.3-0.8,0.5-1.2,0.4
		c-0.5,0-0.9-0.2-1.2-0.6l-50.2-56c-0.1-0.2-0.3-0.3-0.3-0.5c-0.1-0.2-0.1-0.4-0.1-0.6s0.1-0.4,0.2-0.6
		C293.6,57.4,293.8,57.2,293.9,57.1z"/>
	<path class="st8" d="M359.3,63.5L338.7,82l-7.8-0.4l-9.6,8.6l3.7,4.1l-9.6,8.7l-11,9.9c-0.3,0.3-0.7,0.5-1.1,0.5s-0.8-0.2-1.1-0.5
		c0,0-3.5-3.1-4.1-3.7c0,0,0-0.1-0.1-0.1l-6.3-7.1c-0.3-0.3-0.4-0.8-0.4-1.2c0-0.5,0.2-0.9,0.6-1.2c8.6-7.7,47.4-42.6,56-50.2
		c0.3-0.3,0.6-0.4,1-0.4s0.8,0.2,1,0.4l4.1,3.7c0.1,0.1,0.1,0.1,0.2,0.2l5.5,7.8c0.2,0.4,0.4,0.8,0.3,1.3
		C359.9,62.8,359.7,63.2,359.3,63.5z"/>
	<path class="st9" d="M349.8,49.3l4.1,3.7c0.1,0.1,0.1,0.1,0.2,0.2l5.5,7.8c0.2,0.2,0.3,0.5,0.3,0.8s0,0.6-0.1,0.8l-12.7-13l0.5-0.5
		c0.3-0.3,0.6-0.4,1-0.4C349.2,48.8,349.5,49,349.8,49.3z"/>
	<path class="st10" d="M350,49.5l5.5,7.8c0.3,0.4,0.4,0.9,0.3,1.3c-0.1,0.5-0.3,0.9-0.6,1.2l-43.9,39.4l-11,9.9
		c-0.1,0.2-0.3,0.3-0.6,0.4c-0.2,0.1-0.4,0.1-0.6,0.1s-0.4-0.1-0.6-0.2s-0.4-0.2-0.5-0.4l-6.3-7.1c-0.3-0.3-0.4-0.8-0.4-1.2
		c0-0.5,0.2-0.9,0.6-1.2l56-50.2c0.1-0.1,0.3-0.3,0.5-0.3c0.2-0.1,0.4-0.1,0.6-0.1s0.4,0.1,0.6,0.2C349.7,49.2,349.9,49.3,350,49.5z
		"/>
	<path class="st8" d="M144.8,59.2l-4-3.8c-0.1-0.1-0.1-0.1-0.2-0.2l-8.2-4.9c-0.4-0.2-0.9-0.3-1.3-0.2c-0.5,0.1-0.9,0.3-1.2,0.7
		l-32,41.5L85,82.5c-0.4-0.3-0.8-0.4-1.3-0.4c-0.5,0.1-0.9,0.3-1.2,0.6l-8.6,9.9c-0.3,0.3-0.4,0.7-0.4,1.2c0,0.4,0.2,0.8,0.5,1.1
		c0,0,3.4,3.3,4,3.8l0.1,0.1l22.4,17.2c0.4,0.3,0.8,0.4,1.3,0.3c0.4-0.1,0.9-0.3,1.1-0.7l42-54.4c0.2-0.3,0.4-0.7,0.3-1.1
		S145.1,59.5,144.8,59.2z"/>
	<path class="st9" d="M144.8,59.2l-4-3.8c-0.1-0.1-0.1-0.1-0.2-0.2l-8.2-4.9c-0.2-0.1-0.5-0.2-0.8-0.3c-0.3,0-0.6,0-0.8,0.1
		l13.9,11.7l0.4-0.5c0.2-0.3,0.4-0.7,0.3-1.1C145.3,59.8,145.1,59.5,144.8,59.2z"/>
	<path class="st10" d="M144.6,59.1l-8.2-4.9c-0.4-0.2-0.9-0.3-1.3-0.2s-0.9,0.3-1.2,0.7l-32.1,41.5l-12.9-9.8
		c-0.4-0.3-0.8-0.4-1.3-0.4c-0.5,0.1-0.9,0.3-1.2,0.6l-8.5,9.9c-0.1,0.2-0.2,0.4-0.3,0.6c-0.1,0.2-0.1,0.4,0,0.7
		c0,0.2,0.1,0.4,0.2,0.6s0.3,0.4,0.4,0.5l22.4,17.2c0.4,0.3,0.8,0.4,1.3,0.3c0.4-0.1,0.9-0.3,1.1-0.7l42-54.4
		c0.1-0.2,0.2-0.4,0.3-0.6c0-0.2,0.1-0.4,0-0.6c0-0.2-0.1-0.4-0.2-0.6C144.9,59.3,144.8,59.2,144.6,59.1z"/>
	<path class="st9" d="M97.8,92.3l4,3.8l-12.9-9.8c-0.4-0.3-0.8-0.4-1.3-0.3l-4-3.8c0.4-0.1,0.9,0.1,1.3,0.3L97.8,92.3z"/>
	<path class="st2" d="M345.5,155.8c5.5-3.1,13-2.7,21.3,2.2c16.7,9.6,30.2,33.1,30.2,52.3c0,9.6-3.4,16.4-8.9,19.6l-10.3,5.9
		c-5.5,3.1-13,2.7-21.3-2.1c-16.7-9.6-30.2-33.1-30.2-52.3c0-9.6,3.4-16.4,8.8-19.5C337.3,160.5,343.2,157.1,345.5,155.8z"/>
	<path class="st18" d="M395.9,200.3c0.7,3.3,1.1,6.6,1.1,10c0,9.6-3.4,16.4-8.9,19.6l-10.3,5.9c-5.5,3.1-13,2.7-21.3-2.1
		c-2.9-1.7-5.6-3.7-8.1-6L395.9,200.3z"/>
	<path class="st2" d="M335.1,211.1c-5.5-9.5-8.9-20.1-8.9-29.8c0-19.3,13.5-27.1,30.2-17.4s30.2,33.1,30.2,52.3
		s-13.5,27.1-30.2,17.5c-4.4-2.6-8.4-5.8-11.8-9.6l-12.3,2.2c-0.4,0.1-0.7,0-1.1-0.1s-0.6-0.3-0.9-0.6c-0.2-0.3-0.4-0.6-0.4-1
		c-0.1-0.4,0-0.7,0.1-1.1L335.1,211.1z"/>
	<path class="st20" d="M335.1,211.1c-5.5-9.5-8.9-20.1-8.9-29.8c0-19.3,13.5-27.1,30.2-17.4s30.2,33.1,30.2,52.3
		s-13.5,27.1-30.2,17.5c-4.4-2.6-8.4-5.8-11.8-9.6l-12.3,2.2c-0.4,0.1-0.7,0-1.1-0.1s-0.6-0.3-0.9-0.6c-0.2-0.3-0.4-0.6-0.4-1
		c-0.1-0.4,0-0.7,0.1-1.1L335.1,211.1z"/>
	<path class="st0" d="M351.5,209.4c-0.3-0.2-0.5-0.4-0.7-0.7c-0.1-0.2-0.2-0.5-0.3-0.7l-5.5-15.7v12.4c0,0.1,0,0.2,0,0.3
		s-0.1,0.2-0.2,0.3s-0.1,0.1-0.2,0.1s-0.2,0-0.2-0.1l-3.1-1.8c-0.2-0.1-0.4-0.3-0.5-0.6c-0.1-0.2-0.2-0.5-0.2-0.8v-23.6
		c0-0.1,0-0.2,0-0.3s0.1-0.2,0.1-0.3c0.1-0.1,0.1-0.1,0.2-0.1s0.2,0,0.2,0.1l2.5,1.4c0.3,0.2,0.5,0.4,0.6,0.7
		c0.1,0.2,0.2,0.5,0.3,0.7l5.4,15.7V184c0-0.1,0-0.2,0-0.3s0.1-0.2,0.1-0.3c0.1-0.1,0.1-0.1,0.2-0.1s0.2,0,0.2,0.1l3.1,1.8
		c0.2,0.1,0.4,0.3,0.5,0.6c0.1,0.2,0.2,0.5,0.2,0.8v23.7c0,0.1,0,0.2,0,0.3s-0.1,0.2-0.2,0.3s-0.1,0.1-0.2,0.1s-0.2,0-0.2-0.1
		L351.5,209.4z"/>
	<path class="st0" d="M357.4,196.7c0-1.2,0.2-2.4,0.6-3.5c0.3-0.9,0.8-1.7,1.5-2.3c0.6-0.5,1.5-0.8,2.3-0.8c1.1,0.1,2.2,0.4,3.1,1
		c1.2,0.7,2.2,1.5,3.1,2.6s1.7,2.2,2.3,3.4c0.6,1.3,1.1,2.6,1.5,4c0.3,1.4,0.5,2.8,0.6,4.2c0,1.1,0,2.2,0,3.4s0,2.2-0.1,3.2
		c0,1.2-0.2,2.4-0.6,3.5c-0.3,0.9-0.8,1.7-1.4,2.3c-0.6,0.5-1.5,0.8-2.3,0.8c-1.1-0.1-2.2-0.4-3.1-1c-1.2-0.7-2.2-1.5-3.1-2.6
		c-0.9-1-1.7-2.2-2.3-3.5c-0.6-1.3-1.1-2.6-1.4-4s-0.5-2.8-0.6-4.2c0-1-0.1-2.1-0.1-3.2C357.3,198.9,357.3,197.8,357.4,196.7z
		 M367.8,209.1c0-0.4,0-0.9,0-1.4s0-1.1,0-1.6c0-0.6,0-1.1,0-1.6s0-1,0-1.4c0-0.6-0.1-1.2-0.2-1.8s-0.3-1.1-0.6-1.7
		c-0.2-0.5-0.5-1-0.9-1.4s-0.8-0.8-1.3-1.1c-0.4-0.2-0.8-0.4-1.3-0.4c-0.3,0-0.6,0.1-0.9,0.4c-0.3,0.3-0.5,0.6-0.6,1
		c-0.1,0.5-0.2,1-0.2,1.5c0,0.4-0.1,0.9-0.1,1.4s0,1.1,0,1.6c0,0.6,0,1.1,0,1.7c0,0.5,0,1,0.1,1.5c0,1.2,0.3,2.4,0.8,3.5
		c0.5,1,1.2,1.9,2.2,2.5s1.7,0.6,2.2,0.1C367.6,210.9,367.8,210,367.8,209.1z"/>
	<path class="st2" d="M77,165.6c-5.5-3.1-13-2.7-21.3,2.2c-16.7,9.6-30.2,33.1-30.2,52.3c0,9.6,3.4,16.4,8.9,19.6l10.3,5.9
		c5.5,3.1,13,2.7,21.4-2.1c16.7-9.6,30.2-33.1,30.2-52.3c0-9.6-3.4-16.4-8.8-19.5C85.2,170.3,79.3,166.9,77,165.6z"/>
	<path class="st18" d="M26.7,210.1c-0.7,3.3-1.1,6.6-1.1,10c0,9.6,3.4,16.4,8.9,19.6l10.3,5.9c5.5,3.1,13,2.7,21.4-2.1
		c2.9-1.7,5.6-3.7,8.1-6L26.7,210.1z"/>
	<path class="st2" d="M96.3,191.1c0,8.3-2.4,16.8-6,24.3c-0.3,0.6-0.6,1.2-0.9,1.8c-4.1,8.3-9.9,15.8-17,21.8
		c-15.9,14-36.8,11.1-36.6-13c0.1-9.7,3.2-19.4,7.9-28c0.3-0.6,0.7-1.2,1-1.8c2.7-4.7,5.9-9,9.6-13l0,0
		C69.2,166.1,95.9,161.8,96.3,191.1z"/>
	<path class="st2" d="M83.1,174.9l18.4-10.4c0.2-0.1,0.5-0.2,0.8-0.2s0.6,0.2,0.8,0.3c0.2,0.2,0.4,0.5,0.5,0.7
		c0.1,0.3,0,0.6-0.1,0.9l-10.4,26.3L83.1,174.9z"/>
	<path class="st20" d="M101.4,164.5L88.1,172c-9.2-5.8-24.1-0.1-33.9,11.2l0,0c-3.7,4-6.9,8.3-9.6,13c-0.3,0.6-0.7,1.2-1,1.8
		c-4.6,8.5-7.8,18.3-7.9,28c-0.2,24.2,20.7,27.1,36.6,13.1c7.1-6,12.8-13.4,16.9-21.7c0.3-0.6,0.6-1.2,0.9-1.8c3.5-7.5,6-16,6-24.3
		c0-1.8-0.2-3.6-0.4-5.3l7.6-19.5c0.1-0.3,0.2-0.6,0.1-0.9c-0.1-0.3-0.2-0.6-0.4-0.8c-0.2-0.2-0.5-0.3-0.8-0.4
		C102,164.3,101.7,164.4,101.4,164.5z"/>
	<path class="st0" d="M52.8,229.8c0,0.3-0.1,0.6-0.2,0.8s-0.2,0.4-0.4,0.5l-3.1,1.8C49,233,49,233,48.9,233s-0.2,0-0.2-0.1
		c-0.1-0.1-0.1-0.2-0.1-0.3s0-0.2,0-0.3v-7.8l-5.5-12.4c-0.1-0.1-0.1-0.3-0.1-0.4c0-0.2,0-0.5,0.1-0.7s0.2-0.3,0.4-0.5l3.3-1.9
		c0.3-0.2,0.6-0.2,0.7,0c0.1,0.1,0.2,0.2,0.3,0.4l3,7.3l3-10.7c0.1-0.2,0.2-0.5,0.3-0.7c0.1-0.3,0.4-0.6,0.7-0.8l3.3-1.9
		c0.1,0,0.1-0.1,0.2-0.1s0.1,0,0.2,0.1s0.2,0.3,0.1,0.5c0,0.2,0,0.4-0.1,0.5L53,221.9v7.9H52.8z"/>
	<path class="st0" d="M72.3,213.7c0.1-0.1,0.1-0.1,0.2-0.1s0.2,0,0.2,0.1c0.1,0.1,0.1,0.2,0.2,0.3c0,0.1,0,0.2,0,0.3v3.9
		c0,0.3-0.1,0.6-0.2,0.8s-0.2,0.4-0.4,0.6L61,226.1c-0.1,0.1-0.1,0.1-0.2,0.1s-0.2,0-0.2-0.1c-0.1-0.1-0.1-0.2-0.2-0.3
		c0-0.1,0-0.2,0-0.3v-23.7c0-0.3,0.1-0.5,0.2-0.8c0.1-0.2,0.2-0.4,0.5-0.6l11.1-6.4c0.1-0.1,0.2-0.1,0.2-0.1c0.1,0,0.2,0,0.2,0.1
		c0.1,0.1,0.1,0.2,0.2,0.3c0,0.1,0,0.2,0,0.3v3.9c0,0.3-0.1,0.6-0.2,0.8s-0.2,0.4-0.5,0.5l-7.3,4.2v4l6.8-3.9
		c0.1-0.1,0.1-0.1,0.2-0.1s0.2,0,0.2,0.1c0.1,0.1,0.1,0.2,0.2,0.3c0,0.1,0.1,0.2,0,0.3v3.9c0,0.3-0.1,0.6-0.2,0.8s-0.2,0.4-0.4,0.5
		l-6.8,4v4.1L72.3,213.7z"/>
	<path class="st0" d="M81.9,188c0.9-0.5,1.8-0.8,2.8-0.9c0.8-0.1,1.5,0.1,2.2,0.5c0.6,0.4,1.1,0.9,1.5,1.5c0.3,0.7,0.5,1.4,0.5,2.1
		c0,0.2-0.1,0.5-0.1,0.7c-0.1,0.2-0.2,0.3-0.4,0.4l-3.1,1.8c-0.2,0.1-0.4,0.2-0.5,0.2c-0.2,0-0.3-0.1-0.4-0.2c0,0-0.1-0.1-0.2-0.2
		c-0.1-0.1-0.3-0.2-0.4-0.3c-0.2-0.1-0.5-0.1-0.7-0.1c-0.4,0.1-0.7,0.2-1,0.4s-0.6,0.4-0.9,0.6c-0.3,0.2-0.5,0.5-0.7,0.7
		c-0.2,0.3-0.4,0.6-0.5,0.9c-0.1,0.3-0.2,0.7-0.1,1c0,0.3,0,0.6,0.2,0.8c0.1,0.1,0.2,0.2,0.4,0.2c0.1,0,0.3,0.1,0.4,0
		c0.5,0,1-0.1,1.4-0.2c0.6-0.1,1.3-0.3,2.2-0.6c0.7-0.2,1.5-0.3,2.3-0.3c0.6,0,1.2,0.2,1.6,0.6c0.5,0.4,0.8,1,1,1.6
		c0.2,0.9,0.4,1.9,0.3,2.8c0,1.2-0.2,2.5-0.5,3.7c-0.4,1.2-0.9,2.3-1.5,3.4c-0.7,1.1-1.4,2.1-2.3,2.9c-0.9,0.9-1.9,1.6-2.9,2.2
		c-0.9,0.6-1.9,0.9-2.9,1c-0.8,0.1-1.6,0-2.3-0.4c-0.7-0.4-1.2-0.9-1.5-1.6c-0.4-0.7-0.6-1.6-0.6-2.4c0-0.2,0.1-0.5,0.1-0.7
		c0.1-0.2,0.2-0.3,0.4-0.4l3.1-1.8c0.2-0.1,0.3-0.2,0.5-0.2c0.1,0,0.3,0.1,0.4,0.2l0.3,0.3c0.2,0.2,0.4,0.3,0.6,0.4
		c0.2,0.1,0.5,0.1,0.7,0.1c0.4,0,0.8-0.2,1.2-0.4c0.8-0.4,1.5-1,2.1-1.6c0.6-0.5,0.9-1.3,0.9-2c0-0.1,0-0.3-0.1-0.4
		c0-0.1-0.1-0.2-0.2-0.3c-0.3-0.1-0.6-0.2-0.9-0.1c-0.5,0.1-1.1,0.2-1.6,0.3c-0.7,0.2-1.4,0.4-2.3,0.6c-1.6,0.4-2.8,0.2-3.6-0.6
		c-0.7-0.8-1.1-2.3-1.3-4.4c0-1.1,0.2-2.2,0.5-3.3c0.3-1.2,0.7-2.3,1.3-3.3c0.6-1.1,1.3-2.1,2.1-3C79.9,189.4,80.8,188.6,81.9,188z"
		/>
</g>
</svg>
