<?xml version="1.0" encoding="UTF-8" standalone="no"?>
<!-- Created with Inkscape (http://www.inkscape.org/) -->

<svg
   version="1.1"
   id="svg2"
   width="1600"
   height="1600"
   viewBox="0 0 1600 1600"
   sodipodi:docname="vector60-3795-01.eps"
   xmlns:inkscape="http://www.inkscape.org/namespaces/inkscape"
   xmlns:sodipodi="http://sodipodi.sourceforge.net/DTD/sodipodi-0.dtd"
   xmlns="http://www.w3.org/2000/svg"
   xmlns:svg="http://www.w3.org/2000/svg">
  <defs
     id="defs6" />
  <sodipodi:namedview
     id="namedview4"
     pagecolor="#ffffff"
     bordercolor="#000000"
     borderopacity="0.25"
     inkscape:showpageshadow="2"
     inkscape:pageopacity="0.0"
     inkscape:pagecheckerboard="0"
     inkscape:deskcolor="#d1d1d1" />
  <g
     id="g8"
     inkscape:groupmode="layer"
     inkscape:label="ink_ext_XXXXXX"
     transform="matrix(1.3333333,0,0,-1.3333333,0,1600)">
    <g
       id="g10"
       transform="scale(0.1)">
      <path
         d="M 2586.14,6659.79 H 9349.12 V 3172.01 c 0,-349.87 -314.08,-636.13 -697.96,-636.13 H 3284.1 c -383.88,0 -697.96,286.26 -697.96,636.13 z M 1814.92,2535.88 c 0,-487.24 387.09,-885.88 860.2,-885.88 h 6614.67 c 473.12,0 860.21,398.64 860.21,885.88 V 7392.92 H 1814.92 V 2535.88"
         style="fill:blue;fill-opacity:1;fill-rule:nonzero;stroke:none"
         id="path12" />
      <path
         d="m 8474.08,7942.78 c -286.68,0 -519.08,246.18 -519.08,549.86 0,179.71 81.77,338.8 207.63,439.13 v -347.49 c 0,-168.01 133.48,-305.48 296.63,-305.48 163.13,0 296.62,137.47 296.62,305.48 v 369.73 c 142.68,-97.98 237.29,-267.83 237.29,-461.37 0,-303.68 -232.4,-549.86 -519.09,-549.86 z m -1690.74,0 c -286.69,0 -519.09,246.18 -519.09,549.86 0,179.71 81.77,338.8 207.63,439.13 v -347.49 c 0,-168.01 133.48,-305.48 296.63,-305.48 163.14,0 296.62,137.47 296.62,305.48 v 369.73 c 142.68,-97.98 237.3,-267.83 237.3,-461.37 0,-303.68 -232.4,-549.86 -519.09,-549.86 z m -1572.1,0 c -286.68,0 -519.09,246.18 -519.09,549.86 0,179.71 81.77,338.8 207.64,439.13 v -347.49 c 0,-168.01 133.48,-305.48 296.62,-305.48 163.14,0 296.62,137.47 296.62,305.48 v 369.73 c 142.69,-97.98 237.3,-267.83 237.3,-461.37 0,-303.68 -232.4,-549.86 -519.08,-549.86 z m -1572.09,0 c -286.69,0 -519.1,246.18 -519.1,549.86 0,165.19 69.11,312.98 177.98,413.77 v -352.68 c 0,-168.01 133.48,-305.47 296.62,-305.47 163.14,0 296.62,137.46 296.62,305.47 v 419.37 c 159.16,-93.92 266.96,-273.77 266.96,-480.46 0,-303.68 -232.4,-549.86 -519.08,-549.86 z m 5650.64,1313.54 h -533.91 v 702.6 c 0,167.98 -133.49,305.48 -296.62,305.48 -163.15,0 -296.63,-137.5 -296.63,-305.48 v -702.6 h -1097.5 v 702.6 c 0,167.98 -133.48,305.48 -296.62,305.48 -163.15,0 -296.63,-137.5 -296.63,-305.48 v -702.6 h -978.85 v 702.6 c 0,167.98 -133.48,305.48 -296.62,305.48 -163.14,0 -296.62,-137.5 -296.62,-305.48 v -702.6 H 3891.27 v 672.05 c 0,168.03 -133.48,305.43 -296.62,305.43 -163.14,0 -296.62,-137.4 -296.62,-305.43 v -672.05 h -622.91 c -473.11,0 -860.2,-398.64 -860.2,-885.88 V 7698.4 H 10150 v 672.04 c 0,487.24 -387.09,885.88 -860.21,885.88"
         style="fill:blue;fill-opacity:1;fill-rule:nonzero;stroke:none"
         id="path14" />
      <path
         d="M 4230.99,6383.77 H 3049.75 v -941.39 h 1181.24 v 941.39"
         style="fill:blue;fill-opacity:1;fill-rule:nonzero;stroke:none"
         id="path16" />
      <path
         d="M 5774.22,6383.77 H 4592.98 v -941.39 h 1181.24 v 941.39"
         style="fill:blue;fill-opacity:1;fill-rule:nonzero;stroke:none"
         id="path18" />
      <path
         d="M 7317.46,6383.77 H 6136.22 v -941.39 h 1181.24 v 941.39"
         style="fill:blue;fill-opacity:1;fill-rule:nonzero;stroke:none"
         id="path20" />
      <path
         d="M 8860.69,6404.7 H 7679.45 v -941.39 h 1181.24 v 941.39"
         style="fill:blue;fill-opacity:1;fill-rule:nonzero;stroke:none"
         id="path22" />
      <path
         d="M 4212.83,5107.68 H 3031.59 v -941.4 h 1181.24 v 941.4"
         style="fill:blue;fill-opacity:1;fill-rule:nonzero;stroke:none"
         id="path24" />
      <path
         d="M 5756.06,5107.68 H 4574.82 v -941.4 h 1181.24 v 941.4"
         style="fill:blue;fill-opacity:1;fill-rule:nonzero;stroke:none"
         id="path26" />
      <path
         d="M 7299.3,5107.68 H 6118.06 v -941.4 H 7299.3 v 941.4"
         style="fill:blue;fill-opacity:1;fill-rule:nonzero;stroke:none"
         id="path28" />
      <path
         d="M 8842.54,5128.59 H 7661.29 v -941.38 h 1181.25 v 941.38"
         style="fill:blue;fill-opacity:1;fill-rule:nonzero;stroke:none"
         id="path30" />
      <path
         d="M 4212.83,3915.24 H 3031.59 v -941.38 h 1181.24 v 941.38"
         style="fill:blue;fill-opacity:1;fill-rule:nonzero;stroke:none"
         id="path32" />
      <path
         d="M 5756.06,3915.24 H 4574.82 v -941.38 h 1181.24 v 941.38"
         style="fill:blue;fill-opacity:1;fill-rule:nonzero;stroke:none"
         id="path34" />
      <path
         d="M 7299.3,3915.24 H 6118.06 V 2973.86 H 7299.3 v 941.38"
         style="fill:blue;fill-opacity:1;fill-rule:nonzero;stroke:none"
         id="path36" />
      <path
         d="M 8842.54,3936.16 H 7661.29 v -941.38 h 1181.25 v 941.38"
         style="fill:blue;fill-opacity:1;fill-rule:nonzero;stroke:none"
         id="path38" />
    </g>
  </g>
</svg>
