<?xml version="1.0" encoding="utf-8"?>
<!-- Generator: Adobe Illustrator 24.3.0, SVG Export Plug-In . SVG Version: 6.00 Build 0)  -->
<svg version="1.1" id="Layer_1" xmlns="http://www.w3.org/2000/svg" xmlns:xlink="http://www.w3.org/1999/xlink" x="0px" y="0px"
	 viewBox="0 0 1440 887.3" style="enable-background:new 0 0 1440 887.3;" xml:space="preserve">
<style type="text/css">
	.st0{fill:#FFFFFF;fill-opacity:8.236300e-02;}
	.st1{fill:none;}
	.st2{fill:url(#SVGID_1_);}
	.st3{fill:url(#SVGID_2_);}
</style>
<circle class="st0" cx="11071.5" cy="-122.2" r="88.5"/>
<rect x="10639" y="-138.7" class="st1" width="1596" height="1024"/>
<path class="st1" d="M30-136.7h1380c16.6,0,30,13.4,30,30v964c0,16.6-13.4,30-30,30H30c-16.6,0-30-13.4-30-30v-964
	C0-123.3,13.4-136.7,30-136.7z"/>
<linearGradient id="SVGID_1_" gradientUnits="userSpaceOnUse" x1="720" y1="154.4798" x2="720" y2="-734.2303" gradientTransform="matrix(1 0 0 -1 0 164.4898)">
	<stop  offset="0" style="stop-color:#3EB8D4"/>
	<stop  offset="1" style="stop-color:#1F3CA6"/>
</linearGradient>
<rect y="0.3" class="st2" width="1440" height="887"/>
<circle class="st0" cx="98.9" cy="269" r="88.5"/>
<circle class="st0" cx="1228" cy="131.3" r="29"/>
<circle class="st0" cx="134.2" cy="135.3" r="29"/>
<circle class="st0" cx="1165" cy="156.3" r="15"/>
<circle class="st0" cx="194.4" cy="104.2" r="15"/>
<circle class="st0" cx="988" cy="160.3" r="12"/>
<ellipse class="st0" cx="370.1" cy="82.5" rx="12" ry="12"/>
<circle class="st0" cx="933" cy="171.3" r="19"/>
<circle class="st0" cx="423.8" cy="66.1" r="19"/>
<linearGradient id="SVGID_2_" gradientUnits="userSpaceOnUse" x1="-179.1257" y1="-297.9619" x2="428.3034" y2="-776.2171" gradientTransform="matrix(1 0 0 -1 0 164.4898)">
	<stop  offset="0" style="stop-color:#FFFFFF"/>
	<stop  offset="1" style="stop-color:#2827AD"/>
</linearGradient>
<path class="st3" d="M337.3,801.6c-29.2-28-100.6-10.5-103.7-9.7c-1,0.3-99,28.4-148.9,0.1c-44-25-28.7-71.7-12.6-121.1
	c15.5-47.5,31.6-96.7,0.1-134.3c-16-19.2-40.3-33.3-72.2-41.9v3.1c27.7,7.7,53,20.3,70,40.7c30.4,36.4,14.6,84.7-0.6,131.5
	c-16.6,50.5-32.2,98.3,13.9,124.5c26.7,15.1,66.4,14.3,95,11c30.9-3.6,55.9-10.8,56.1-10.9c0.7-0.2,72.9-17.9,100.9,9
	c19.5,18.7,17.9,59.3,14.8,83.7h3C356.3,862.4,357.8,821.3,337.3,801.6z"/>
</svg>
