<?xml version="1.0" encoding="utf-8"?>
<!-- Generator: Adobe Illustrator 24.3.0, SVG Export Plug-In . SVG Version: 6.00 Build 0)  -->
<svg version="1.1" id="Layer_1" xmlns="http://www.w3.org/2000/svg" xmlns:xlink="http://www.w3.org/1999/xlink" x="0px" y="0px"
	 viewBox="0 0 321.3 108.7" style="enable-background:new 0 0 321.3 108.7;" xml:space="preserve">
<style type="text/css">
	.st0{display:none;}
	.st1{display:inline;fill:none;stroke:#2827AD;stroke-width:1.4944;stroke-linecap:round;stroke-linejoin:round;}
	.st2{display:inline;fill:#4064D7;}
	.st3{display:inline;}
	.st4{clip-path:url(#SVGID_2_);}
	.st5{fill:#FFFFFF;}
	.st6{fill:#4064D7;}
</style>
<g class="st0">
	<path class="st1" d="M792.9,35.3l-63.5,67.6c-8.2-9.2-13.3-20.5-13.3-33.8c0-26.6,20.5-48.1,45.1-48.1
		C773.5,21,784.7,26.1,792.9,35.3z"/>
	<path class="st1" d="M834.9-14.9c-22.5-17.4-47.1-27.6-73.7-27.6c-45.1,0-86,27.6-115.7,76.8c-11.3,19.5-11.3,51.2,0,69.6
		c10.2,16.4,21.5,30.7,34.8,43"/>
	<path class="st1" d="M716.1,170.5c14.3,6.1,29.7,10.2,45.1,10.2c45.1,0,86-27.6,115.7-76.8c11.3-19.5,11.3-51.2,0-69.6
		c-4.1-7.2-8.2-13.3-13.3-19.5"/>
	<path class="st1" d="M805.2,78.3c-3.1,19.5-17.4,34.8-35.8,37.9"/>
	<path class="st1" d="M729.4,102.9l-94.2,100.4"/>
	<path class="st1" d="M888.2-65.1L794,35.3"/>
</g>
<g class="st0">
	<path class="st2" d="M93.2,432h297.6c6.5,0,11.9,5.3,11.9,11.9v85c0,6.5-5.3,11.9-11.9,11.9H93.2c-6.5,0-11.9-5.3-11.9-11.9v-85
		C81.3,437.3,86.6,432,93.2,432z"/>
	<g class="st3">
		<g>
			<defs>
				<rect id="SVGID_1_" x="224" y="468.6" width="35.6" height="35.6"/>
			</defs>
			<clipPath id="SVGID_2_">
				<use xlink:href="#SVGID_1_"  style="overflow:visible;"/>
			</clipPath>
			<g class="st4">
				<path class="st5" d="M232,483c0.8-2.2,2-4,3.8-5.1c1.8-1.4,4-2,6.1-2c2.6,0,4.7,0.8,6.5,2.4l5.1-5.1c-3.2-2.8-7.1-4.3-11.7-4.3
					c-7.1,0-13,4-16,9.9L232,483z"/>
				<path class="st5" d="M248,495.3c-1.6,1-3.8,1.6-5.9,1.6s-4.3-0.6-6.1-2c-1.8-1.2-3.2-3.2-3.8-5.1l-5.9,4.5
					c1.4,3,3.8,5.5,6.5,7.3c2.8,1.8,6.1,2.6,9.5,2.6c4.3,0,8.5-1.6,11.7-4.3L248,495.3L248,495.3z"/>
				<path class="st5" d="M253.5,499.6c3.2-3,5.3-7.5,5.3-13.4c0-1-0.2-2.2-0.4-3.2h-16.6v6.9h9.5c-0.4,2.4-1.8,4.2-3.6,5.3
					L253.5,499.6z"/>
				<path class="st5" d="M232,489.7c-0.4-1-0.6-2.2-0.6-3.4c0-1.2,0.2-2.4,0.6-3.4l-5.9-4.5c-1.2,2.4-1.8,5.1-1.8,7.9
					c0,2.8,0.6,5.5,1.8,7.9L232,489.7z"/>
			</g>
		</g>
	</g>
</g>
<g>
	<path class="st6" d="M11.9,0h297.6c6.5,0,11.9,5.3,11.9,11.9v85c0,6.5-5.3,11.9-11.9,11.9H11.9C5.3,108.7,0,103.4,0,96.9v-85
		C0,5.3,5.3,0,11.9,0z"/>
	<path class="st5" d="M169.4,56.7l1-6.7h-6.5v-4.5c0-1.8,1-3.8,3.8-3.8h3V36c0,0-2.8-0.4-5.3-0.4c-5.3,0-8.9,3.4-8.9,9.1v5.1h-5.9
		v6.7h5.9V73h7.3V56.5h5.7V56.7z"/>
</g>
</svg>
