<?xml version="1.0" encoding="utf-8"?>
<!-- Generator: Adobe Illustrator 24.3.0, SVG Export Plug-In . SVG Version: 6.00 Build 0)  -->
<svg version="1.1" id="Layer_1" xmlns="http://www.w3.org/2000/svg" xmlns:xlink="http://www.w3.org/1999/xlink" x="0px" y="0px"
	 viewBox="0 0 410 339.8" style="enable-background:new 0 0 410 339.8;" xml:space="preserve">
<style type="text/css">
	.st0{display:none;}
	.st1{display:inline;fill:none;stroke:#2827AD;stroke-width:1.4944;stroke-linecap:round;stroke-linejoin:round;}
	.st2{display:inline;fill:#4064D7;}
	.st3{display:inline;}
	.st4{clip-path:url(#SVGID_2_);}
	.st5{fill:#FFFFFF;}
	.st6{display:inline;fill:#FFFFFF;}
	.st7{fill:#2827AD;}
	.st8{display:inline;fill:#2827AD;}
</style>
<g class="st0">
	<path class="st1" d="M822.8,152.2l-63.5,67.6c-8.2-9.2-13.3-20.5-13.3-33.8c0-26.6,20.5-48.1,45.1-48.1
		C803.3,137.9,814.6,143,822.8,152.2z"/>
	<path class="st1" d="M864.8,102c-22.5-17.4-47.1-27.6-73.7-27.6c-45.1,0-86,27.6-115.7,76.8c-11.3,19.5-11.3,51.2,0,69.6
		c10.2,16.4,21.5,30.7,34.8,43"/>
	<path class="st1" d="M746,287.4c14.3,6.1,29.7,10.2,45.1,10.2c45.1,0,86-27.6,115.7-76.8c11.3-19.5,11.3-51.2,0-69.6
		c-4.1-7.2-8.2-13.3-13.3-19.5"/>
	<path class="st1" d="M835.1,195.2c-3.1,19.5-17.4,34.8-35.8,37.9"/>
	<path class="st1" d="M759.3,219.8l-94.2,100.4"/>
	<path class="st1" d="M918,51.8l-94.2,100.4"/>
</g>
<g class="st0">
	<path class="st2" d="M123,548.9h297.6c6.5,0,11.9,5.3,11.9,11.9v85c0,6.5-5.3,11.9-11.9,11.9H123c-6.5,0-11.9-5.3-11.9-11.9v-85
		C111.2,554.2,116.5,548.9,123,548.9z"/>
	<g class="st3">
		<g>
			<defs>
				<rect id="SVGID_1_" x="253.9" y="585.5" width="35.6" height="35.6"/>
			</defs>
			<clipPath id="SVGID_2_">
				<use xlink:href="#SVGID_1_"  style="overflow:visible;"/>
			</clipPath>
			<g class="st4">
				<path class="st5" d="M261.8,599.9c0.8-2.2,2-4,3.8-5.1c1.8-1.4,4-2,6.1-2c2.6,0,4.7,0.8,6.5,2.4l5.1-5.1
					c-3.2-2.8-7.1-4.3-11.7-4.3c-7.1,0-13,4-16,9.9L261.8,599.9z"/>
				<path class="st5" d="M277.8,612.2c-1.6,1-3.8,1.6-5.9,1.6c-2.2,0-4.3-0.6-6.1-2c-1.8-1.2-3.2-3.2-3.8-5.1l-5.9,4.5
					c1.4,3,3.8,5.5,6.5,7.3c2.8,1.8,6.1,2.6,9.5,2.6c4.3,0,8.5-1.6,11.7-4.3L277.8,612.2L277.8,612.2z"/>
				<path class="st5" d="M283.4,616.5c3.2-3,5.3-7.5,5.3-13.4c0-1-0.2-2.2-0.4-3.2h-16.6v6.9h9.5c-0.4,2.4-1.8,4.2-3.6,5.3
					L283.4,616.5z"/>
				<path class="st5" d="M261.8,606.6c-0.4-1-0.6-2.2-0.6-3.4c0-1.2,0.2-2.4,0.6-3.4l-5.9-4.5c-1.2,2.4-1.8,5.1-1.8,7.9
					s0.6,5.5,1.8,7.9L261.8,606.6z"/>
			</g>
		</g>
	</g>
</g>
<g class="st0">
	<path class="st2" d="M464.1,548.9h297.6c6.5,0,11.9,5.3,11.9,11.9v85c0,6.5-5.3,11.9-11.9,11.9H464.1c-6.5,0-11.9-5.3-11.9-11.9
		v-85C452.2,554.2,457.6,548.9,464.1,548.9z"/>
	<path class="st6" d="M621.7,605.6l1-6.7h-6.5v-4.5c0-1.8,1-3.8,3.8-3.8h3v-5.7c0,0-2.8-0.4-5.3-0.4c-5.3,0-8.9,3.4-8.9,9.1v5.1
		h-5.9v6.7h5.9v16.4h7.3v-16.4h5.7V605.6z"/>
</g>
<g>
	<path class="st7" d="M68,0C29.4,0,0,29.4,0,68v6.8l203.9,108.7L407.7,74.8V68c0-38.5-29.4-68-68-68H68z"/>
	<path class="st7" d="M407.7,113.3L212.9,219.7c-4.5,2.3-11.3,2.3-15.9,0L2.3,113.3v158.6c0,38.5,29.4,68,68,68H342
		c38.5,0,68-29.4,68-68V113.3H407.7z"/>
</g>
<g class="st0">
	<path class="st8" d="M178.1,165.6c-36.9,0-43.4,15.2-43.4,43.4v13h89v-13C221.5,180.8,215,165.6,178.1,165.6z"/>
	<path class="st8" d="M178.1,308.9c13,0,21.7-8.7,21.7-21.7c0-10.9-8.7-21.7-21.7-21.7s-21.7,8.7-21.7,21.7
		C156.4,298.1,165.1,308.9,178.1,308.9z"/>
	<path class="st8" d="M178.1,52.6c-108.6,0-195.5,86.9-195.5,195.5s86.9,195.5,195.5,195.5s195.5-86.9,195.5-195.5
		S286.7,52.6,178.1,52.6z M282.4,295.9c0,43.4-13,56.5-56.5,56.5h-97.7c-43.4,0-56.5-13-56.5-56.5v-19.5c0-32.6,8.7-47.8,32.6-54.3
		v-15.2c0-17.4,0-73.8,73.8-73.8s73.8,54.3,73.8,73.8V222c23.9,4.3,32.6,21.7,32.6,54.3v19.5H282.4z"/>
</g>
</svg>
