<?xml version="1.0" encoding="utf-8"?>
<!-- Generator: Adobe Illustrator 24.3.0, SVG Export Plug-In . SVG Version: 6.00 Build 0)  -->
<svg version="1.1" id="Layer_1" xmlns="http://www.w3.org/2000/svg" xmlns:xlink="http://www.w3.org/1999/xlink" x="0px" y="0px"
	 viewBox="0 0 653.5 515.3" style="enable-background:new 0 0 653.5 515.3;" xml:space="preserve">
<style type="text/css">
	.st0{fill:#EBEBEB;}
	.st1{fill:#F0F0F0;}
	.st2{fill:#E0E0E0;}
	.st3{fill:#E6E6E6;}
	.st4{fill:#F5F5F5;}
	.st5{fill:#2827AD;}
	.st6{opacity:0.7;fill:#FFFFFF;enable-background:new    ;}
	.st7{opacity:0.2;enable-background:new    ;}
	.st8{opacity:0.6;fill:#FFFFFF;enable-background:new    ;}
	.st9{opacity:0.4;enable-background:new    ;}
	.st10{fill:#FFFFFF;}
	.st11{fill:#263238;}
	.st12{opacity:0.2;fill:#FFFFFF;enable-background:new    ;}
	.st13{opacity:0.8;fill:#FFFFFF;enable-background:new    ;}
	.st14{opacity:0.2;}
	.st15{opacity:0.1;}
	.st16{opacity:0.3;fill:#FFFFFF;enable-background:new    ;}
	.st17{fill:#EBB376;}
	.st18{opacity:0.4;fill:#FFFFFF;enable-background:new    ;}
	.st19{fill:#DE5753;}
	.st20{fill:#E4897B;}
</style>
<g>
	<path class="st0" d="M653.5,450.6H10v0.3h643.5V450.6z"/>
	<path class="st0" d="M589,472.8h-42.6v0.3H589V472.8z"/>
	<path class="st0" d="M436.2,476.5H425v0.3h11.2V476.5z"/>
	<path class="st0" d="M545.1,460h-24.7v0.3h24.7V460z"/>
	<path class="st0" d="M133,462.3H77.4v0.3H133V462.3z"/>
	<path class="st0" d="M152.7,462.3h-8.1v0.3h8.1V462.3z"/>
	<path class="st0" d="M299.7,468.1H179.1v0.3h120.6V468.1z"/>
	<path class="st0" d="M315,389.3H66.5c-1.9,0-3.8-0.8-5.2-2.3c-1.4-1.5-2.1-3.5-2.1-5.6V7.8c0-2.1,0.8-4,2.2-5.5
		C62.8,0.8,64.6,0,66.6,0h248.5c1.9,0,3.8,0.8,5.2,2.3c1.4,1.5,2.2,3.5,2.2,5.6v373.5c0,2.1-0.8,4.1-2.2,5.6
		C318.8,388.4,316.9,389.3,315,389.3z M66.5,0.3c-1.9,0-3.6,0.8-5,2.2c-1.3,1.4-2.1,3.3-2.1,5.3v373.6c0,2,0.7,3.9,2.1,5.3
		c1.3,1.4,3.1,2.2,5,2.2H315c1.9,0,3.7-0.8,5-2.2s2.1-3.3,2.1-5.3V7.8c0-2-0.8-3.9-2.1-5.3c-1.3-1.4-3.1-2.2-5-2.2H66.5z"/>
	<path class="st0" d="M593.4,389.3H344.9c-2,0-3.8-0.8-5.2-2.3c-1.4-1.5-2.1-3.5-2.2-5.6V7.8c0-2.1,0.8-4.1,2.2-5.5
		c1.4-1.5,3.2-2.3,5.2-2.3h248.5c1.9,0,3.8,0.8,5.2,2.3s2.1,3.4,2.2,5.5v373.6c0,2.1-0.8,4.1-2.1,5.5
		C597.2,388.4,595.3,389.2,593.4,389.3z M344.8,0.3c-1.9,0-3.7,0.8-5,2.2c-1.3,1.4-2.1,3.3-2.1,5.3v373.6c0,2,0.8,3.9,2.1,5.3
		c1.3,1.4,3.1,2.2,5,2.2h248.5c1.9,0,3.7-0.8,5-2.2s2.1-3.3,2.1-5.3V7.8c0-2-0.8-3.9-2.1-5.3s-3.1-2.2-5-2.2H344.8z"/>
	<path class="st1" d="M358.4,449.2h174.1V176.1H358.4L358.4,449.2L358.4,449.2z"/>
	<path class="st2" d="M364.6,235.1h161.8v-50.4H364.6L364.6,235.1L364.6,235.1z"/>
	<path class="st0" d="M517.2,235.1h9.2v-42.3h-9.2V235.1z"/>
	<path class="st0" d="M472.8,235.1h9.2v-42.3h-9.2V235.1z"/>
	<path class="st0" d="M415.6,233.5l9.1,1.7l6.7-41.7l-9-1.7L415.6,233.5z"/>
	<path class="st0" d="M505.8,235.1h9.2v-36.7h-9.2V235.1z"/>
	<path class="st0" d="M484.7,235.1h9.2v-36.7h-9.2V235.1z"/>
	<path class="st0" d="M431.4,235.1h9.2v-36.7h-9.2V235.1z"/>
	<path class="st0" d="M453.3,233l9,2.1l7.4-35.8l-9-2.1L453.3,233z"/>
	<path class="st0" d="M497.9,235.1h4.6v-44.4h-4.6V235.1z"/>
	<path class="st0" d="M443.2,235.1h4.6v-44.4h-4.6V235.1z"/>
	<path class="st2" d="M526.4,243.1H364.6v50.4h161.8V243.1z"/>
	<path class="st0" d="M373.8,251.3h-9.2v42.3h9.2V251.3z"/>
	<path class="st0" d="M418.2,251.3H409v42.3h9.2V251.3z"/>
	<path class="st0" d="M468.7,250.2l-9.1,1.7l6.7,41.7l9.1-1.7L468.7,250.2z"/>
	<path class="st0" d="M385.1,256.9h-9.2v36.7h9.2V256.9z"/>
	<path class="st0" d="M406.3,256.9h-9.2v36.7h9.2V256.9z"/>
	<path class="st0" d="M459.6,256.9h-9.2v36.7h9.2V256.9z"/>
	<path class="st0" d="M430.3,255.6l-9,2.1l7.5,35.8l9-2.1L430.3,255.6z"/>
	<path class="st0" d="M393.1,249.2h-4.6v44.4h4.6V249.2z"/>
	<path class="st0" d="M447.8,249.2h-4.6v44.4h4.6V249.2z"/>
	<path class="st0" d="M517.2,293.6h9.2v-42.3h-9.2V293.6z"/>
	<path class="st0" d="M505.8,293.6h9.2v-36.7h-9.2V293.6z"/>
	<path class="st0" d="M484.7,293.6h9.2v-36.7h-9.2V293.6z"/>
	<path class="st0" d="M497.9,293.6h4.6v-44.4h-4.6V293.6z"/>
	<path class="st2" d="M364.6,352h161.8v-50.4H364.6L364.6,352L364.6,352z"/>
	<path class="st0" d="M424.3,352h9.2v-42.3h-9.2V352z"/>
	<path class="st0" d="M367.2,350.3l9.1,1.7l6.7-41.7l-9-1.7L367.2,350.3z"/>
	<path class="st0" d="M457.4,352h9.2v-36.7h-9.2V352z"/>
	<path class="st0" d="M436.3,352h9.2v-36.7h-9.2V352z"/>
	<path class="st0" d="M382.9,352h9.2v-36.7h-9.2V352z"/>
	<path class="st0" d="M404.8,349.8l9,2.1l7.4-35.8l-9-2.1L404.8,349.8z"/>
	<path class="st0" d="M449.4,352h4.6v-44.4h-4.6V352z"/>
	<path class="st0" d="M394.8,352h4.6v-44.4h-4.6V352z"/>
	<path class="st0" d="M472.9,350.3l9.1,1.7l6.7-41.7l-9.1-1.7L472.9,350.3z"/>
	<path class="st0" d="M488.7,352h9.2v-36.7h-9.2V352z"/>
	<path class="st0" d="M510.6,349.8l9,2.1l7.4-35.8l-9-2.1L510.6,349.8z"/>
	<path class="st0" d="M500.5,352h4.6v-44.4h-4.6V352z"/>
	<path class="st2" d="M562.6,176.1h-30v273.8h30V176.1z"/>
	<path class="st3" d="M144.3,117.3c0,0-1.5-10.6,5.7-17.5c7.2-6.8,6.6-10.9,4.5-11.4s-4,6.3-7.2,8.2c0,0-0.1-9.7,3.1-13.3
		c3.2-3.6,4.9-12.8,1.8-13s-3.4,5.5-4,9.5s-4.1,9.6-4.1,9.6s-0.7-8.7-2.8-12.3c-2.1-3.6,3.5-11.8,1.3-15.3c-2.2-3.6-6,3.2-5.7,10.9
		c0.3,7.7,5.2,15.9,4,23.9c0,0-2.1-5.6-4-6.1s-3.9-4.2-5.1-5.6c-1.3-1.4-2.9,3.4,0,7.8s10.2,16.3,9.1,25.9L144.3,117.3z"/>
	<path class="st3" d="M148.7,112.5l2.4,15.9c0.2,1.2,0.1,2.3-0.2,3.5c-0.3,1.1-0.8,2.2-1.5,3.1s-1.6,1.6-2.6,2.1s-2.1,0.7-3.2,0.7
		H141c-1.1,0-2.2-0.2-3.2-0.7s-1.9-1.2-2.6-2.1s-1.2-1.9-1.5-3.1c-0.3-1.1-0.4-2.3-0.2-3.5l2.4-15.9H148.7z"/>
	<path class="st2" d="M112.7,141.2h167.9V132H112.7V141.2z"/>
	<path class="st0" d="M265.5,131.9h7.4v-34h-7.4V131.9z"/>
	<path class="st0" d="M229.7,131.9h7.4v-34h-7.4V131.9z"/>
	<path class="st0" d="M183.7,130.6l7.3,1.3l5.4-33.5l-7.3-1.3L183.7,130.6z"/>
	<path class="st0" d="M256.3,131.9h7.4v-29.5h-7.4V131.9z"/>
	<path class="st0" d="M239.3,131.9h7.4v-29.5h-7.4V131.9z"/>
	<path class="st0" d="M196.4,131.9h7.4v-29.5h-7.4V131.9z"/>
	<path class="st0" d="M214,130.2l7.2,1.7l6-28.8l-7.2-1.7L214,130.2z"/>
	<path class="st0" d="M249.9,131.9h3.7V96.2h-3.7V131.9z"/>
	<path class="st0" d="M205.9,131.9h3.7V96.2h-3.7V131.9z"/>
	<path class="st2" d="M280.6,200.8H112.7v9.2h167.9V200.8z"/>
	<path class="st0" d="M127.9,166.8h-7.4v34h7.4V166.8z"/>
	<path class="st0" d="M163.6,166.8h-7.4v34h7.4V166.8z"/>
	<path class="st0" d="M204.2,165.9l-7.3,1.3l5.4,33.5l7.3-1.3L204.2,165.9z"/>
	<path class="st0" d="M137,171.3h-7.4v29.5h7.4V171.3z"/>
	<path class="st0" d="M154,171.3h-7.4v29.5h7.4V171.3z"/>
	<path class="st0" d="M196.9,171.3h-7.4v29.5h7.4V171.3z"/>
	<path class="st0" d="M173.4,170.2l-7.2,1.7l6,28.8l7.2-1.7L173.4,170.2z"/>
	<path class="st0" d="M143.4,165.1h-3.7v35.7h3.7V165.1z"/>
	<path class="st0" d="M187.4,165.1h-3.7v35.7h3.7V165.1z"/>
	<path class="st0" d="M264.5,173.9h-36v26.6h36V173.9z"/>
	<path class="st2" d="M454.8,117.1c13.9,0,25.1-12,25.1-26.9c0-14.8-11.2-26.9-25.1-26.9c-13.9,0-25.1,12-25.1,26.9
		C429.7,105,440.9,117.1,454.8,117.1z"/>
	<path class="st1" d="M454.8,113.1c11.8,0,21.4-10.2,21.4-22.9c0-12.6-9.6-22.9-21.4-22.9c-11.8,0-21.4,10.2-21.4,22.9
		C433.5,102.8,443,113.1,454.8,113.1z"/>
	<path class="st1" d="M453.8,74.5v16l-9.9-6"/>
	<path class="st2" d="M453.8,91.9c-0.2,0-0.4-0.1-0.6-0.2l-9.9-6c-0.3-0.2-0.5-0.5-0.6-0.8c-0.1-0.4-0.1-0.7,0.1-1
		c0.1-0.2,0.2-0.3,0.3-0.4s0.3-0.2,0.4-0.2c0.2,0,0.3-0.1,0.5,0c0.2,0,0.3,0.1,0.5,0.2l8,4.8V74.7c0-0.4,0.1-0.7,0.4-1
		s0.6-0.4,0.9-0.4c0.3,0,0.7,0.1,0.9,0.4s0.4,0.6,0.4,1v16c0,0.4-0.1,0.7-0.4,1S454.2,91.9,453.8,91.9z"/>
	<path class="st4" d="M331.7,512.8c137.8,0,249.6-7,249.6-15.6s-111.7-15.6-249.6-15.6s-249.6,7-249.6,15.6
		C82.1,505.8,193.9,512.8,331.7,512.8z"/>
	<path class="st5" d="M553.7,100H297.5v259.4h256.2V100z"/>
	<path class="st6" d="M553.7,100H297.5v259.4h256.2V100z"/>
	<path class="st5" d="M553.7,100H297.5v13.2h256.2V100z"/>
	<path class="st7" d="M553.7,113.3h-8.5v246.4h8.5V113.3z"/>
	<path class="st8" d="M550,119.1h-0.8c-1.2,0-2.2,1-2.2,2.3v29.7c0,1.3,1,2.3,2.2,2.3h0.8c1.2,0,2.2-1,2.2-2.3v-29.7
		C552.1,120.1,551.2,119.1,550,119.1z"/>
	<path class="st7" d="M539.7,283.5H302.9c-0.2,0-0.3-0.1-0.5-0.2c-0.1-0.1-0.2-0.3-0.2-0.5s0.1-0.4,0.2-0.5s0.3-0.2,0.5-0.2h236.8
		c0.2,0,0.3,0.1,0.5,0.2c0.1,0.1,0.2,0.3,0.2,0.5s-0.1,0.4-0.2,0.5C540,283.5,539.8,283.5,539.7,283.5z"/>
	<path class="st7" d="M539.7,224.4H302.9c-0.2,0-0.3-0.1-0.5-0.2c-0.1-0.1-0.2-0.3-0.2-0.5s0.1-0.4,0.2-0.5s0.3-0.2,0.5-0.2h236.8
		c0.2,0,0.3,0.1,0.5,0.2c0.1,0.1,0.2,0.3,0.2,0.5s-0.1,0.4-0.2,0.5C540,224.3,539.8,224.4,539.7,224.4z"/>
	<path class="st5" d="M539.7,119.1H302.9v38.7h236.8V119.1z"/>
	<path class="st8" d="M550.8,106.6c0,0.7-0.2,1.3-0.5,1.8s-0.8,1-1.4,1.2c-0.6,0.3-1.2,0.3-1.8,0.2c-0.6-0.1-1.2-0.4-1.6-0.9
		c-0.4-0.5-0.7-1.1-0.9-1.7c-0.1-0.6-0.1-1.3,0.2-1.9c0.2-0.6,0.6-1.1,1.1-1.5s1.1-0.6,1.7-0.6c0.8,0,1.6,0.3,2.2,1
		C550.5,104.9,550.8,105.8,550.8,106.6z"/>
	<path class="st8" d="M539.8,106.6c0,0.7-0.2,1.3-0.5,1.8s-0.8,1-1.4,1.2s-1.2,0.3-1.8,0.2c-0.6-0.1-1.2-0.4-1.6-0.9
		c-0.4-0.5-0.7-1.1-0.9-1.7c-0.1-0.6-0.1-1.3,0.2-1.9c0.2-0.6,0.6-1.1,1.1-1.5s1.1-0.6,1.7-0.6c0.8,0,1.6,0.3,2.2,1
		C539.5,104.9,539.8,105.8,539.8,106.6z"/>
	<path class="st8" d="M528.9,106.6c0,0.7-0.2,1.3-0.5,1.8s-0.8,1-1.4,1.2s-1.2,0.3-1.8,0.2c-0.6-0.1-1.2-0.4-1.6-0.9
		c-0.4-0.5-0.7-1.1-0.8-1.7s-0.1-1.3,0.2-1.9c0.2-0.6,0.6-1.1,1.1-1.5s1.1-0.6,1.7-0.6c0.8,0,1.6,0.3,2.2,1
		C528.6,104.9,528.9,105.8,528.9,106.6z"/>
	<path class="st9" d="M313,183.7c-1.5,0-3-0.5-4.2-1.4s-2.2-2.2-2.8-3.6c-0.6-1.5-0.7-3.1-0.4-4.7c0.3-1.6,1-3,2.1-4.2
		c1.1-1.1,2.4-1.9,3.9-2.2c1.5-0.3,3-0.2,4.4,0.5c1.4,0.6,2.6,1.7,3.4,3s1.3,2.9,1.3,4.5c0,2.1-0.8,4.2-2.2,5.7
		C317,182.9,315.1,183.7,313,183.7z"/>
	<path class="st10" d="M314,172.5v6.2h-1.3v-5h-1.2v-1.1h2.5V172.5z"/>
	<path class="st9" d="M529.4,167.8H327.7c-0.8,0-1.5,0.7-1.5,1.6v1c0,0.9,0.7,1.6,1.5,1.6h201.7c0.8,0,1.5-0.7,1.5-1.6v-1
		C530.9,168.5,530.2,167.8,529.4,167.8z"/>
	<path class="st9" d="M529.4,178.5H327.7c-0.8,0-1.5,0.7-1.5,1.6v1c0,0.9,0.7,1.6,1.5,1.6h201.7c0.8,0,1.5-0.7,1.5-1.6v-1
		C530.9,179.2,530.2,178.5,529.4,178.5z"/>
	<path class="st9" d="M459.7,189.1H327.8c-0.8,0-1.5,0.7-1.5,1.6v1c0,0.9,0.7,1.6,1.5,1.6h131.9c0.8,0,1.5-0.7,1.5-1.6v-1
		C461.1,189.8,460.5,189.1,459.7,189.1z"/>
	<path class="st7" d="M329.8,213.4c1.9,0,3.5-1.7,3.5-3.8c0-2.1-1.6-3.8-3.5-3.8s-3.5,1.7-3.5,3.8
		C326.3,211.7,327.9,213.4,329.8,213.4z"/>
	<path class="st10" d="M332.2,209.6c0,0.5-0.1,1-0.4,1.4s-0.7,0.8-1.1,1c-0.5,0.2-0.9,0.3-1.4,0.2c-0.5-0.1-0.9-0.3-1.2-0.7
		s-0.6-0.8-0.7-1.3s0-1,0.1-1.5c0.2-0.5,0.5-0.9,0.9-1.2c0.4-0.3,0.9-0.4,1.4-0.4c0.6,0,1.3,0.3,1.7,0.8
		C332,208.3,332.2,209,332.2,209.6z"/>
	<path class="st9" d="M375.4,207.6h-34.1c-0.8,0-1.5,0.7-1.5,1.6v1c0,0.9,0.7,1.6,1.5,1.6h34.1c0.8,0,1.5-0.7,1.5-1.6v-1
		C376.8,208.3,376.2,207.6,375.4,207.6z"/>
	<path class="st7" d="M404.7,209.6c0,0.7-0.2,1.5-0.6,2.1s-0.9,1.1-1.6,1.4c-0.6,0.3-1.3,0.4-2,0.2c-0.7-0.1-1.3-0.5-1.8-1
		s-0.8-1.2-1-1.9c-0.1-0.7-0.1-1.5,0.2-2.2c0.3-0.7,0.7-1.3,1.3-1.7c0.6-0.4,1.3-0.6,1.9-0.6c0.9,0,1.8,0.4,2.5,1.1
		C404.4,207.6,404.7,208.6,404.7,209.6z"/>
	<path class="st5" d="M403.6,209.6c0,0.5-0.1,1-0.4,1.4s-0.6,0.8-1.1,1c-0.4,0.2-0.9,0.3-1.4,0.2c-0.5-0.1-0.9-0.3-1.2-0.7
		c-0.3-0.4-0.6-0.8-0.7-1.3s-0.1-1,0.1-1.5s0.5-0.9,0.9-1.2c0.4-0.3,0.9-0.4,1.3-0.4c0.7,0,1.3,0.3,1.7,0.8
		C403.4,208.2,403.6,208.9,403.6,209.6z"/>
	<path class="st9" d="M446.8,207.5h-34.1c-0.8,0-1.5,0.7-1.5,1.6v1c0,0.9,0.7,1.6,1.5,1.6h34.1c0.8,0,1.5-0.7,1.5-1.6v-1
		C448.2,208.2,447.6,207.5,446.8,207.5z"/>
	<path class="st7" d="M476.1,209.5c0,0.7-0.2,1.5-0.6,2.1c-0.4,0.6-0.9,1.1-1.6,1.4c-0.6,0.3-1.3,0.4-2,0.2c-0.7-0.1-1.3-0.5-1.8-1
		s-0.8-1.2-1-1.9c-0.1-0.7-0.1-1.5,0.2-2.2s0.7-1.3,1.3-1.7c0.6-0.4,1.2-0.6,1.9-0.6c0.9,0,1.8,0.4,2.5,1.1
		C475.8,207.5,476.1,208.5,476.1,209.5z"/>
	<path class="st10" d="M475.1,209.5c0,0.5-0.1,1-0.4,1.4c-0.3,0.4-0.6,0.8-1.1,1c-0.4,0.2-0.9,0.2-1.4,0.1s-0.9-0.3-1.2-0.7
		c-0.3-0.4-0.6-0.8-0.7-1.3c-0.1-0.5,0-1,0.1-1.5c0.2-0.5,0.5-0.9,0.9-1.2c0.4-0.3,0.9-0.4,1.3-0.4c0.6,0,1.3,0.3,1.7,0.8
		C474.8,208.1,475.1,208.8,475.1,209.5z"/>
	<path class="st9" d="M518.2,207.4h-34.1c-0.8,0-1.5,0.7-1.5,1.6v1c0,0.9,0.7,1.6,1.5,1.6h34.1c0.8,0,1.5-0.7,1.5-1.6v-1
		C519.6,208.1,519,207.4,518.2,207.4z"/>
	<path class="st9" d="M313,252.3c4.2,0,7.6-3.6,7.6-8.1s-3.4-8.1-7.6-8.1s-7.6,3.6-7.6,8.1C305.5,248.7,308.9,252.3,313,252.3z"/>
	<path class="st10" d="M315.2,246.2v1.2h-4.3v-0.9l2.2-2.2c0.5-0.5,0.6-0.8,0.6-1.1s-0.3-0.8-0.9-0.8c-0.2,0-0.4,0-0.7,0.2
		c-0.2,0.1-0.4,0.3-0.5,0.5l-1-0.7c0.3-0.4,0.6-0.7,1-0.9s0.8-0.3,1.3-0.3c1.3,0,2.1,0.7,2.1,1.8c0,0.4-0.1,0.8-0.3,1.1
		c-0.2,0.3-0.4,0.6-0.7,0.8l-1.3,1.4L315.2,246.2z"/>
	<path class="st9" d="M529.4,236.4H327.7c-0.8,0-1.5,0.7-1.5,1.6v1c0,0.9,0.7,1.6,1.5,1.6h201.7c0.8,0,1.5-0.7,1.5-1.6v-1
		C530.9,237.1,530.2,236.4,529.4,236.4z"/>
	<path class="st9" d="M366.1,247.1h-38.3c-0.8,0-1.5,0.7-1.5,1.6v1c0,0.9,0.7,1.6,1.5,1.6h38.3c0.8,0,1.5-0.7,1.5-1.6v-1
		C367.6,247.8,366.9,247.1,366.1,247.1z"/>
	<path class="st7" d="M329.8,271.2c1.9,0,3.5-1.7,3.5-3.8s-1.6-3.8-3.5-3.8s-3.5,1.7-3.5,3.8S327.9,271.2,329.8,271.2z"/>
	<path class="st10" d="M329.8,270c1.3,0,2.4-1.2,2.4-2.6c0-1.4-1.1-2.6-2.4-2.6s-2.4,1.2-2.4,2.6S328.5,270,329.8,270z"/>
	<path class="st9" d="M375.4,265.3h-34.1c-0.8,0-1.5,0.7-1.5,1.6v1c0,0.9,0.7,1.6,1.5,1.6h34.1c0.8,0,1.5-0.7,1.5-1.6v-1
		C376.8,266.1,376.2,265.3,375.4,265.3z"/>
	<path class="st7" d="M401.2,271.1c1.9,0,3.5-1.7,3.5-3.8s-1.6-3.8-3.5-3.8s-3.5,1.7-3.5,3.8C397.7,269.4,399.3,271.1,401.2,271.1z"
		/>
	<path class="st10" d="M401.2,269.9c1.3,0,2.4-1.2,2.4-2.6c0-1.4-1.1-2.6-2.4-2.6s-2.4,1.2-2.4,2.6
		C398.8,268.8,399.9,269.9,401.2,269.9z"/>
	<path class="st9" d="M446.8,265.3h-34.1c-0.8,0-1.5,0.7-1.5,1.6v1c0,0.9,0.7,1.6,1.5,1.6h34.1c0.8,0,1.5-0.7,1.5-1.6v-1
		C448.2,266,447.6,265.3,446.8,265.3z"/>
	<path class="st7" d="M476.1,267.2c0,0.7-0.2,1.5-0.6,2.1c-0.4,0.6-0.9,1.1-1.6,1.4c-0.6,0.3-1.3,0.4-2,0.2c-0.7-0.1-1.3-0.5-1.8-1
		s-0.8-1.2-1-1.9c-0.1-0.7-0.1-1.5,0.2-2.2s0.7-1.3,1.3-1.7s1.2-0.6,1.9-0.6c0.9,0,1.8,0.4,2.5,1.1
		C475.8,265.3,476.1,266.2,476.1,267.2z"/>
	<path class="st5" d="M475.1,267.2c0,0.5-0.1,1-0.4,1.4c-0.3,0.4-0.6,0.8-1.1,1c-0.4,0.2-0.9,0.2-1.4,0.1c-0.5-0.1-0.9-0.3-1.2-0.7
		s-0.6-0.8-0.7-1.3c-0.1-0.5,0-1,0.1-1.5c0.2-0.5,0.5-0.9,0.9-1.2s0.9-0.4,1.3-0.4c0.6,0,1.3,0.3,1.7,0.8
		C474.8,265.9,475.1,266.5,475.1,267.2z"/>
	<path class="st9" d="M518.2,265.2h-34.1c-0.8,0-1.5,0.7-1.5,1.6v1c0,0.9,0.7,1.6,1.5,1.6h34.1c0.8,0,1.5-0.7,1.5-1.6v-1
		C519.6,265.9,519,265.2,518.2,265.2z"/>
	<path class="st9" d="M313,311.8c-1.5,0-3-0.5-4.2-1.4s-2.2-2.2-2.8-3.6c-0.6-1.5-0.7-3.1-0.4-4.7c0.3-1.6,1-3,2.1-4.2
		c1.1-1.1,2.4-1.9,3.9-2.2s3-0.2,4.4,0.5c1.4,0.6,2.6,1.7,3.4,3s1.3,2.9,1.3,4.5c0,2.2-0.8,4.2-2.2,5.7
		C317,311,315.1,311.8,313,311.8z"/>
	<path class="st10" d="M315.2,304.9c0,1-0.8,2-2.4,2c-0.8,0-1.5-0.2-2.2-0.7l0.5-1.1c0.5,0.4,1,0.6,1.6,0.6c0.7,0,1.1-0.3,1.1-0.8
		s-0.3-0.8-1.1-0.8h-0.6v-0.9l1.2-1.4h-2.5v-1.1h4.1v0.9l-1.3,1.6c0.4,0,0.8,0.2,1.1,0.5C315,304,315.2,304.4,315.2,304.9z"/>
	<path class="st9" d="M529.4,295.9H327.7c-0.8,0-1.5,0.7-1.5,1.6v1c0,0.9,0.7,1.6,1.5,1.6h201.7c0.8,0,1.5-0.7,1.5-1.6v-1
		C530.9,296.6,530.2,295.9,529.4,295.9z"/>
	<path class="st9" d="M529.4,306.5H327.7c-0.8,0-1.5,0.7-1.5,1.6v1c0,0.9,0.7,1.6,1.5,1.6h201.7c0.8,0,1.5-0.7,1.5-1.6v-1
		C530.9,307.2,530.2,306.5,529.4,306.5z"/>
	<path class="st9" d="M428.8,317.2h-101c-0.8,0-1.5,0.7-1.5,1.6v1c0,0.9,0.7,1.6,1.5,1.6h101c0.8,0,1.5-0.7,1.5-1.6v-1
		C430.3,317.9,429.6,317.2,428.8,317.2z"/>
	<path class="st9" d="M404.2,334.3h-6c-0.3,0-0.5,0.2-0.5,0.5v6.4c0,0.3,0.2,0.6,0.5,0.6h6c0.3,0,0.5-0.2,0.5-0.6v-6.4
		C404.7,334.5,404.5,334.3,404.2,334.3z"/>
	<path class="st10" d="M403.9,340.9v-5.7h-5.3v5.7H403.9z"/>
	<path class="st9" d="M446.8,336h-34.1c-0.8,0-1.5,0.7-1.5,1.6v1c0,0.9,0.7,1.6,1.5,1.6h34.1c0.8,0,1.5-0.7,1.5-1.6v-1
		C448.2,336.7,447.6,336,446.8,336z"/>
	<path class="st5" d="M400.9,339.7L400.9,339.7c-0.1,0-0.2,0-0.2-0.1l-1.3-1.3c-0.1-0.1-0.1-0.2-0.1-0.2c0-0.1,0-0.2,0.1-0.2
		l0.1-0.1h0.1h0.1c0,0,0.1,0,0.1,0.1l1.1,1.1l1.9-2.4c0-0.1,0.1-0.1,0.2-0.1s0.2,0,0.2,0.1c0.1,0.1,0.1,0.1,0.1,0.2
		c0,0.1,0,0.2-0.1,0.3L400.9,339.7C401.1,339.6,401.1,339.7,400.9,339.7L400.9,339.7z"/>
	<path class="st9" d="M475.6,334.2h-6c-0.3,0-0.5,0.2-0.5,0.5v6.4c0,0.3,0.2,0.5,0.5,0.5h6c0.3,0,0.5-0.2,0.5-0.5v-6.4
		C476.1,334.4,475.9,334.2,475.6,334.2z"/>
	<path class="st10" d="M475.3,340.8v-5.7H470v5.7H475.3z"/>
	<path class="st9" d="M518.2,335.9h-34.1c-0.8,0-1.5,0.7-1.5,1.6v1c0,0.9,0.7,1.6,1.5,1.6h34.1c0.8,0,1.5-0.7,1.5-1.6v-1
		C519.6,336.6,519,335.9,518.2,335.9z"/>
	<path class="st5" d="M472.3,339.6c-0.1,0-0.2,0-0.2-0.1l-1.3-1.3l-0.1-0.1V338v-0.1c0,0,0-0.1,0.1-0.1l0.1-0.1h0.1h0.1l0.1,0.1
		l1.1,1.1l1.9-2.4l0.1-0.1h0.1c0.1,0,0.1,0,0.1,0s0.1,0,0.1,0.1l0.1,0.1v0.1v0.1c0,0,0,0.1-0.1,0.1l-2.1,2.6
		C472.6,339.5,472.5,339.6,472.3,339.6L472.3,339.6z"/>
	<path class="st9" d="M332.8,334.3h-6c-0.3,0-0.5,0.2-0.5,0.6v6.4c0,0.3,0.2,0.5,0.5,0.5h6c0.3,0,0.5-0.2,0.5-0.5v-6.4
		C333.3,334.6,333.1,334.3,332.8,334.3z"/>
	<path class="st10" d="M332.5,341v-5.7h-5.4v5.7H332.5z"/>
	<path class="st9" d="M375.4,336h-34.1c-0.8,0-1.5,0.7-1.5,1.6v1c0,0.9,0.7,1.6,1.5,1.6h34.1c0.8,0,1.5-0.7,1.5-1.6v-1
		C376.8,336.7,376.2,336,375.4,336z"/>
	<path class="st10" d="M314.3,137.2c-0.1-1.1,0.2-2.1,0.7-3s1.3-1.6,2.2-2.1c0.9-0.4,1.9-0.6,2.9-0.4s1.9,0.6,2.6,1.4
		c0.7,0.7,1.2,1.7,1.4,2.7c0.2,1,0.1,2.1-0.2,3.1c-0.4,1-1,1.8-1.8,2.4s-1.8,0.9-2.8,0.9c-0.6,0-1.3-0.1-1.9-0.3
		c-0.6-0.2-1.1-0.6-1.6-1.1s-0.8-1-1.1-1.6S314.3,137.9,314.3,137.2z M322,137.2c0-0.6-0.2-1.2-0.5-1.7s-0.8-0.9-1.3-1.1
		s-1.1-0.3-1.6-0.2c-0.5,0.1-1,0.4-1.4,0.8s-0.6,1-0.8,1.5c-0.1,0.6,0,1.2,0.2,1.7s0.6,1,1,1.3c0.5,0.3,1,0.5,1.6,0.5
		c0.4,0,0.8-0.1,1.1-0.2c0.4-0.2,0.7-0.4,0.9-0.7c0.3-0.3,0.5-0.6,0.6-1C321.9,138,322,137.6,322,137.2L322,137.2z"/>
	<path class="st10" d="M332.6,137.8v4.2h-2v-3.9c0-1.2-0.5-1.7-1.4-1.7s-1.7,0.6-1.7,2v3.6h-2v-7.4h1.9v0.9c0.3-0.3,0.7-0.6,1.1-0.7
		c0.4-0.2,0.8-0.2,1.2-0.2c0.4,0,0.8,0,1.2,0.2c0.4,0.2,0.7,0.4,1,0.7c0.3,0.3,0.5,0.7,0.6,1.1C332.6,136.9,332.6,137.4,332.6,137.8
		z"/>
	<path class="st10" d="M334.4,131.8h2V142h-2V131.8z"/>
	<path class="st10" d="M338,132.4c0-0.2,0-0.3,0.1-0.5s0.2-0.3,0.3-0.4c0.1-0.1,0.3-0.2,0.4-0.2c0.2,0,0.3-0.1,0.5,0
		c0.2,0,0.3,0,0.5,0s0.3,0.1,0.4,0.2s0.2,0.2,0.3,0.4c0.1,0.2,0.1,0.3,0.1,0.5c-0.1,0.3-0.2,0.5-0.5,0.7c-0.2,0.2-0.5,0.3-0.8,0.3
		s-0.6-0.1-0.8-0.3C338.3,132.9,338.2,132.6,338,132.4L338,132.4z M338.3,134.6h2v7.4h-2V134.6z"/>
	<path class="st10" d="M349.2,137.8v4.2h-2v-3.9c0-1.2-0.5-1.7-1.4-1.7s-1.7,0.6-1.7,2v3.6h-2v-7.4h1.9v0.9c0.3-0.3,0.6-0.6,1-0.7
		c0.4-0.2,0.8-0.2,1.2-0.2c0.4,0,0.8,0,1.2,0.2c0.4,0.2,0.7,0.4,1,0.7c0.3,0.3,0.5,0.7,0.6,1.1S349.2,137.4,349.2,137.8z"/>
	<path class="st10" d="M357.8,138.9h-5.2c0.1,0.5,0.4,0.9,0.7,1.1c0.4,0.3,0.8,0.4,1.2,0.3c0.3,0,0.6,0,0.9-0.2
		c0.3-0.1,0.6-0.3,0.8-0.5l1.1,1.2c-0.4,0.4-0.8,0.7-1.3,0.9c-0.5,0.2-1,0.3-1.5,0.3c-0.5,0.1-1,0-1.5-0.2s-0.9-0.4-1.3-0.8
		s-0.7-0.8-0.9-1.3c-0.2-0.5-0.3-1-0.3-1.5s0.1-1,0.3-1.5c0.2-0.5,0.5-0.9,0.8-1.3s0.8-0.6,1.2-0.8c0.4-0.2,0.9-0.3,1.4-0.2
		c0.5,0,0.9,0.1,1.4,0.2c0.4,0.2,0.9,0.5,1.2,0.8s0.6,0.8,0.8,1.3c0.2,0.5,0.2,1,0.2,1.5C357.8,138.5,357.8,138.7,357.8,138.9z
		 M352.5,137.7h3.4c-0.1-0.4-0.3-0.8-0.6-1.1c-0.3-0.3-0.7-0.4-1.1-0.4s-0.8,0.2-1.1,0.4C352.8,136.9,352.6,137.2,352.5,137.7z"/>
	<path class="st10" d="M364.8,134.2h-2.9v-1.8h7.8v1.8h-2.9v7.8h-2.1L364.8,134.2L364.8,134.2z"/>
	<path class="st10" d="M376.8,138.9h-5.2c0.1,0.5,0.4,0.9,0.7,1.1c0.4,0.3,0.8,0.4,1.2,0.3c0.3,0,0.6,0,0.9-0.2
		c0.3-0.1,0.6-0.3,0.8-0.5l1.1,1.2c-0.4,0.4-0.8,0.7-1.3,0.9c-0.5,0.2-1,0.3-1.6,0.3c-0.5,0.1-1,0-1.5-0.2s-0.9-0.4-1.3-0.8
		s-0.7-0.8-0.9-1.3c-0.2-0.5-0.3-1-0.3-1.5s0.1-1,0.3-1.5c0.2-0.5,0.5-0.9,0.8-1.3s0.8-0.6,1.2-0.8c0.4-0.2,0.9-0.3,1.4-0.2
		c0.5,0,1,0.1,1.4,0.2c0.4,0.2,0.8,0.5,1.2,0.8c0.3,0.4,0.6,0.8,0.8,1.3c0.2,0.5,0.2,1,0.2,1.5C376.8,138.5,376.8,138.7,376.8,138.9
		z M371.5,137.7h3.4c-0.1-0.4-0.3-0.8-0.6-1.1c-0.3-0.3-0.7-0.4-1.1-0.4s-0.8,0.2-1.1,0.4C371.8,136.9,371.6,137.2,371.5,137.7z"/>
	<path class="st10" d="M377.4,141.3l0.7-1.5c0.7,0.5,1.6,0.7,2.4,0.7c0.9,0,1.3-0.3,1.3-0.7c0-1.2-4.2,0-4.2-2.9
		c0-1.4,1.2-2.4,3.2-2.4c0.9,0,1.8,0.2,2.7,0.6l-0.7,1.5c-0.6-0.4-1.3-0.6-2-0.6c-0.9,0-1.3,0.3-1.3,0.7c0,1.3,4.2,0,4.2,3
		c0,1.4-1.2,2.3-3.3,2.3C379.4,142.1,378.4,141.9,377.4,141.3z"/>
	<path class="st10" d="M389.4,141.6c-0.5,0.3-1.1,0.5-1.6,0.5c-0.3,0.1-0.7,0-1-0.1s-0.6-0.3-0.9-0.6c-0.2-0.3-0.4-0.6-0.6-0.9
		c-0.1-0.3-0.2-0.7-0.1-1.1v-3h-1.1v-1.7h1.1V133h2v1.8h1.7v1.7h-1.7v3c0,0.1,0,0.3,0,0.4s0.1,0.2,0.2,0.3c0.1,0.1,0.2,0.2,0.3,0.2
		c0.1,0,0.2,0.1,0.3,0.1c0.3,0,0.6-0.1,0.8-0.3L389.4,141.6z"/>
	<path class="st10" d="M525.9,146.3c4-4.3,4-11.2,0-15.4c-4-4.3-10.4-4.3-14.4,0s-4,11.2,0,15.4
		C515.5,150.6,521.9,150.6,525.9,146.3z"/>
	<path class="st7" d="M527.7,133.5l-9,5.1v-10.9c1.9,0,3.7,0.5,5.3,1.6S526.8,131.8,527.7,133.5z"/>
	<path class="st11" d="M499.5,474.6c0,0,5.6-28.1-4.6-43.3c-10.1-15.2,9.1-0.2,11.4,14.1c0,0,3.3-25.5-6.5-43.4s8.5-3.2,10.1,15.3
		c0,0,3-22.7-1.5-35.5s3.3-4.6,6.4,3.5c3,8-0.9,27.8-0.9,27.8s7.9-36.7,15.3-33.8c7.5,2.9-11.2,27-13.7,39.5c0,0,8.8-16.8,15.4-13.3
		c6.7,3.5-10.3,5.2-18.1,30.3l-2.7,11.8c0,0,8.1-16.6,13.4-11.3c5.3,5.2-15.7,14.3-20.6,39.4L499.5,474.6z"/>
	<path class="st11" d="M500.6,476.2c0,0,1.2-35.4,17.6-50.5c16.4-15-10.9-3.1-17.6,13.2c0,0,3.1-31.6,19.9-49.9
		c16.8-18.3-9.4-6.6-16.4,15.1c0,0,2.7-28.2,11.7-42.1c9-13.9-2.7-6.5-8.6,2.1c-5.8,8.6-6.6,33.6-6.6,33.6s0.8-46.4-9-45.3
		c-9.8,1.1,5.9,35.8,5.5,51.6c0,0-5.9-22.9-14.8-20.9c-9,2.1,10.9,9.6,13.2,42.1v15c0,0-5.1-22.5-12.9-17.9s14.8,22.1,13.7,53.8
		L500.6,476.2z"/>
	<path class="st12" d="M500.6,476.2c0,0,1.2-35.4,17.6-50.5c16.4-15-10.9-3.1-17.6,13.2c0,0,3.1-31.6,19.9-49.9
		c16.8-18.3-9.4-6.6-16.4,15.1c0,0,2.7-28.2,11.7-42.1c9-13.9-2.7-6.5-8.6,2.1c-5.8,8.6-6.6,33.6-6.6,33.6s0.8-46.4-9-45.3
		c-9.8,1.1,5.9,35.8,5.5,51.6c0,0-5.9-22.9-14.8-20.9c-9,2.1,10.9,9.6,13.2,42.1v15c0,0-5.1-22.5-12.9-17.9s14.8,22.1,13.7,53.8
		L500.6,476.2z"/>
	<path class="st5" d="M508.7,501.2h-19.9c-3.8,0-7.4-1.6-10-4.4c-2.7-2.8-4.1-6.7-4.1-10.7v-2.8h48.1v2.8c0,4-1.5,7.9-4.1,10.7
		S512.5,501.1,508.7,501.2z"/>
	<path class="st5" d="M473.8,488.9h49.9c3,0,5.4-2.6,5.4-5.8v-4.5c0-3.2-2.4-5.8-5.4-5.8h-49.9c-3,0-5.4,2.6-5.4,5.8v4.5
		C468.4,486.3,470.8,488.9,473.8,488.9z"/>
	<path class="st12" d="M473.8,488.9h49.9c3,0,5.4-2.6,5.4-5.8v-4.5c0-3.2-2.4-5.8-5.4-5.8h-49.9c-3,0-5.4,2.6-5.4,5.8v4.5
		C468.4,486.3,470.8,488.9,473.8,488.9z"/>
	<path class="st11" d="M230.9,307.6c-0.2,0.4-0.3,0.8-0.2,1.3c0,0.4,0.2,0.9,0.4,1.2s0.6,0.7,0.9,0.8c0.4,0.2,0.8,0.3,1.2,0.2h61
		c1-0.1,2-0.4,2.8-1s1.5-1.5,1.8-2.5l12.9-39.8c0.1-0.4,0.2-0.8,0.2-1.2c0-0.3-0.1-0.7-0.2-1s-0.3-0.6-0.6-0.8
		c-0.2-0.2-0.5-0.4-0.8-0.5s-0.6-0.1-0.9-0.1h-60.9c-1,0.1-2,0.4-2.8,1s-1.5,1.5-1.8,2.5L230.9,307.6z"/>
	<path class="st5" d="M294.7,309.2c0.5,0,1-0.2,1.4-0.5s0.7-0.7,0.9-1.2l12.9-39.8c0.1-0.2,0.1-0.3,0.1-0.5c0-0.6-0.4-0.9-1-0.9
		h-60.9c-0.5,0-1,0.2-1.4,0.5s-0.7,0.7-0.9,1.2l-12.9,39.8c-0.1,0.2-0.1,0.3-0.1,0.5s0.1,0.3,0.2,0.5c0.1,0.1,0.2,0.2,0.4,0.3
		c0.2,0.1,0.3,0.1,0.5,0.1L294.7,309.2L294.7,309.2z"/>
	<path class="st13" d="M294.7,309.2c0.5,0,1-0.2,1.4-0.5s0.7-0.7,0.9-1.2l12.9-39.8c0.1-0.2,0.1-0.3,0.1-0.5c0-0.6-0.4-0.9-1-0.9
		h-60.9c-0.5,0-1,0.2-1.4,0.5s-0.7,0.7-0.9,1.2l-12.9,39.8c-0.1,0.2-0.1,0.3-0.1,0.5s0.1,0.3,0.2,0.5c0.1,0.1,0.2,0.2,0.4,0.3
		c0.2,0.1,0.3,0.1,0.5,0.1L294.7,309.2L294.7,309.2z"/>
	<path class="st11" d="M204.9,308.2v1.8l12.1,3.3h77c0.6,0,1.1-0.2,1.5-0.7c0.4-0.4,0.6-1,0.6-1.6v-2.8H204.9z"/>
	<path class="st12" d="M269.3,308.2v1.8l12.1,3.3H217l-12.1-3.3v-1.8H269.3z"/>
	<g class="st14">
		<path class="st5" d="M306,275.6h-61.6l2.4-7.2h61.6L306,275.6z"/>
	</g>
	<g class="st15">
		<path d="M302.9,284.8h-61.6c-0.2,0-0.3-0.2-0.2-0.4c0-0.1,0.1-0.2,0.2-0.2c0.1-0.1,0.2-0.1,0.3-0.1h61.6c0.2,0,0.3,0.2,0.2,0.4
			c0,0.1-0.1,0.2-0.2,0.3C303.1,284.8,303,284.8,302.9,284.8z"/>
	</g>
	<g class="st15">
		<path d="M299.5,294.9h-61.6c-0.2,0-0.3-0.2-0.2-0.4c0-0.1,0.1-0.2,0.2-0.2c0.1-0.1,0.2-0.1,0.3-0.1h61.6c0.2,0,0.3,0.2,0.2,0.4
			c0,0.1-0.1,0.2-0.2,0.2C299.7,294.9,299.6,294.9,299.5,294.9z"/>
	</g>
	<g class="st15">
		<path d="M296.2,305h-61.6c-0.2,0-0.3-0.2-0.2-0.4c0-0.1,0.1-0.2,0.2-0.3s0.2-0.1,0.3-0.1h61.6c0.2,0,0.3,0.2,0.2,0.4
			c0,0.1-0.1,0.2-0.2,0.2C296.4,305,296.3,305,296.2,305z"/>
	</g>
	<path class="st11" d="M275.7,501h6.7l12.1-179.5h-8.9L275.7,501z"/>
	<path class="st12" d="M275.7,501h6.7l11.5-170.6l0.6-8.6h-8.9l-0.5,8.6L275.7,501z"/>
	<path class="st7" d="M285.1,329.9h8.8l0.6-8.2h-8.9L285.1,329.9z"/>
	<path class="st11" d="M226.4,501h6.7l1.1-179.5h-8.9L226.4,501z"/>
	<path class="st16" d="M225.3,321.7l0.2,29l0.9,150.3h6.7l0.9-150.3l0.2-29H225.3z"/>
	<path class="st7" d="M225.3,321.7l0.2,29.3h8.6l0.2-29.3H225.3z"/>
	<path class="st11" d="M155.2,501h6.7L174,321.5h-8.9L155.2,501z"/>
	<path class="st16" d="M155.2,501h6.7l11.5-170.6l0.6-8.6h-8.9l-0.5,8.6L155.2,501z"/>
	<path class="st7" d="M164.5,329.9h8.8l0.6-8.2H165L164.5,329.9z"/>
	<path class="st11" d="M352.5,501h6.7l-9.9-179.5h-8.9L352.5,501z"/>
	<path class="st16" d="M340.4,321.7l0.6,8.6l11.5,170.6h6.7l-9.4-170.6l-0.5-8.6L340.4,321.7L340.4,321.7z"/>
	<path class="st7" d="M349.3,321.7h-8.9l0.6,8.2h8.8L349.3,321.7z"/>
	<path class="st5" d="M353.6,325.9H160.7c-0.4,0-0.7-0.1-1.1-0.2c-0.3-0.1-0.7-0.4-0.9-0.6c-0.3-0.3-0.5-0.6-0.6-1s-0.2-0.7-0.2-1.1
		v-6h198.4v6c0,0.4-0.1,0.8-0.2,1.1c-0.1,0.4-0.3,0.7-0.6,1c-0.3,0.3-0.6,0.5-0.9,0.6C354.3,325.9,353.9,325.9,353.6,325.9z"/>
	<path class="st7" d="M158,321.4h198.4v-4.5H158V321.4z"/>
	<path class="st5" d="M153.8,318.1h206.7c0.6,0,1.2-0.3,1.7-0.7c0.4-0.5,0.7-1.1,0.7-1.8s-0.2-1.3-0.7-1.8c-0.4-0.5-1-0.7-1.7-0.7
		H153.8c-0.6,0-1.2,0.3-1.7,0.7c-0.4,0.5-0.7,1.1-0.7,1.8s0.2,1.3,0.7,1.8C152.6,317.8,153.2,318.1,153.8,318.1z"/>
	<path class="st11" d="M353.9,306.7c0.1,2.2-0.3,4.4-1.1,6.4h-47.1v-1.2h1v-10.4h-1v-1.2h47.1C353.6,302.3,354,304.5,353.9,306.7z"
		/>
	<path class="st12" d="M353.9,306.7c0.1,2.2-0.3,4.4-1.1,6.4h-47.1v-1.2h1v-10.4h-1v-1.2h47.1C353.6,302.3,354,304.5,353.9,306.7z"
		/>
	<path class="st7" d="M328.7,306.7c0.1,2.2-0.3,4.4-1.1,6.4h-21.9v-1.2h0.9v-10.4h-0.9v-1.2h21.9
		C328.4,302.3,328.8,304.5,328.7,306.7z"/>
	<path class="st13" d="M326.4,306.7c0.1,1.8-0.2,3.5-0.9,5.2h-18.8v-10.4h18.8C326.1,303.1,326.5,304.9,326.4,306.7z"/>
	<path class="st8" d="M346.2,306.7c0.1,2.2-0.3,4.4-1.1,6.4h-8.8c0.8-2,1.2-4.2,1.1-6.4c0.1-2.2-0.3-4.4-1.1-6.4h8.8
		C345.9,302.3,346.3,304.5,346.2,306.7z"/>
	<path class="st5" d="M358.1,293.9c0.1,2.2-0.3,4.4-1.1,6.4h-47.1v-1.2h1v-10.4h-1v-1.2H357C357.8,289.5,358.2,291.7,358.1,293.9z"
		/>
	<path class="st7" d="M332.9,293.9c0.1,2.2-0.3,4.4-1.1,6.4h-21.9v-1.2h1v-10.4h-1v-1.2h21.9C332.6,289.5,333,291.7,332.9,293.9z"/>
	<path class="st13" d="M330.6,293.9c0.1,1.8-0.2,3.5-0.9,5.2h-18.8v-10.4h18.8C330.3,290.4,330.6,292.1,330.6,293.9z"/>
	<path class="st7" d="M350.4,293.9c0.1,2.2-0.3,4.4-1.1,6.4h-8.8c0.8-2,1.2-4.2,1.1-6.4c0.1-2.2-0.3-4.4-1.1-6.4h8.8
		C350.1,289.5,350.5,291.7,350.4,293.9z"/>
	<path class="st17" d="M200.1,470.3l-4.2,20.5l-9.8-0.2l4.1-20.3H200.1z"/>
	<path class="st7" d="M200.1,470.3l-2.1,10.1l-9.7-0.7l1.9-9.4L200.1,470.3L200.1,470.3z"/>
	<path class="st5" d="M197.4,490.3h0.2l0.2,0.1l0,0l0,0c0.8,0.3,1.7,0.5,2.6,0.6c0.6,0.1,1.3,0,1.9-0.4c0.2-0.2,0.3-0.4,0.4-0.6
		c0.1-0.2,0.1-0.5,0-0.7c0-0.2-0.1-0.3-0.2-0.4c-0.1-0.1-0.2-0.2-0.3-0.3c-0.9-0.2-1.9,0-2.7,0.5c0.6-0.6,0.9-1.5,1-2.4
		c0-0.2-0.1-0.4-0.3-0.6c-0.2-0.2-0.3-0.2-0.5-0.2s-0.4,0-0.6,0s-0.4,0.1-0.5,0.3C197.6,487.1,197.4,490.1,197.4,490.3L197.4,490.3z
		 M198.5,489.7l-0.2,0.1c-0.1-1.1,0.2-2.3,0.8-3.2c0.1-0.1,0.1-0.1,0.2-0.1s0.2-0.1,0.3,0h0.1c0.3,0,0.4,0.2,0.4,0.4
		C199.9,487.9,199.3,488.9,198.5,489.7z M198.6,490.2c1.2-0.7,2.9-1.5,3.5-1.2c0.1,0,0.1,0.1,0.2,0.2c0,0.1,0.1,0.1,0.1,0.2
		c0,0.2,0,0.3,0,0.5s-0.1,0.3-0.2,0.4C201.7,490.7,200.4,490.7,198.6,490.2z"/>
	<path class="st11" d="M197.2,489l-11-0.7c-0.1,0-0.2,0-0.3,0c-0.1,0-0.2,0.1-0.2,0.1c-0.1,0.1-0.1,0.1-0.2,0.2
		c-0.1,0.1-0.1,0.2-0.1,0.3l-1.1,9.3c0,0.5,0.1,1,0.4,1.3c0.3,0.4,0.7,0.6,1.2,0.6c3.9,0.2,5.7,0.1,10.5,0.3
		c4.3,0.5,8.6,0.7,12.9,0.5c4.1-0.4,3.6-4.8,1.8-5c-4.2-0.5-9.8-3.8-12.4-6.3C198.4,489.3,197.8,489,197.2,489z"/>
	<path class="st17" d="M257.6,470.3l-4.1,20.5l-9.8-0.2l4.1-20.3H257.6z"/>
	<path class="st7" d="M257.6,470.3l-2.1,10.1l-9.7-0.7l1.9-9.4L257.6,470.3L257.6,470.3z"/>
	<path class="st5" d="M254.9,490.3h0.2c0,0,0.2,0.1,0.3,0.1l0,0l0,0c0.8,0.3,1.7,0.5,2.6,0.6c0.7,0.1,1.3,0,1.9-0.4
		c0.2-0.2,0.3-0.4,0.4-0.6c0.1-0.2,0.1-0.5,0-0.7c0-0.2-0.1-0.3-0.2-0.4c-0.1-0.1-0.2-0.2-0.3-0.3c-0.9-0.2-1.9,0-2.7,0.5
		c0.6-0.6,0.9-1.5,1-2.4c0-0.2-0.1-0.4-0.3-0.6s-0.3-0.2-0.5-0.2s-0.4,0-0.6,0s-0.4,0.1-0.5,0.2c-1,0.9-1.2,3.9-1.2,4.1L254.9,490.3
		z M256,489.7l-0.2,0.1c-0.1-1.1,0.2-2.3,0.8-3.2c0.1-0.1,0.2-0.1,0.2-0.1c0.1,0,0.2-0.1,0.3,0h0.1c0.3,0,0.4,0.2,0.4,0.4
		C257.4,487.9,256.8,488.9,256,489.7z M256.1,490.2c1.2-0.7,2.9-1.5,3.5-1.2c0.1,0,0.1,0.1,0.2,0.2c0,0.1,0.1,0.1,0.1,0.2
		c0,0.2,0,0.3,0,0.5s-0.1,0.3-0.2,0.4C259.1,490.7,257.9,490.7,256.1,490.2z"/>
	<path class="st11" d="M254.7,489l-11-0.7c-0.1,0-0.2,0-0.3,0c-0.1,0-0.2,0.1-0.2,0.1c-0.1,0.1-0.1,0.1-0.2,0.2
		c-0.1,0.1-0.1,0.2-0.1,0.3l-1.1,9.3c0,0.5,0.1,1,0.4,1.3c0.3,0.4,0.7,0.6,1.2,0.6c3.9,0.2,5.7,0.1,10.5,0.3
		c4.3,0.5,8.6,0.6,12.9,0.4c4.1-0.4,3.6-4.8,1.8-5c-4.2-0.5-9.8-3.8-12.4-6.3C255.9,489.3,255.3,489,254.7,489z"/>
	<path class="st5" d="M217.7,431.2c-3.7,15.4-8.5,30.5-14.3,45.2l-17.9-1.5c0,0,7.4-30.8,10-58.9c1.6-17.4,1.5-31.8-3.2-32.9
		c-3-0.7-10-0.7-19-0.5V347c25.2,5.5,50.3,16,52.2,24.3C228.1,383.1,223.4,408,217.7,431.2z"/>
	<path class="st18" d="M217.7,431.2c-3.7,15.4-8.5,30.5-14.3,45.2l-17.9-1.5c0,0,7.4-30.8,10-58.9c1.6-17.4,1.5-31.8-3.2-32.9
		c-3-0.7-10-0.7-19-0.5V347c25.2,5.5,50.3,16,52.2,24.3C228.1,383.1,223.4,408,217.7,431.2z"/>
	<path class="st7" d="M217.7,431.2c-6.7-4.5-14.5-9.9-22.2-15.1c1.6-17.4,1.5-31.8-3.2-32.9c-3-0.7-10-0.7-19-0.5V347
		c25.2,5.5,50.3,16,52.2,24.3C228.1,383.1,223.4,408,217.7,431.2z"/>
	<path class="st5" d="M207.9,343.5l1.6-13.6l-51.4-9c0,0-16.8,35.7-8.6,53c7.5,16,87.8,6.5,100.2,9.3c12.3,2.9-6.8,91.8-6.8,91.8
		l18,1.5c0,0,27.7-80,22-105.2C280.4,360.4,238.1,345.8,207.9,343.5z"/>
	<path class="st8" d="M207.9,343.5l1.6-13.6l-51.4-9c0,0-16.8,35.7-8.6,53c7.5,16,87.8,6.5,100.2,9.3c12.3,2.9-6.8,91.8-6.8,91.8
		l18,1.5c0,0,27.7-80,22-105.2C280.4,360.4,238.1,345.8,207.9,343.5z"/>
	<path class="st11" d="M236.2,232.9c-0.4,0.8-0.4,1.7,0.1,2s1.3-0.1,1.7-0.9c0.4-0.8,0.4-1.7-0.1-2S236.6,232.2,236.2,232.9z"/>
	<path class="st11" d="M235.4,228.6c-0.1-0.1-0.2-0.1-0.3-0.2c0-0.1,0-0.3,0-0.4c0-0.1,0.1-0.2,0.3-0.3c0.8-0.4,1.6-0.5,2.4-0.5
		s1.6,0.3,2.3,0.7c0.1,0.1,0.2,0.2,0.2,0.3s0,0.3,0,0.4c-0.1,0.1-0.2,0.2-0.3,0.2c-0.1,0-0.3,0-0.4-0.1c-0.6-0.3-1.2-0.5-1.8-0.6
		c-0.6,0-1.3,0.1-1.9,0.4c-0.1,0-0.2,0.1-0.2,0.1L235.4,228.6z"/>
	<path class="st19" d="M236.9,231.9c-0.4,3.1-0.5,6.2-0.1,9.2c-0.7,0.1-1.5,0-2.2-0.3s-1.3-0.7-1.9-1.2L236.9,231.9z"/>
	<path class="st20" d="M232.3,243.4c-0.3,0.4-0.6,0.8-1,1.1c-1.9,2.1-4.3,3.5-7,4.1c-0.7,0.2-1.4,0.2-2.1,0.3
		c-1.8,0.1-3.6-0.2-5.3-0.9c-1.7-0.7-3.2-1.8-4.4-3.2c-1.1-1.3-2-2.8-2.5-4.5c-2.4-6.9,0-12.4,3.5-21.9c0.8-2.2,2.1-4.2,3.8-5.8
		c1.7-1.6,3.7-2.6,5.9-3.1c2.2-0.5,4.5-0.3,6.6,0.4c2.1,0.7,4.1,2,5.6,3.8C242.4,221.5,237.8,235.9,232.3,243.4z"/>
	<path class="st7" d="M224.4,248.7c-0.7,0.1-1.4,0.2-2.1,0.3c-1.8,0.1-3.6-0.2-5.3-0.9c-1.7-0.7-3.2-1.8-4.4-3.2
		c0.9-0.9,1.8-1.7,2.9-2.4C218.9,243.5,222,245.7,224.4,248.7z"/>
	<path class="st20" d="M195.4,249c0.9,6.7,14.7,9.3,14.7,9.3s6.8,3.3,7.1,0.4c-2.8-3.5-3.1-6.5-2.2-9.2c0.6-1.6,1.6-3.1,2.8-4.3
		c0.6-0.7,1.3-1.4,2-2l-4.2-18.4C212.5,231.8,202.1,248,195.4,249z"/>
	<path class="st11" d="M234.6,208.4c0,0,3-0.4,5.2,5.5c1.9,4.9-2.6,6-2.4,11.3s-4.3,8.2-4.3,8.2s-3.8,3.5-7,1.6c0,0-4.2,2.2-5.3,6
		c-1.1,3.8-7.6-3.1-13.5-2c0,0-4-4-3.7-13.6c0.2-4.2,1.2-8.3,2.8-12.1c0.8-2,1.9-3.8,3.4-5.4c1.4-1.5,3.2-2.7,5-3.6
		C221.7,201.2,233.4,203.6,234.6,208.4z"/>
	<path class="st20" d="M225.4,232.1c-0.2,1-0.2,1.9,0,2.9s0.6,1.8,1.2,2.6c1.4,1.7,3.7-0.5,4.7-3.4c0.8-2.6,1.1-6.7-1-7.1
		C228.1,226.6,225.8,229.3,225.4,232.1z"/>
	<path class="st5" d="M215.5,251.5c-3.8-3.6-8.5-5.9-13.5-6.7c-2.2-0.3-4.4,0.2-6.3,1.4s-3.3,3.1-4.1,5.3l23.1,5L215.5,251.5z"/>
	<path class="st20" d="M211.6,303.6l9.4,1.5c2.1-0.7,4.3-1.2,6.6-1.5c2.4-0.2,4.8-0.2,7.3,0c0,0,4.2,1.7,4.2,6.1
		c0,0-9.9,2.8-13.7,1.1l-13.7-1.1v-6.1H211.6z"/>
	<path class="st7" d="M211.6,303.6l9.4,1.5c2.1-0.7,4.3-1.2,6.6-1.5c2.4-0.2,4.8-0.2,7.3,0c0,0,4.2,1.7,4.2,6.1
		c0,0-9.9,2.8-13.7,1.1l-13.7-1.1v-6.1H211.6z"/>
	<path class="st5" d="M226.9,254.6c-1.9,5.7-3.6,11.2-5.2,16.5c-1,3.3-1.9,6.5-2.7,9.6c-0.7,2.6-1.3,5.1-1.9,7.6
		c-0.3,1.2-0.6,2.3-0.8,3.5c-1.5,6.3-2.7,12.1-3.6,17.2c-1.6,8-2.7,16.1-3.5,24.3l-52.8-7.1c1.8-9.7,3.2-18.2,5.2-27.3
		c1.1-5,2.3-10.2,4-15.9c1.1-4.1,2.4-8.5,4-13.2c5.3-16.3,10.2-20.8,10.2-20.8C200.1,245.5,226.9,254.6,226.9,254.6z"/>
	<path class="st20" d="M244.4,304.6l9.4,1.5c2.1-0.7,4.3-1.2,6.6-1.5c2.4-0.2,4.9-0.2,7.3,0c0,0,4.3,1.7,4.3,6.1
		c0,0-9.9,2.8-13.8,1.1l-13.8-1.1V304.6z"/>
	<path class="st5" d="M183.6,475.9l21.4,1.5l3.1-9.9l-23.5-1.2L183.6,475.9z"/>
	<path class="st12" d="M183.6,475.9l21.4,1.5l3.1-9.9l-23.5-1.2L183.6,475.9z"/>
	<path class="st5" d="M241,475.9l21.4,1.5l3.1-9.9l-23.5-1.2L241,475.9z"/>
	<path class="st12" d="M241,475.9l21.4,1.5l3.1-9.9l-23.5-1.2L241,475.9z"/>
	<path d="M156.3,327l23.8,3.3l0.8-3.8l-23.8-3.7L156.3,327z"/>
	<path d="M182.8,326.6l-0.3,3.7l22,3.2v-3.7L182.8,326.6z"/>
	<path d="M205.9,330.1v3.5l3.2,0.5v-3.4L205.9,330.1z"/>
	<path class="st7" d="M221.7,271.2c-1,3.3-1.9,6.5-2.7,9.6c-0.7,2.6-1.3,5.1-1.9,7.6c-1.7-9.6,1.3-21.2,1.3-21.2L221.7,271.2z"/>
	<path class="st20" d="M225.3,257.9c4.3,0.9,6.5,32.9,7.5,37.1c0.8,3.7,21.1,11.2,21.1,11.2v5.2c0,0-22.4-1.6-27.7-4
		c-5.3-2.3-8.4-33.8-8.4-33.8L225.3,257.9z"/>
	<g class="st14">
		<path class="st10" d="M226.9,254.6c-1.9,5.7-3.6,11.2-5.2,16.5c-1,3.3-1.9,6.5-2.7,9.6c-0.7,2.6-1.3,5.1-1.9,7.6
			c-0.3,1.2-0.6,2.3-0.8,3.5c-1.5,6.3-2.7,12.1-3.6,17.2c-1.6,8-2.7,16.1-3.5,24.3l-52.8-7.1c1.8-9.7,3.2-18.2,5.2-27.3
			c1.1-5,2.3-10.2,4-15.9c1.1-4.1,2.4-8.5,4-13.2c5.3-16.3,10.2-20.8,10.2-20.8C200.1,245.5,226.9,254.6,226.9,254.6z"/>
	</g>
	<path class="st5" d="M226.9,254.6c3.9,1.4,5.9,28.9,5.9,28.9l-14.3,2l-3-11.3c0,0,1.2-5.3,2.9-10.9
		C220.8,255.2,226.9,254.6,226.9,254.6z"/>
	<path class="st11" d="M134.6,496.3c0-1-0.3-1.9-0.8-2.7s-1.2-1.4-2-1.8c-0.8-0.4-1.7-0.5-2.6-0.3s-1.7,0.6-2.3,1.3
		c-0.6,0.7-1.1,1.5-1.2,2.5c-0.2,0.9-0.1,1.9,0.3,2.8c0.4,0.9,0.9,1.6,1.7,2.2c0.7,0.5,1.6,0.8,2.5,0.8c0.6,0,1.2-0.1,1.7-0.4
		c0.6-0.2,1.1-0.6,1.5-1.1c0.4-0.4,0.8-1,1-1.6C134.5,497.6,134.6,496.9,134.6,496.3z"/>
	<path class="st12" d="M134.6,496.3c0-1-0.3-1.9-0.8-2.7s-1.2-1.4-2-1.8c-0.8-0.4-1.7-0.5-2.6-0.3s-1.7,0.6-2.3,1.3
		c-0.6,0.7-1.1,1.5-1.2,2.5c-0.2,0.9-0.1,1.9,0.3,2.8c0.4,0.9,0.9,1.6,1.7,2.2c0.7,0.5,1.6,0.8,2.5,0.8c0.6,0,1.2-0.1,1.7-0.4
		c0.6-0.2,1.1-0.6,1.5-1.1c0.4-0.4,0.8-1,1-1.6C134.5,497.6,134.6,496.9,134.6,496.3z"/>
	<path class="st11" d="M243.5,496.3c0-1-0.3-1.9-0.8-2.7s-1.2-1.4-2-1.8c-0.8-0.4-1.7-0.5-2.6-0.3s-1.7,0.6-2.3,1.3
		c-0.6,0.7-1.1,1.5-1.2,2.5c-0.2,0.9-0.1,1.9,0.3,2.8c0.3,0.9,0.9,1.6,1.7,2.2c0.8,0.5,1.6,0.8,2.5,0.8c0.6,0,1.2-0.1,1.7-0.4
		c0.5-0.2,1-0.6,1.5-1.1c0.4-0.4,0.8-1,1-1.6C243.4,497.6,243.5,496.9,243.5,496.3z"/>
	<path class="st12" d="M243.5,496.3c0-1-0.3-1.9-0.8-2.7s-1.2-1.4-2-1.8c-0.8-0.4-1.7-0.5-2.6-0.3s-1.7,0.6-2.3,1.3
		c-0.6,0.7-1.1,1.5-1.2,2.5c-0.2,0.9-0.1,1.9,0.3,2.8c0.3,0.9,0.9,1.6,1.7,2.2c0.8,0.5,1.6,0.8,2.5,0.8c0.6,0,1.2-0.1,1.7-0.4
		c0.5-0.2,1-0.6,1.5-1.1c0.4-0.4,0.8-1,1-1.6C243.4,497.6,243.5,496.9,243.5,496.3z"/>
	<path class="st12" d="M132.4,496.3c0-0.5-0.1-1-0.4-1.4c-0.2-0.4-0.6-0.7-1-0.9s-0.9-0.2-1.3-0.1c-0.4,0.1-0.8,0.3-1.2,0.7
		c-0.3,0.3-0.5,0.8-0.6,1.2c-0.1,0.5,0,1,0.1,1.4c0.2,0.5,0.5,0.8,0.8,1.1c0.4,0.3,0.8,0.4,1.3,0.4c0.3,0,0.6-0.1,0.9-0.2
		c0.3-0.1,0.5-0.3,0.7-0.5s0.4-0.5,0.5-0.8S132.4,496.6,132.4,496.3z"/>
	<path class="st12" d="M239,498.7c1.2,0,2.3-1.1,2.3-2.4c0-1.3-1-2.4-2.3-2.4s-2.3,1.1-2.3,2.4C236.7,497.6,237.7,498.7,239,498.7z"
		/>
	<path class="st11" d="M188.3,475.1v-52h-7.5v52c-29.1,0.8-46.8,11.7-50.4,14.1c-0.2,0.1-0.4,0.3-0.5,0.6c-0.1,0.2-0.2,0.5-0.2,0.7
		v4.3c0,0.4,0.1,0.8,0.4,1.1s0.6,0.5,1,0.5c0.3,0,0.5-0.1,0.8-0.2c0.2-0.1,0.4-0.3,0.5-0.6l1.7-3.2c15.1-5.2,30.8-7.9,46.7-8.3v8.6
		c0,0.5,0.2,1,0.6,1.4c0.3,0.4,0.8,0.6,1.3,0.6h3.8c0.5,0,1-0.2,1.3-0.6c0.3-0.4,0.5-0.9,0.5-1.4V484c15.8,0.3,31.6,3.1,46.7,8.3
		l1.7,3.2c0.1,0.2,0.3,0.4,0.6,0.6c0.2,0.1,0.5,0.2,0.7,0.2c0.4,0,0.7-0.2,1-0.5s0.4-0.7,0.4-1.1v-4.3c0-0.3-0.1-0.5-0.2-0.7
		s-0.3-0.4-0.5-0.6C235.2,486.8,217.4,475.9,188.3,475.1z"/>
	<path class="st7" d="M188.3,475.1v-52h-7.5v52c-29.1,0.8-46.8,11.7-50.4,14.1c-0.2,0.1-0.4,0.3-0.5,0.6c-0.1,0.2-0.2,0.5-0.2,0.7
		v4.3c0,0.4,0.1,0.8,0.4,1.1s0.6,0.5,1,0.5c0.3,0,0.5-0.1,0.8-0.2c0.2-0.1,0.4-0.3,0.5-0.6l1.7-3.2c15.1-5.2,30.8-7.9,46.7-8.3v8.6
		c0,0.5,0.2,1,0.6,1.4c0.3,0.4,0.8,0.6,1.3,0.6h3.8c0.5,0,1-0.2,1.3-0.6c0.3-0.4,0.5-0.9,0.5-1.4V484c15.8,0.3,31.6,3.1,46.7,8.3
		l1.7,3.2c0.1,0.2,0.3,0.4,0.6,0.6c0.2,0.1,0.5,0.2,0.7,0.2c0.4,0,0.7-0.2,1-0.5s0.4-0.7,0.4-1.1v-4.3c0-0.3-0.1-0.5-0.2-0.7
		s-0.3-0.4-0.5-0.6C235.2,486.8,217.4,475.9,188.3,475.1z"/>
	<path class="st11" d="M186,491.5h-2.9c-0.6,0-1,0.5-1,1.1v7.5c0,0.6,0.4,1.1,1,1.1h2.9c0.5,0,1-0.5,1-1.1v-7.5
		C187,491.9,186.5,491.5,186,491.5z"/>
	<path class="st12" d="M186,491.5h-2.9c-0.6,0-1,0.5-1,1.1v7.5c0,0.6,0.4,1.1,1,1.1h2.9c0.5,0,1-0.5,1-1.1v-7.5
		C187,491.9,186.5,491.5,186,491.5z"/>
	<path class="st5" d="M135.5,371.8h98.1c2.7,0,5.3,1.1,7.2,3.2c1.9,2,3,4.8,3,7.7v6.6H125.3v-6.6c0-2.9,1.1-5.6,3-7.7
		C130.2,372.9,132.8,371.8,135.5,371.8z"/>
	<path class="st11" d="M167.5,328.5h65.2c0.8,0,1.6,0.1,2.3,0.5c0.7,0.4,1.4,0.9,1.9,1.6c0.5,0.7,0.8,1.5,1,2.3s0.2,1.7-0.1,2.5
		L226,389.2h-2.7l9.9-47.2c0.2-0.8,0.2-1.7,0-2.5s-0.5-1.6-1-2.2c-0.5-0.7-1.1-1.2-1.8-1.5c-0.7-0.4-1.5-0.5-2.3-0.5h-59.4
		L167.5,328.5z"/>
	<path class="st11" d="M192.2,391.2v45.5c0,0.7-0.3,1.4-0.7,1.9c-0.5,0.5-1.1,0.8-1.8,0.8h-10.4c-0.3,0-0.7-0.1-0.9-0.2
		c-0.3-0.1-0.6-0.3-0.8-0.6s-0.4-0.5-0.5-0.9c-0.1-0.3-0.2-0.7-0.2-1v-45.5H192.2z"/>
	<path class="st7" d="M192.3,391.2h-15.4v18.9h15.4V391.2z"/>
	<path class="st11" d="M247,386.5v5.5c0,0.7-0.3,1.4-0.8,1.9s-1.1,0.8-1.8,0.8H124.7c-0.7,0-1.3-0.3-1.8-0.8s-0.8-1.2-0.8-1.9v-5.5
		c0-0.7,0.3-1.4,0.8-1.9s1.1-0.8,1.8-0.8h119.7c0.7,0,1.3,0.3,1.8,0.8C246.7,385,247,385.7,247,386.5z"/>
	<path class="st11" d="M191.9,389.3H122c0,0-22.2-39.5-22.2-104.7v-24c0-4.7,1.8-9.3,4.9-12.7s7.4-5.2,11.8-5.2h29.6
		c4.3,0,8.5,1.8,11.7,5c3.1,3.2,4.9,7.7,5.1,12.3C163.7,293.7,168.3,366.5,191.9,389.3z"/>
	<path class="st7" d="M247,386.5v5.5c0,0.7-0.3,1.4-0.8,1.9s-1.1,0.8-1.8,0.8h-53.7c-0.9,0-1.8-0.4-2.5-1.1c-0.7-0.7-1-1.7-1-2.7
		v-3.5c0-1,0.4-2,1-2.7c0.7-0.7,1.6-1.1,2.5-1.1h53.7c0.3,0,0.7,0.1,1,0.2c0.3,0.1,0.6,0.3,0.8,0.6c0.2,0.3,0.4,0.6,0.6,0.9
		C246.9,385.7,247,386.1,247,386.5z"/>
</g>
</svg>
