<?xml version="1.0" encoding="utf-8"?>
<!-- Generator: Adobe Illustrator 24.3.0, SVG Export Plug-In . SVG Version: 6.00 Build 0)  -->
<svg version="1.1" id="Layer_1" xmlns="http://www.w3.org/2000/svg" xmlns:xlink="http://www.w3.org/1999/xlink" x="0px" y="0px"
	 viewBox="0 0 594 802.3" style="enable-background:new 0 0 594 802.3;" xml:space="preserve">
<g>
	<path d="M292.8,572.9c-18.7,0-39.3,0-59.9,0c-3.7,0-5.6,0-5.6-3.7c0-26.2,0-52.4,3.7-78.6c7.5-37.4,22.4-69.2,48.6-95.4
		c24.3-24.3,50.5-44.9,76.7-65.5c15-13.1,29.9-26.2,44.9-39.3c35.6-35.5,35.6-87.9,3.7-123.5c-18.7-18.7-41.1-31.8-65.5-35.5
		c-29.9-5.6-58-5.6-84.2,3.7c-39.3,11.2-63.6,37.4-80.5,73c-5.6,13.1-11.2,26.2-13.1,41.2c-1.9,3.7-3.7,3.7-5.6,3.7
		c-43-5.6-84.2-9.4-125.3-15c-3.7,0-3.7-1.9-3.7-3.7c3.7-48.6,22.4-91.7,56.1-127.2c41.1-44.9,93.6-71.1,155.3-80.5
		c59.9-9.4,117.9-5.6,174,13.1c58,18.7,102.9,54.3,132.8,106.6c35.6,59.9,33.7,134.7-15,194.6c-24.3,28.1-50.5,52.4-78.6,76.7
		c-18.7,16.8-37.4,31.8-56.1,48.6c-9.4,9.4-20.6,20.6-26.2,33.7c-5.6,13.1-7.5,28.1-9.4,43c0,11.2,0,22.5,0,33.7
		c0,3.7-1.9,5.6-5.6,3.7C334,572.9,313.4,572.9,292.8,572.9z"/>
	<path d="M294.7,763.7c-20.6,0-41.1,0-61.8,0c-3.7,0-5.6,0-5.6-3.7c0-41.2,0-82.3,0-121.6c0-3.7,1.9-3.7,5.6-3.7
		c41.1,0,82.3,0,125.3,0c3.7,0,3.7,1.9,3.7,3.7c0,41.2,0,82.3,0,121.6c0,3.7-1.9,3.7-3.7,3.7C335.9,763.7,315.3,763.7,294.7,763.7z"
		/>
</g>
</svg>
