<?xml version="1.0" encoding="utf-8"?>
<!-- Generator: Adobe Illustrator 24.3.0, SVG Export Plug-In . SVG Version: 6.00 Build 0)  -->
<svg version="1.1" id="Layer_1" xmlns="http://www.w3.org/2000/svg" xmlns:xlink="http://www.w3.org/1999/xlink" x="0px" y="0px"
	 viewBox="0 0 858.2 800.7" style="enable-background:new 0 0 858.2 800.7;" xml:space="preserve">
<style type="text/css">
	.st0{fill:#FFFFFF;stroke:#00000;}
	.st1{clip-path:url(#SVGID_2_);}
</style>
<g>
	<path class="st0" d="M846.5,396.5C846.5,614.6,659.3,793,428,793S9.5,614.6,9.5,396.5S196.7,0,428,0S846.5,178.4,846.5,396.5z"/>
	<g>
		<g>
			<defs>
				<rect id="SVGID_1_" x="152.7" y="121.2" width="528.7" height="550.7"/>
			</defs>
			<clipPath id="SVGID_2_">
				<use xlink:href="#SVGID_1_"  style="overflow:visible;"/>
			</clipPath>
			<g class="st1">
				<path d="M430.2,121.2c22,4.4,44.1,6.6,66.1,15.4c101.3,39.7,160.8,114.5,174,226.9c0,15.4,0,30.8,0,46.3
					c-13.2-6.6-17.6-13.2-17.6-28.6C652.7,259.9,558,154.2,439,141c-127.8-13.2-244.5,77.1-264.3,204.9
					c-13.2,83.7,11,154.2,68.3,213.7c6.6,6.6,11,6.6,17.6,2.2c22-13.2,44.1-26.4,66.1-37.4c17.6-8.8,24.2-37.4,15.4-55.1
					c-13.2-22-26.4-46.3-35.2-70.5c-8.8-22-6.6-46.3,2.2-66.1c2.2-4.4,2.2-8.8,2.2-13.2c0-13.2,2.2-24.2,0-37.4
					c-2.2-44.1,28.6-70.5,59.5-79.3c30.8-6.6,59.5-6.6,90.3,2.2c26.4,8.8,52.9,35.2,52.9,72.7c-2.2,11-2.2,19.8,0,30.8
					c0,8.8,4.4,19.8,4.4,28.6c2.2,19.8,0,41.9,0,61.7c0,2.2-2.2,4.4-4.4,6.6c-19.8,17.6-26.4,44.1-39.6,66.1c-6.6,11,0,28.6,0,44.1
					l2.2,2.2c-4.4,4.4-11,11-17.6,17.6c-19.8,15.4-28.6,35.2-33,57.3c-2.2,15.4-6.6,30.8-11,46.3c-2.2,8.8-6.6,11-15.4,11
					c-59.5-4.4-112.3-24.2-158.6-66.1c-50.7-48.5-81.5-105.7-85.9-178.4c0-2.2-2.2-4.4-2.2-8.8v-26.4c0-6.6,2.2-13.2,2.2-19.8
					c17.6-103.5,72.7-176.2,169.6-213.7c19.8-8.8,41.9-11,63.9-17.6h41.9V121.2z"/>
				<path d="M681.3,480.2c-4.4,6.6-8.8,13.2-13.2,19.8C624.1,544.1,580,590.3,536,634.4c-6.6,4.4-13.2,8.8-19.8,13.2
					c-15.4,4.4-33,8.8-48.5,13.2c-8.8,2.2-15.4,6.6-22,11H439c-4.4-6.6-4.4-11-2.2-17.6c6.6-15.4,13.2-30.8,15.4-46.3
					c4.4-19.8,15.4-39.7,30.8-52.9c41.9-39.7,81.5-83.7,121.2-123.4c15.4-13.2,28.6-15.4,41.9,0c13.2,13.2,30.8,24.2,35.2,44.1
					L681.3,480.2L681.3,480.2z M580,484.6l-94.7,96.9l37.5,39.7l96.9-96.9L580,484.6z M632.9,508.8c8.8-8.8,17.6-17.6,26.4-24.2
					c4.4-4.4,4.4-8.8,0-15.4c-8.8-8.8-17.6-17.6-26.4-26.4c-2.2-2.2-11-2.2-13.2,0c-8.8,8.8-17.6,17.6-26.4,26.4L632.9,508.8z
					 M463.2,643.2l39.6-11l-28.6-30.8L463.2,643.2z"/>
			</g>
		</g>
	</g>
</g>
</svg>
