<?xml version="1.0" encoding="utf-8"?>
<!-- Generator: Adobe Illustrator 24.3.0, SVG Export Plug-In . SVG Version: 6.00 Build 0)  -->
<svg version="1.1" id="Layer_1" xmlns="http://www.w3.org/2000/svg" xmlns:xlink="http://www.w3.org/1999/xlink" x="0px" y="0px"
	 viewBox="0 0 992.2 1039.5" style="enable-background:new 0 0 992.2 1039.5;" xml:space="preserve">
<style type="text/css">
	.st0{fill:#EBEBEB;}
	.st1{fill:#FFFFFF;}
	.st2{fill:#DBDBDB;}
	.st3{fill:#C7C7C7;}
	.st4{fill:#263238;}
	.st5{fill:#455A64;}
	.st6{fill:#D3766A;}
	.st7{fill:#FF98B9;}
	.st8{fill:#37474F;}
	.st9{opacity:0.1;fill:#030402;enable-background:new    ;}
	.st10{opacity:0.1;enable-background:new    ;}
</style>
<g>
	<path class="st0" d="M894.4,680.7l31.1,0.6l15.9,0.2c5.3,0.2,10.6,0,15.9,0.2h1.1v-1.1v-26.5V653h-1.1l-31.3,0.2
		c-10.6,0-21,0.2-31.5,0.4h-0.6v0.6c0,4.4,0.2,8.9,0.4,13.3L894.4,680.7z M894.4,680.7l0.4-13.3c0-4.4,0.2-8.7,0.2-13.1l-0.6,0.6
		c10.6,0.2,21,0.4,31.5,0.4l31.3,0.2l-1.3-1.3v26.5l1.1-1.1c-5.1,0-10.4,0-15.5,0.2l-15.7,0.2L894.4,680.7z"/>
	<path class="st0" d="M929.5,714.2l30.9,0.6l15.9,0.2c5.3,0.2,10.6,0,15.9,0.2h1.1v-1.1v-26.5v-1.3h-1.1l-31.3,0.2
		c-10.6,0-21,0.2-31.3,0.4h-0.6v0.6c0,4.4,0,8.9,0.2,13.3L929.5,714.2z M929.5,714.2l0.2-13.3c0.2-4.4,0.2-8.7,0.4-13.1l-0.6,0.6
		c10.4,0.2,20.7,0.4,31.3,0.4l31.3,0.2l-1.3-1.3l0.2,26.5l1.1-1.1c-5.3,0-10.4,0-15.5,0.2l-15.7,0.2L929.5,714.2z"/>
	<path class="st0" d="M104.2,399.1l30.9,0.6L151,400c5.3,0,10.6,0,15.9,0.2h1.1v-1.1v-26.5v-1.3h-1.1l-31.3,0.2
		c-10.6,0-21,0.2-31.3,0.4h-0.6v0.6c0,4.4,0,8.9,0.2,13.3L104.2,399.1z M104.2,399.1l0.2-13.3c0.2-4.4,0.2-8.7,0.4-13.1l-0.6,0.6
		c10.4,0.2,20.7,0.4,31.3,0.4l31.3,0.2l-1.3-1.3l0.2,26.5l1.1-1.1c-5.3,0-10.4,0-15.5,0.2l-15.7,0.2L104.2,399.1z"/>
	<path class="st0" d="M139.1,432.4l31.1,0.6l15.7,0.2c5.3,0,10.6,0,15.9,0h1.1v-1.1l0.2-26.5v-1.3h-1.3l-31.3,0.2
		c-10.6,0-21,0.2-31.3,0.4h-0.6v0.6c0,4.4,0.2,8.9,0.2,13.3L139.1,432.4z M139.1,432.4l0.2-13.3c0-4.4,0.4-8.7,0.4-13.1l-0.6,0.6
		c10.4,0,21,0.4,31.3,0.4l31.3,0.2l-1.3-1.3l0.2,26.5l1.1-1.1c-5.1,0-10.4,0-15.5,0.2l-15.7,0.2L139.1,432.4z"/>
	<path class="st0" d="M173.8,399.1l31.1,0.6l15.9,0.2c5.3,0,10.6,0,15.9,0.2h1.1v-1.1v-26.5v-1.3h-1.1l-31.3,0.2
		c-10.6,0-21,0.2-31.5,0.4h-0.6v0.6c0,4.4,0.2,8.9,0.4,13.3L173.8,399.1z M173.8,399.1l0.4-13.3c0-4.4,0.2-8.7,0.2-13.1l-0.6,0.6
		c10.6,0.2,21,0.4,31.5,0.4l31.3,0.2l-1.3-1.3l0.2,26.5l1.1-1.1c-5.3,0-10.4,0-15.7,0.2l-15.5,0.2L173.8,399.1z"/>
	<path class="st0" d="M3.8,714.2l31.1,0.6l15.7,0.2c5.3,0.2,10.6,0,15.9,0.2h1.1v-1.1l0.2-26.5v-1.3h-1.3l-31.3,0.2
		c-10.4,0-21,0.2-31.3,0.4H3.2v0.6c0,4.4,0.2,8.9,0.2,13.3L3.8,714.2z M3.8,714.2L4,700.8c0-4.4,0.4-8.7,0.4-13.1l-0.6,0.6
		c10.4,0.2,21,0.4,31.3,0.4l31.3,0.2l-1.3-1.3l0.2,26.5l1.1-1.1c-5.1,0-10.4,0-15.5,0.2l-15.7,0.2L3.8,714.2z"/>
	<path class="st0" d="M38.7,45.3L69.9,46l15.7,0.2c5.3,0,10.6,0,15.9,0h1.1v-1.1V18.6v-1.3h-1.3l-31.3,0.2c-10.4,0-21,0.2-31.3,0.4
		h-0.6v0.6c0,4.4,0.2,8.9,0.2,13.3L38.7,45.3z M38.7,45.3L39.2,32c0-4.4,0.2-8.7,0.2-13.1l-0.6,0.6c10.4,0,21,0.4,31.3,0.4l31.3,0.2
		l-1.1-1.3v26.5l1.1-1.1c-5.1,0-10.2,0-15.5,0.2l-15.7,0.2L38.7,45.3z"/>
	<path class="st0" d="M3.8,78.6l31.1,0.6l15.7,0.2c5.3,0,10.6,0,15.9,0h1.1v-0.8l0.2-26.5v-1.3h-1.3L35.2,51
		c-10.4,0-21,0.2-31.3,0.4H3.2v0.6c0,4.4,0.2,8.9,0.2,13.3L3.8,78.6z M3.8,78.6L4,65.2c0-4.4,0.4-8.7,0.4-13.1l-0.6,0.6
		c10.4,0,21,0.4,31.3,0.4l31.3,0.2l-1.3-1.1l0.2,26.5l1.1-1.1c-5.1,0-10.4,0-15.5,0l-15.7,0.2L3.8,78.6z"/>
	<path class="st0" d="M929.5,45.3l30.9,0.6l15.9,0.2c5.3,0,10.6,0,15.9,0h1.1v-1.1V18.6v-1.3h-1.1l-31.3,0.2
		c-10.6,0-21,0.2-31.3,0.4h-0.6v0.6c0,4.4,0,8.9,0.2,13.3L929.5,45.3z M929.5,45.3l0.2-13.3c0.2-4.4,0.2-8.7,0.4-13.1l-0.6,0.6
		c10.4,0,20.7,0.4,31.3,0.4l31.3,0.2l-1.3-1.3l0.2,26.5l1.1-1.1c-5.3,0-10.4,0-15.5,0.2l-15.7,0.2L929.5,45.3z"/>
	<path class="st1" d="M29,65.6h116.5v116.2H29V65.6z"/>
	<path class="st2" d="M151.4,59.7v128.5H23.1V59.7H151.4z M29,182.1h116.5V65.9H29V182.1z"/>
	<path class="st0" d="M37.5,159.4v-40.2h90.6v40.2H37.5z"/>
	<path class="st3" d="M63.9,147.2v-46.4h46.6v46.4H63.9z"/>
	<path class="st3" d="M18,59.7h5.1v128.5H18V59.7z"/>
	<path class="st1" d="M29,230.8h116.5V347H29V230.8z"/>
	<path class="st3" d="M95.1,249.4h30.3v87.7H95.1V249.4z"/>
	<path class="st2" d="M151.4,224.9v128.5H23.1V224.9H151.4z M29,347.3h116.5V231H29V347.3z"/>
	<path class="st0" d="M63.9,265.7h46.6v46.4H63.9V265.7z"/>
	<path class="st3" d="M18,224.9h5.1v128.5H18V224.9z"/>
	<path class="st1" d="M29,396h116.5v116.2H29V396z"/>
	<path class="st0" d="M68.6,411.8h63.9v38.1H68.6V411.8z"/>
	<path class="st2" d="M151.4,390v128.5H23.1V390H151.4z M29,512.4h116.5V396.2H29V512.4z"/>
	<path class="st3" d="M63.9,430.9h46.6v46.4H63.9V430.9z"/>
	<path class="st3" d="M18,390h5.1v128.5H18V390z"/>
	<path class="st0" d="M676.9,49.3h298.3v457.3H676.9V49.3z"/>
	<path class="st1" d="M833,67.6h126V271H833V67.6z"/>
	<path class="st1" d="M693.2,67.6h126V271h-126V67.6z"/>
	<path class="st1" d="M833,284.8h126v203.5H833V284.8z"/>
	<path class="st1" d="M693.2,284.8h126v203.5h-126V284.8z"/>
	<path class="st2" d="M904.5,49.3h70.7v654.3h-70.7V49.3z"/>
	<path class="st0" d="M917.9,80.5l-0.4,70.7l-0.2,70.7l-0.4,141.4l0.4,141.4l0.2,70.7l0.4,70.7l0.6-70.7l0.2-70.7l0.4-141.4
		l-0.4-141.4l-0.2-70.7L917.9,80.5z"/>
	<path class="st0" d="M950.5,96.8l-0.6,63.1l-0.2,63.1l-0.4,126.4l0.4,126.4l0.2,63.1l0.6,63.3l0.4-63.3l0.4-63.1l0.2-126.4
		L951.3,223l-0.4-63.1L950.5,96.8z"/>
	<path class="st0" d="M934.2,111.8l-0.6,73.9l-0.2,73.9l-0.2,148l0.2,148l0.2,73.9l0.6,73.9l0.6-73.9v-73.9l0.4-148l-0.4-148
		l-0.2-73.9L934.2,111.8z"/>
	<path class="st0" d="M962.5,84.1l-0.6,77.5l-0.2,77.5l-0.4,154.8l0.4,154.8l0.2,77.5l0.6,77.5l0.4-77.5l0.2-77.5l0.4-154.8
		l-0.4-154.8l-0.2-77.5L962.5,84.1z"/>
	<path class="st2" d="M747.6,703.6h-70.7V49.3h70.7V703.6z"/>
	<path class="st0" d="M734.1,80.5l-0.4,70.7l-0.2,70.7L733,363.3l0.4,141.4l0.2,70.7l0.4,70.7l0.6-70.7l0.2-70.7l0.4-141.4
		l-0.4-141.4l-0.2-70.7L734.1,80.5z"/>
	<path class="st0" d="M701.7,96.8l-0.4,63.1l-0.4,63.1l-0.2,126.4l0.2,126.4l0.4,63.1l0.4,63.3l0.6-63.3l0.2-63.1l0.2-126.4
		L702.5,223l-0.2-63.1L701.7,96.8z"/>
	<path class="st0" d="M718,111.8l-0.6,73.9l-0.2,73.9l-0.2,148l0.2,148l0.2,73.9l0.6,73.9l0.4-73.9l0.2-73.9l0.4-148l-0.4-148
		l-0.2-73.9L718,111.8z"/>
	<path class="st0" d="M689.6,84.1l-0.4,77.5l-0.2,77.5l-0.4,154.8l0.4,154.8l0.2,77.5l0.4,77.5l0.6-77.5l0.2-77.5l0.4-154.8
		l-0.4-154.8l-0.2-77.5L689.6,84.1z"/>
	<path class="st0" d="M270.4,177.7c-4,4.7-8.7,8.5-14,11.6c-12.5,7.4-27.5,10-41.7,7c-14.4-3-27.1-11.2-35.6-23.1
		s-12.1-26.7-10.4-41.1c1.9-14.6,9.3-27.7,20.5-37.3c11.2-9.3,25.4-14.2,40-13.6c14.6,0.6,28.4,7,38.7,17.4
		c10.2,10.4,16.1,24.3,16.5,39C285,152.2,279.9,166.6,270.4,177.7L270.4,177.7z"/>
	<path class="st1" d="M241.6,127.9c1.1,3.4,1.1,7,0,10.2c-1.1,3.4-3,6.4-5.7,8.7c-2.5,2.1-5.9,3.6-9.3,4c-3.6,0.4-7.2-0.4-10.2-1.9
		c-3.2-1.7-5.7-4.2-7.4-7.2c-1.5-3-2.3-6.6-1.9-10.2c0.2-3.6,1.7-6.8,3.8-9.5c2.1-2.8,5.1-4.7,8.5-5.7c4.4-1.5,9.3-0.8,13.6,1.3
		C236.9,119.6,240.1,123.5,241.6,127.9z"/>
	<path class="st1" d="M268.3,170.7l2.1,7.2c-4,4.7-8.7,8.5-14,11.4c-6.6,4-14,6.6-21.6,7.6c-7.6,1.1-15.5,0.6-22.9-1.3l-2.1-7
		c-2.5-7.8-1.7-16.1,2.1-23.3c3.8-7.2,10.2-12.5,18-15c7.8-2.5,16.1-1.7,23.3,2.1C260.4,156.5,265.7,162.8,268.3,170.7z"/>
	<path class="st0" d="M203.7,292.8c-5.3,2.5-11,3.6-16.7,2.8c-5.7-0.8-11-3.6-15.2-7.6c-4-4-6.8-9.3-7.6-15
		c-0.8-5.7,0-11.6,2.5-16.7c2.5-5.1,6.8-9.3,11.9-12.1c5.3-2.5,11-3.6,16.7-2.8c5.7,0.8,11,3.6,15.2,7.6c4,4,6.8,9.3,7.6,15
		c1.1,5.7,0,11.6-2.5,16.7C213,286.1,208.8,290.3,203.7,292.8z"/>
	<path class="st1" d="M199.5,266.2c0,1.7-0.6,3.2-1.7,4.4c-1.1,1.3-2.3,2.3-4,2.8c-1.5,0.4-3.2,0.6-4.9,0c-1.5-0.4-3-1.3-4-2.5
		s-1.7-2.8-1.9-4.4c-0.2-1.7,0-3.4,0.8-4.7c0.8-1.5,1.9-2.8,3.4-3.4c1.5-0.8,3-1.3,4.7-1.1c1.1,0,2.1,0.4,3.2,0.8
		c1.1,0.4,1.9,1.3,2.5,2.1s1.3,1.7,1.7,2.8C199.5,263.8,199.7,264.9,199.5,266.2z"/>
	<path class="st1" d="M203.9,289.5l-0.2,3.4c-4.7,2.3-9.7,3.4-14.8,3c-5.1-0.4-10-2.3-14-5.3l0.2-3.4c0.2-1.9,0.6-3.8,1.5-5.5
		c0.8-1.7,2.1-3.2,3.4-4.4c1.5-1.3,3.2-2.1,5.1-2.8c1.7-0.6,3.6-0.8,5.5-0.6c2.1,0.2,3.8,0.6,5.5,1.5c1.7,0.8,3.4,2.1,4.4,3.6
		c1.3,1.5,2.3,3.2,2.8,5.1C203.9,285.4,204.1,287.5,203.9,289.5L203.9,289.5z"/>
	<path class="st0" d="M933.3,792.1c-5.7,0.8-11.6-0.2-16.7-3c-5.1-2.8-9.1-7-11.6-12.1c-2.5-5.3-3.4-11-2.5-16.7
		c1.1-5.7,3.8-11,8-15c4-4,9.5-6.6,15.2-7.4c5.7-0.8,11.4,0.2,16.5,3c5.1,2.8,9.3,7,11.9,12.1c2.5,5.3,3.4,11,2.3,16.7
		c-1.1,5.7-3.8,11-7.8,15C944.3,788.7,939,791.3,933.3,792.1z"/>
	<path class="st1" d="M938.4,765.4c-0.8,1.5-1.9,2.8-3.2,3.6c-1.5,0.8-3,1.3-4.7,1.3c-1.7,0-3.4-0.6-4.7-1.5c-1.3-1.1-2.3-2.3-3-3.8
		c-0.6-1.5-0.8-3.2-0.4-4.9s1.3-3,2.3-4.2c1.3-1.1,2.8-1.9,4.4-2.1c1.5-0.2,3.2-0.2,4.7,0.6c1.1,0.4,1.9,1.1,2.8,1.9
		c0.8,0.8,1.3,1.7,1.7,2.8s0.6,2.1,0.6,3.2C939,763.3,938.8,764.6,938.4,765.4z"/>
	<path class="st1" d="M934.6,788.9l-1.3,3.2c-5.1,0.6-10.2,0-14.8-2.1c-4.7-2.1-8.7-5.3-11.6-9.5l1.5-3.2c0.6-1.7,1.7-3.4,3.2-4.7
		c1.3-1.3,3-2.3,4.7-3c1.9-0.6,3.6-1.1,5.5-1.1c1.9,0,3.8,0.4,5.5,1.3c1.7,0.8,3.4,1.9,4.7,3.2c1.3,1.3,2.3,3,3,4.7
		c0.8,1.7,1.1,3.6,1.1,5.5C935.9,785.3,935.4,787.2,934.6,788.9z"/>
	<path class="st0" d="M498,1012.9c-232.3,0-420.7-18.2-420.7-40.4c0-22.4,188.4-40.4,420.7-40.4s420.5,18.2,420.5,40.4
		C918.5,994.9,730.3,1012.9,498,1012.9z"/>
	<path class="st4" d="M45.7,580.8c9.1-8.9,20.7-19.5,34.5-15.7c12.9,3.6,17.8,17.6,20.1,29.4c3,15.2,5.3,30.5,7.6,45.7
		c2.5,15.2,4.9,30.7,7,46.4c1.3,8.7,2.5,17.4,3.8,26.3c0.6,4.4,1.3,8.7,1.7,13.1c0.6,4.4,1.5,8.5,1.7,12.9c0,1.3-2.1,1.5-2.3,0.2
		c-1.7-7.2-2.5-14.8-3.6-22.2c-1.1-7.4-2.1-14.8-3.2-22.2c-2.1-14.8-4.4-29.4-6.6-44.3c-2.3-14.8-4.7-29.4-7-44.3
		c-1.9-12.5-2.8-27.9-14-36.2c-3-2.1-6.4-3.4-10-3.6c-3.8-0.4-7.4,0.2-10.8,1.7c-7.2,2.8-13.1,8-18.6,13.1
		C45.9,581.2,45.5,581,45.7,580.8z"/>
	<path class="st1" d="M58,571.9c0,0,18.4-6.6,27.5,6.8c9.1,13.3-1.7,47.6-85.5,66.9c2.5-26.3,9.3-51.9,20.1-75.8
		C38.1,530.6,70.1,545.4,58,571.9z"/>
	<path class="st4" d="M4.9,639.9c1.3-2.3,2.8-4.7,4.2-6.8s2.8-4.2,4.2-6.4c1.1-1.7,2.1-3.2,3.2-4.7c0-0.4,0-0.8,0-1.3l-0.4-2.1
		c-0.2-1.7-0.4-3.2-0.6-4.7c-0.2-1.5-0.4-3.2-0.6-4.7c-0.2-1.7-0.6-3.4-1.3-4.9c0-0.2,0.4-0.4,0.4,0c0.2,0.8,0.4,1.7,0.8,2.5
		c0.2,0.6,0.4,1.5,0.6,2.1c0.2,1.7,0.6,3.2,1.1,4.7c0.4,1.5,0.6,3,0.8,4.4c0.2,0.6,0.2,1.5,0.4,2.1c1.5-2.1,3-4.2,4.4-6.4
		c4.4-5.9,9.3-11.4,14-16.9c0,0,0,0,0-0.2c-0.4-8.9-0.2-17.6-2.1-26.3c0-0.2,0.4-0.4,0.4,0c2.1,8.3,3.2,16.5,3.2,25
		c1.7-1.9,3.4-3.8,5.3-5.7c4-4.4,8.3-8.7,12.3-12.9c0.2,0,0.2,0,0.2,0h0.2c0,0,0,0,0,0.2v0.2c-7.2,7.6-13.8,15.5-20.3,23.5
		c5.1,0,10.2,0.2,15.2,0.6c5.7,0.4,11.4,1.3,16.9,1.9c0.4,0,0.2,0.4,0,0.4c-5.5-0.8-11.2-1.3-16.9-1.5c-5.3-0.2-10.8,0-16.3,0
		c-3.4,4.4-7,8.7-10.4,13.1h0.8c1.3,0,2.5,0,3.8,0c2.5,0,5.1,0.2,7.6,0.4c5.1,0.4,10.4,1.3,15.5,2.3l0,0c0.2,0,0.2,0,0.2,0.2
		c0,0,0,0-0.2,0.2l0,0c-5.3-0.6-10.4-1.1-15.5-1.3c-2.5,0-5.1,0-7.4,0H25c-0.8,0-1.5,0-2.1-0.2c-2.3,3-4.7,5.9-6.8,8.7
		c-1.9,2.3-3.6,4.7-5.3,7.2c-1.7,2.3-3.4,5.1-5.3,7.4l-0.2,0.2c-0.2,0-0.2,0-0.2,0c-0.2,0-0.2-0.2-0.2-0.2S4.9,640.1,4.9,639.9z"/>
	<path class="st4" d="M50.2,591c3-0.4,5.9-0.4,8.9-0.4s5.9,0,8.9,0.2h0.2l0,0l0,0c0,0,0,0,0,0.2l0,0l0,0l0,0H68
		c-3-0.2-5.9-0.2-9.1-0.2C55.9,590.7,53.1,591.2,50.2,591C50,591,50,591,50.2,591z"/>
	<path class="st4" d="M23.7,597.7c-0.2-2.8-0.6-5.7-1.3-8.5l0,0l0,0c0.2,0,0.2,0,0.2,0l0,0c0,0,0,0,0.2,0l0,0l0,0l0,0
		c0.4,2.8,1.1,5.5,1.5,8.5c0.2,1.5,0.4,2.8,0.4,4.2c0.2,1.3,0.4,2.5,0.4,4c0,0.2-0.4,0.2-0.4,0c-0.4-1.3-0.4-2.5-0.4-4
		C24.1,600.3,23.9,599,23.7,597.7z"/>
	<path class="st4" d="M29.2,566c0.8,2.8,1.5,5.5,2.1,8.5c0.2,1.5,0.4,3,0.6,4.2c0.2,1.5,0.4,2.8,0.2,4.2c0,0.2-0.2,0.2-0.2,0
		c-0.2-1.3-0.4-2.5-0.6-4c-0.2-1.5-0.4-2.8-0.6-4.2c-0.4-3-1.1-5.7-1.7-8.7C29,565.8,29.2,565.8,29.2,566z"/>
	<path class="st4" d="M138.3,735.8c0.6-5.3,1.1-10.6,1.7-15.9c1.1-10.4,2.3-20.7,3.6-31.3c1.5-10.4,2.8-20.7,4.4-31.1
		c0.6-4.9,1.7-9.5,3.2-14.2c0.6-1.9,1.7-3.8,3-5.3c1.3-1.5,3-2.8,4.9-3.6c10-3.4,16.7,6.8,20.5,14c0.2,0.2-0.2,0.4-0.4,0.2
		c-2.3-3.4-8.9-13.1-16.3-12.7c-5.1,0.2-9.1,3.8-11.4,16.5c-6.1,31.3-11.4,94.6-12.1,98.9c-0.4,2.1-1.9,2.1-1.9-0.2
		C137.2,746.2,138.1,740.9,138.3,735.8z"/>
	<path class="st1" d="M176.8,645c0,0-8.5-30.5,10.6-15.2c31.5,25.2,32.8,80.2,32.8,80.2s-56.3-32.8-63.5-54.2
		C146.3,623.6,176.8,645,176.8,645z"/>
	<path class="st4" d="M166.2,659.8c4.4,0.8,8.9,1.5,13.3,2.1l6.4,0.8c1.5,0.2,3,0.4,4.2,0.4c-4-5.7-8.3-11.4-12.3-17.4
		c-0.2-0.2,0.2-0.4,0.2-0.2c3.4,3.4,6.6,7,9.5,10.8l2.5-7c1.1-2.8,1.9-5.5,2.5-8.3c0-0.2,0.4,0,0.4,0.2c-0.8,2.8-1.3,5.5-2.1,8.5
		c-0.6,2.8-1.5,5.3-2.5,8c2.1,2.8,4.2,5.5,6.1,8.3c0.8-2.8,2.1-5.5,3-8.3l0,0c0.2,0,0.2,0,0.2,0s0,0,0.2,0c0,0,0,0,0,0.2
		c-1.1,3.2-1.7,6.4-2.5,9.5c1.3,1.9,2.5,3.8,3.8,5.7c2.3,3.6,4.4,7.2,6.6,10.8c0,0,0.2,0.2,0.4,0.4c0,0.2,0,0.4,0,0.4
		c3.6,6.1,7,12.5,10.4,18.6c0,0,0,0,0,0.2h-0.2l0,0c-0.2,0-0.2,0-0.2,0c-3.4-6.1-7.2-12.3-11-18.2c-0.4-0.2-1.1-0.2-1.7-0.4
		l-2.1-0.4c-1.3-0.4-2.8-0.6-4.2-1.1c-3-0.6-5.7-1.3-8.7-1.9c-0.2,0,0-0.4,0-0.4c3.4,0.6,7,1.1,10.4,1.5c1.7,0.2,3.2,0.4,4.9,0.6
		h0.2c-2.1-3.2-4-6.1-6.1-9.1c-2.1-3-4.2-5.9-6.4-8.9c-1.9-0.2-3.8-0.8-5.7-1.1l-6.6-1.3c-4.4-0.8-8.7-1.9-13.1-2.5
		C165.8,660.2,166,659.8,166.2,659.8z"/>
	<path class="st4" d="M200.1,662.7c0.2-0.8,0.4-1.7,0.8-2.3c0.4-1.7,0.8-3.4,1.3-5.1c0-0.2,0.4,0,0.2,0c-0.2,1.7-0.6,3.4-1.1,5.1
		c-0.4,1.7-0.8,3.4-1.5,5.1c0,0,0,0,0,0.2c-0.2,0-0.2,0-0.2,0s0,0-0.2,0l0,0h-0.2c0,0,0,0,0-0.2c0-0.2,0,0,0-0.2s0,0,0-0.2
		C199.5,664.4,199.9,663.6,200.1,662.7z"/>
	<path class="st4" d="M160.5,652.8c2.5,0.4,5.1,0.6,7.6,0.8c2.8,0.2,5.3,0.6,7.8,1.1c0.2,0,0.2,0.2,0,0.2c-2.5-0.2-5.3-0.4-7.8-0.6
		c-2.5-0.4-5.1-0.8-7.6-0.8C160.3,653.2,160.3,652.8,160.5,652.8z"/>
	<path class="st4" d="M97,697.2c0.8-22.4,2.3-44.7,4.7-67.1c1.1-11,2.3-22.2,4-33.2c1.3-10.8,3.4-21.6,6.1-32.2
		c2.1-8.3,5.7-15.9,10.8-22.7c2.5-3.2,5.7-5.9,9.5-7.6c3.8-1.7,8-2.3,12.1-1.9c10,1.3,17.8,7.4,24.6,14.2
		c7.6,7.6,14.6,15.7,21.8,23.7l5.3,6.1c0.2,0.2,0,0.4-0.2,0.2c-7-8-14.2-15.7-21.8-23.1c-7-6.8-14.2-14.2-23.7-17.2
		c-4.4-1.5-9.1-1.5-13.8-0.4c-3.6,1.1-6.8,3.2-9.3,5.9c-5.3,5.9-8.9,13.1-10.8,20.8c-5.9,20.5-8,42.1-10.4,63.3
		c-2.1,21.2-3.8,43.2-4.9,64.8c-1.1,21.6-1.9,43.6-4,65.4c-0.2,2.8-0.6,5.3-1.1,8c-0.2,1.7-3,1.7-2.8,0
		C94.9,742.1,95.9,719.9,97,697.2z"/>
	<path class="st1" d="M170,549.2c0,0-12.7-23.7,2.3-31.3c15.2-7.6,65.6,48.9,80.7,131.3c0,0-81.7-36.2-109.5-72.2
		C115.8,541.2,147.2,533.2,170,549.2z"/>
	<path class="st4" d="M158,568.5c9.3,0,18.4-0.6,27.5-0.6c-1.7-1.9-3.4-4-5.1-5.9c-2.5-2.5-4.9-5.5-7.2-8.3c0-0.2,0.2-0.4,0.4-0.2
		c2.5,2.1,4.9,4.4,7,7c2.3,2.3,4.4,4.9,6.8,7.4c3.6,3.8,7,7.6,10.4,11.4c0-0.4,0-0.6,0-1.1c0-1.7,0-3.2,0-4.7c0-3.2,0-6.1-0.2-9.3
		c0-6.4,0-12.7-0.4-18.8c0-0.2,0.4-0.2,0.4,0c0.4,6.4,1.1,12.7,1.5,18.8c0,3.2,0.2,6.1,0.2,9.3c0,1.7,0,3.2,0,4.7c0,0.8,0,1.7,0,2.8
		l1.7,1.9c7.2,8.3,14.2,16.9,21,25.8c0-0.4,0-1.1,0.2-1.5c0-1.1,0.2-1.9,0.2-3c0.2-2.1,0.6-4.2,0.8-6.4c0.2-2.1,0.6-4,0.8-5.9
		c0.4-1.9,1.1-4.4,1.3-6.6c0,0,0,0,0-0.2c0-0.2,0,0,0,0c0.2,0,0.2,0,0.2,0s0,0,0,0.2c-0.4,2.3-0.6,4.4-0.6,6.8l-0.6,6.1
		c-0.2,1.9-0.4,4-0.6,6.1c0,0.8-0.2,1.9-0.2,3c0,0.4,0,1.1-0.2,1.5c0,0.4-0.2,0.8-0.4,1.3l3.6,4.4c4.7,6.1,9.1,12.3,13.8,18.6
		c0,0.2-0.2,0.4-0.4,0.2c-4.2-5.5-8.7-11.2-13.1-16.5c-3.4,0.2-6.8,0-10.2-0.2c-3.4-0.2-7.2,0-10.6,0c-0.2,0-0.2-0.4,0-0.4
		c3.4,0,7,0,10.6,0c3.4,0,6.6-0.2,9.7,0c-4-4.7-8-9.5-11.9-14.4c-1.5-1.7-3-3.4-4.4-5.3c-1.3,0.2-2.8,0.2-4,0.2h-4.7
		c-3.2,0-6.1,0-9.1-0.2c-6.4,0-12.5-0.2-18.8-0.4c-0.2,0-0.2-0.4,0-0.4c6.4,0,12.5-0.4,18.8-0.4l9.1-0.2h4.7c0.8,0,1.9,0,2.8,0
		c-3.4-4-6.8-8.3-10.2-12.3c-0.2,0-0.2,0-0.2,0s0,0,0-0.2c-3.4-4-6.8-7.8-10.2-11.9l-1.5-1.7c-9.3,0.2-18.8-0.4-28.4-0.2l0,0
		C158,568.7,158,568.7,158,568.5C158,568.7,158,568.5,158,568.5L158,568.5z"/>
	<path class="st4" d="M162.6,584.6h2.3c0,0,0,0,0.2,0c0,0,0,0,0,0.2c0,0,0,0,0,0.2c-0.2,0-0.2,0-0.2,0h-2.3l0,0
		C162.6,584.8,162.6,584.8,162.6,584.6C162.6,584.8,162.6,584.8,162.6,584.6C162.6,584.8,162.6,584.6,162.6,584.6z"/>
	<path class="st4" d="M167.7,584.6c3,0,5.9,0,8.7-0.2l4.4-0.2c1.5-0.2,2.8-0.2,4.2,0l0,0l0,0c0,0,0,0,0,0.2c0,0.2,0,0,0,0
		c-1.5,0.2-2.8,0.4-4.2,0.2h-4.2H167.7C167.7,584.8,167.7,584.8,167.7,584.6C167.7,584.8,167.7,584.8,167.7,584.6z"/>
	<path class="st4" d="M193.3,612.3c5.9-1.1,12.1-1.5,18-1.7v0.2c-5.9,0.6-11.9,0.8-17.8,1.9C193.1,612.6,193.1,612.3,193.3,612.3z"
		/>
	<path class="st4" d="M217.9,585.9c0-0.4,0.2-1.1,0.2-1.5c0.2-1.3,0.2-2.3,0.4-3.6c0.4-2.3,0.8-4.4,1.3-6.8c0-0.2,0.4-0.2,0.4,0
		c-0.4,2.3-0.6,4.7-0.8,7c0,1.1-0.2,2.3-0.2,3.4s-0.2,2.1-0.4,3.2c-0.2,0-0.2,0.2-0.2,0.2c-0.2,0-0.2,0-0.4,0c0,0,0,0-0.2-0.2v-0.2
		C217.7,587.1,217.7,586.5,217.9,585.9z"/>
	<path class="st4" d="M97.6,518.8c3-5.5,6.8-12.7,14-12.1c6.1,0.4,8.7,6.6,10,11.6c4,15.7,4.4,32.2,5.1,48.3
		c1.7,34.1,3.2,68.2,3.4,102.1c0,9.5,0,18.8,0,28.4c0,9.5,0,19.3-0.6,29c0,0.2-0.2,0.4-0.2,0.4c-0.2,0.2-0.4,0.2-0.6,0.2
		c-0.2,0-0.2,0-0.4-0.2c-0.2-0.2-0.2-0.2-0.2-0.4c0-8.3,0.2-16.5,0.2-24.8c0.2-8,0-16.1,0-24.1c-0.4-16.3-0.8-32.6-1.5-48.9
		c-0.4-16.1-1.3-32.4-1.9-48.5c-0.4-8-0.6-16.1-1.1-24.3c-0.4-8-0.6-15.7-1.7-23.5c-0.4-4.4-1.1-8.7-1.9-13.1
		c-0.4-3.2-1.7-6.1-3.8-8.7c-1.3-1.5-3.2-2.3-5.1-2.3c-2.1-0.2-4,0.4-5.5,1.5c-3.4,2.3-5.9,5.7-7.6,9.5
		C98,519.2,97.6,519,97.6,518.8z"/>
	<path class="st1" d="M99.7,516.2c0,0,5.9-21.2-7.2-10.6c-22.2,17.6-22.9,55.9-22.9,55.9s39.2-22.9,44-37.9
		C120.9,501.4,99.7,516.2,99.7,516.2z"/>
	<path class="st4" d="M77.9,545.9l1.1-1.7c0-0.6,0-1.3,0-1.7c0-0.8,0-1.9,0-2.8c0-1.7-0.2-3.6-0.2-5.3c0-0.2,0.4-0.2,0.4,0
		c0,1.7,0,3.6,0.2,5.3c0,0.8,0,1.7,0,2.5c0,0.4,0,0.8,0,1.1c1.5-2.3,3-4.7,4.7-7.2l1.5-1.9c0.2-2.3,0.2-4.7,0-7c0-2.5,0-4.9,0-7.4
		c0-0.2,0.2-0.2,0.2,0c0,2.5,0.2,5.1,0.4,7.6c0.2,1.9,0.2,3.6,0.2,5.5c3.8-5.1,7.8-10.2,11.9-15c0-0.2,0.4,0,0.2,0.2
		c-2.5,3.2-4.9,6.6-7.2,9.7c4.7-1.1,9.3-1.7,14-2.3c0.2,0,0.2,0.4,0,0.4c-5.1,0.6-10,1.9-14.8,3.2c-1.9,2.5-3.8,5.3-5.5,8
		c-0.8,1.1-1.5,2.1-2.3,3.2h0.2l1.5-0.2l3.4-0.4c2.3-0.2,4.4-0.2,6.8-0.4c0.2,0,0.2,0.4,0,0.4c-2.3,0-4.4,0.2-6.8,0.4l-3.4,0.4
		l-1.5,0.2h-0.6l-3.4,5.5c-2.3,3.2-4.2,6.8-6.6,10c0,0,0,0-0.2,0l0,0c0,0,0,0-0.2,0c0,0,0,0,0-0.2C73.7,552.6,75.6,549.2,77.9,545.9
		z"/>
	<path class="st4" d="M87.7,521.9c0-0.8,0-1.7,0-2.3c0-1.7,0-3.4-0.2-5.3c0-0.2,0.4-0.2,0.4,0c0,1.7,0,3.4,0.2,5.1
		c0,0.8,0,1.7,0,2.5v1.3c0,0.4,0,0.8,0,1.3c0,0.2-0.2,0.2-0.4,0c0-0.4,0-0.6,0-1.1C87.7,522.8,87.7,522.4,87.7,521.9z"/>
	<path class="st4" d="M92.5,530.8c1.3-0.2,3-0.4,4.2-0.4c1.5-0.2,3.4-0.2,4.9-0.4c0.2,0,0.2,0,0.2,0s0,0,0,0.2v0.2c0,0,0,0-0.2,0
		c-3,0.2-6.1,0.8-9.1,0.8C92.3,531,92.3,530.8,92.5,530.8z"/>
	<path class="st4" d="M80,530.8c0,0.2,0,0.6,0,0.8v0.6c0,0.4,0,1.1,0,1.5v1.5c0.2,0.4,0.2,0.8,0,1.3l0,0c-0.2-0.2-0.2-0.4,0-0.6
		v-0.6c0-0.4,0-1.1,0-1.5v-2.1C80,531.5,80,531,80,530.8C80,530.6,80.5,530.4,80,530.8z"/>
	<path class="st4" d="M96.8,631.8c8.3-6.1,15.7-15,26.9-15.5c9.1-0.4,15.5,6.6,19.1,14.2c1.9,4,3.4,8.3,4.7,12.7
		c1.7,5.7,3.2,11.6,4.7,17.4c3,11.4,5.3,23.1,7.4,34.9c1.1,6.6,2.1,13.1,3,19.7c1.1,6.6,1.7,13.3,1.9,20.1c0,0.2-0.2,0.4-0.2,0.6
		c-0.2,0.2-0.4,0.2-0.6,0.4c-0.4,0-0.6,0-0.8-0.2c-0.2-0.2-0.2-0.4-0.4-0.6c-1.1-5.5-1.5-11.2-2.3-16.5c-0.8-5.5-1.7-11.2-2.5-16.7
		c-1.9-11-4-22.2-6.6-33.2c-2.3-10.4-4.9-21-8-31.1c-2.3-7.2-6.4-15.7-14.2-18.2c-11.9-4-22.7,6.1-31.3,12.7
		C96.8,632.2,96.6,632,96.8,631.8z"/>
	<path class="st1" d="M105.4,625.9c0,0,7.4-21.8-3.6-26c-16.5-6.4-59.5,42.1-51,116.7c0,0,33.2-18.4,57.8-39
		c24.8-20.8,30.9-47.6,20.1-54.6C117.9,615.9,105.4,625.9,105.4,625.9z"/>
	<path class="st4" d="M55.7,700.6c1.3-2.5,2.5-5.1,4-7.6c1.5-2.5,2.8-5.1,4.2-7.6c3-4.9,5.7-9.7,8.7-14.6c0.6-0.8,1.1-1.5,1.5-2.3
		c0-0.2,0-0.6-0.2-0.8l-0.4-2.1c-0.4-1.7-0.6-3.2-1.1-4.9c-0.4-3.2-1.1-6.4-1.9-9.5c0,0,0,0,0-0.2h0.2l0,0c0.2,0,0.2,0,0.2,0.2
		c0.6,3.2,1.7,6.4,2.5,9.5c0.4,1.5,1.1,3.2,1.5,4.7l0.4,1.7c3.4-5.7,7-11.6,11-17.2c-0.2-0.8-0.4-1.5-0.4-2.3
		c-0.2-1.1-0.2-2.1-0.4-3.2c-0.2-2.3-0.6-4.9-0.8-7.4c-0.6-4.7-1.5-9.5-2.8-14.2c0-0.2,0.4-0.2,0.4,0c1.3,4.7,2.3,9.5,3.4,14.2
		c0.4,2.3,0.8,4.7,1.1,7.2c0.2,1.3,0.4,2.3,0.4,3.6l0.2,1.1c1.3-1.7,2.3-3.4,3.6-5.1c3.8-5.1,7.8-10,11.9-14.8c0-0.2,0.4,0,0.2,0.2
		c-6.8,8.7-13.1,17.8-18.6,27.3l-3.4,5.3l1.1-0.2c1.5-0.2,3-0.2,4.2-0.4l8.5-0.8c5.5-0.4,11.2-0.8,16.9-1.5c0.2,0,0.2,0.4,0,0.4
		c-5.7,0.6-11.4,1.5-17.1,2.3c-2.8,0.4-5.5,0.8-8.3,1.1c-2.1,0.4-4.2,0.6-6.4,0.6L73.3,674c0.6,0,1.1,0,1.5,0h8c3.6,0,7.2,0,11,0
		c0.2,0,0,0.4,0,0.4c-3.8,0-7.4,0.2-11,0.4l-5.3,0.2l-2.5,0.2c-0.8,0.2-1.7,0.2-2.3,0l-5.7,9.1c-1.7,2.8-3.4,5.7-5.3,8.5
		c-1.7,3-3.4,5.9-5.5,8.5c-0.2,0-0.2,0-0.2,0h-0.2l0,0c-0.2,0-0.2,0-0.2-0.2c0,0,0,0,0-0.2v-0.2C55.5,700.6,55.5,700.8,55.7,700.6
		L55.7,700.6z"/>
	<path class="st4" d="M71.6,640.5c0.4,2.3,0.8,4.9,1.5,7.2c0.6,2.3,1.5,4.7,2.1,7.2l0,0c0,0,0,0,0,0.2l0,0l0,0c-0.2,0-0.2,0-0.2,0
		l0,0h-0.2l0,0c-0.6-2.3-1.3-4.7-1.9-7c-0.6-2.3-1.1-4.7-1.5-7.2C71.1,640.3,71.6,640.3,71.6,640.5z"/>
	<path class="st4" d="M96.1,655.1c0.4-0.4,1.1-0.6,1.9-0.6l3-0.4c2.1-0.2,4-0.4,5.9-0.6c4-0.4,8-0.8,12.3-1.5c0.2,0,0.2,0.4,0,0.4
		c-4,0.4-7.8,1.1-11.6,1.5l-5.5,0.6l-2.8,0.2c-1.1,0-2.1,0.2-3.2,0.6l0,0C96.1,655.3,96.1,655.3,96.1,655.1L96.1,655.1L96.1,655.1z"
		/>
	<path class="st4" d="M71.6,687.7c1.9-0.2,3.8-0.2,5.9-0.2h2.8h1.5c0.6,0,1.1,0,1.7-0.2c0.2,0,0.4,0.4,0,0.4s-1.1,0-1.7,0h-1.5
		l-3,0.2c-1.9,0-3.8,0.2-5.7,0.2C71.6,688.1,71.4,687.7,71.6,687.7z"/>
	<path class="st4" d="M59.7,679.5c-0.2-1.1-0.4-2.1-0.6-3.4c-0.2-2.1-0.6-4.2-1.1-6.4c0-0.2,0.2-0.2,0.4,0c0.4,2.1,0.8,4.2,1.3,6.1
		c0.2,1.1,0.6,2.1,0.8,3.2c0,0.4,0.2,1.1,0.2,1.5c0.2,0.4,0.2,1.1,0.2,1.5c0,0.2-0.4,0.4-0.4,0.2C60.1,681.4,59.9,680.3,59.7,679.5z
		"/>
	<path class="st5" d="M172.8,726.9l-2.3,26.5l-7.8,89.1H92.7L83,753.4l-3-26.5H172.8z"/>
	<path class="st4" d="M172.8,726.9l-2.3,26.5H83l-3-26.5H172.8z"/>
	<path class="st5" d="M179.8,741.1H73v-21.4h106.7V741.1z"/>
	<path class="st4" d="M995.4,842.7l-124.3-0.6l-124.5-0.2L498,841.4l-248.8,0.4l-124.3,0.2L0.4,842.7l124.5,0.6l124.3,0.2L498,844
		l248.6-0.4l124.5-0.2L995.4,842.7z"/>
	<path class="st4" d="M304.7,58.2h386.6c5.1,0,10.2,1.1,15,3.2c4.7,2.1,9.1,4.9,12.7,8.7c3.6,3.8,6.4,8,8.5,12.9
		c1.9,4.9,2.8,10,2.8,15v795.5c0.2,10.4-4,20.5-11.2,27.9c-7.4,7.4-17.4,11.6-27.7,11.9H304.7c-10.4-0.2-20.3-4.4-27.7-11.9
		c-7.4-7.4-11.4-17.6-11.4-27.9V98c0-5.1,1.1-10.4,3-15.2c1.9-4.9,4.9-9.1,8.5-12.9c3.6-3.8,7.8-6.6,12.7-8.7
		C294.5,59.5,299.6,58.5,304.7,58.2z M290.1,869.2c0,21,15.7,37.9,34.9,37.9h345.8c19.5,0,35.1-16.9,35.1-37.9V128.3
		c0-42.6-15.7-44.7-35.1-44.7h-69.2c-4,0-7.2,4.7-7.2,10.2v2.3c0,13.3-7.4,13.3-16.3,13.3H418c-9.1,0-16.3,0-16.3-13.3v-2.3
		c0-5.7-3.2-10.2-7.4-10.2H325c-19.3,0-34.9,5.7-34.9,44.7L290.1,869.2L290.1,869.2z"/>
	<path class="st1" d="M290.1,129v740.6c0,21,15.7,37.9,34.9,37.9h345.8c19.5,0,35.1-16.9,35.1-37.9V129c0-42.6-15.7-44.7-35.1-44.7
		h-69.2c-4,0-7.2,4.7-7.2,10.2v2.3c0,13.3-7.4,13.3-16.3,13.3H418c-9.1,0-16.3,0-16.3-13.3v-2.3c0-5.7-3.2-10.2-7.2-10.2H325
		C305.7,84.3,290.1,90,290.1,129z"/>
	<path class="st1" d="M290.1,129v67.1h415.8V129c0-42.6-15.7-44.7-35.1-44.7h-69.2c-4,0-7.4,4.7-7.4,10.2v2.3
		c0,13.3-7.2,13.3-16.1,13.3H418c-9.1,0-16.3,0-16.3-13.3v-2.3c0-5.7-3.2-10.2-7.4-10.2H325C305.7,84.3,290.1,90,290.1,129z"/>
	<path class="st1" d="M476.2,93h43.6c0.6,0,1.5-0.2,1.9-0.8c0.4-0.6,0.8-1.3,0.8-1.9c0-0.6-0.4-1.5-0.8-1.9s-1.3-0.8-1.9-0.8h-43.6
		c-0.8,0-1.5,0.2-1.9,0.8c-0.6,0.4-0.8,1.3-0.8,1.9c0,0.6,0.2,1.5,0.8,1.9C474.7,92.8,475.3,93,476.2,93z"/>
	<path class="st1" d="M612.5,100.2l0.6,0.6c0,0,0.2,0.2,0.4,0.4c0.8-0.8,1.7-1.5,2.8-1.9c1.3-0.4,2.3-0.6,3.6-0.6
		c1.3,0,2.3,0.2,3.6,0.6c1.1,0.4,2.1,1.1,3,1.9l0.2-0.4l0.6-0.6l-0.8-0.6c-0.6-0.4-1.3-0.8-1.9-1.3c-0.8-0.4-1.7-0.6-2.5-0.8
		l-1.3-0.2h-1.3c-0.2,0-0.4,0-0.8,0c-0.8,0-1.5,0.2-2.3,0.6c-0.6,0.2-1.1,0.4-1.7,0.8c-0.4,0.2-1.1,0.6-1.5,1.1L612.5,100.2
		L612.5,100.2z"/>
	<path class="st1" d="M624.2,103.3l1.1-1.1c-1.1-1.3-2.5-1.9-4.2-2.1c-1.1-0.2-2.3,0-3.4,0.2c-1.3,0.4-2.1,1.1-3,1.9
		c0.2,0.4,0.6,0.6,1.1,1.1c1.1-1.1,2.5-1.7,4.2-1.7C621.6,101.6,623.1,102.3,624.2,103.3z"/>
	<path class="st1" d="M616.8,104.4l1.1,1.1c0.4-0.6,1.3-0.8,2.1-0.8c0.8,0,1.7,0.4,2.3,0.8l0.8-1.1c-0.4-0.4-0.8-0.8-1.5-1.1
		c-0.4-0.2-1.1-0.4-1.7-0.4c-0.6,0-1.3,0.2-1.7,0.4C617.6,103.5,617.2,104,616.8,104.4z"/>
	<path class="st1" d="M619.1,106.5c0,0.2,0,0.4,0,0.4c0.2,0.2,0.2,0.2,0.4,0.4c0.2,0,0.4,0,0.6,0c0.2,0,0.4-0.2,0.4-0.2
		c0.2-0.2,0.2-0.2,0.2-0.4c0.2-0.2,0-0.4,0-0.6c0-0.2-0.2-0.4-0.4-0.4c0-0.2-0.2-0.2-0.4-0.2c-0.2,0-0.2,0-0.4,0l-0.2,0.2
		c-0.2,0-0.2,0.2-0.2,0.2C619.1,106.3,619.1,106.3,619.1,106.5z"/>
	<path class="st1" d="M677.8,102.3c0-0.6-0.2-1.1-0.4-1.5c-0.4-0.4-0.8-0.8-1.3-1.1c-0.6-0.2-1.1-0.2-1.7-0.2
		c-0.4,0-1.1,0.4-1.3,0.8c-0.4,0.4-0.8,0.8-0.8,1.5c-0.2,0.4,0,1.1,0.2,1.7c0.2,0.6,0.4,0.8,0.8,1.3c0.6,0.2,1.1,0.4,1.7,0.4
		c0.2,0,0.6,0,1.1-0.2c0.2-0.2,0.6-0.4,0.8-0.6c0.2-0.2,0.4-0.6,0.6-0.8C677.5,103.1,677.8,102.7,677.8,102.3z"/>
	<path class="st1" d="M669.1,102.3c0-0.6-0.2-1.1-0.4-1.5c-0.4-0.4-0.8-0.8-1.3-1.1c-0.6-0.2-1.1-0.2-1.7-0.2
		c-0.4,0.2-1.1,0.4-1.3,0.8c-0.4,0.4-0.6,0.8-0.8,1.5c0,0.4,0,1.1,0.2,1.7c0.2,0.4,0.4,0.8,1.1,1.3c0.4,0.2,0.8,0.4,1.5,0.4
		c0.6,0,1.5-0.2,1.9-0.8C668.7,103.8,669.1,103.1,669.1,102.3z"/>
	<path class="st1" d="M660.4,102.3c0-0.6-0.2-1.1-0.4-1.5c-0.4-0.4-0.8-0.8-1.3-1.1c-0.6-0.2-1.1-0.2-1.7-0.2
		c-0.4,0-1.1,0.4-1.3,0.8c-0.4,0.4-0.8,0.8-0.8,1.5c-0.2,0.4,0,1.1,0.2,1.7c0.2,0.4,0.4,0.8,0.8,1.3c0.6,0.2,1.1,0.4,1.7,0.4
		c0.2,0,0.6,0,1.1-0.2c0.2-0.2,0.6-0.4,0.8-0.6c0.2-0.2,0.4-0.6,0.6-0.8C660.2,103.1,660.4,102.7,660.4,102.3z"/>
	<path class="st1" d="M651.7,102.3c0-0.6-0.2-1.1-0.4-1.5c-0.4-0.4-0.8-0.8-1.3-1.1c-0.6-0.2-1.1-0.2-1.7-0.2
		c-0.4,0.2-1.1,0.4-1.3,0.8c-0.4,0.4-0.6,0.8-0.8,1.5c0,0.4,0,1.1,0.2,1.7c0.2,0.4,0.4,0.8,1.1,1.3c0.4,0.2,0.8,0.4,1.5,0.4
		c0.6,0,1.5-0.2,1.9-0.8C651.3,103.8,651.7,103.1,651.7,102.3z"/>
	<path class="st1" d="M643,102.3c0-0.6-0.2-1.1-0.4-1.5c-0.4-0.4-0.8-0.8-1.3-1.1c-0.6-0.2-1.1-0.2-1.7-0.2c-0.4,0-1.1,0.4-1.3,0.8
		c-0.4,0.4-0.8,0.8-0.8,1.5c-0.2,0.4,0,1.1,0.2,1.7c0.2,0.4,0.4,0.8,0.8,1.3c0.6,0.2,1.1,0.4,1.7,0.4c0.2,0,0.6,0,1.1-0.2
		c0.2-0.2,0.6-0.4,0.8-0.6c0.2-0.2,0.4-0.6,0.6-0.8C642.8,103.1,643,102.7,643,102.3z"/>
	<path class="st1" d="M320.1,108.2h22.4V97.8h-22.4V108.2z M341.5,107.1h-20.1v-8h20.1V107.1z"/>
	<path class="st1" d="M326.3,99.7h14.6v6.8h-14.6V99.7z"/>
	<path class="st1" d="M318.2,100.4h1.9v5.5h-1.9V100.4z"/>
	<path class="st1" d="M665.5,170.5l12.3-11.4l-12.3-11.4l-1.9,1.9l10.2,9.5l-10.2,9.5L665.5,170.5z"/>
	<path class="st1" d="M322.5,149.1h22.2v3.6h-22.2V149.1z"/>
	<path class="st1" d="M322.5,157.1h22.2v3.6h-22.2V157.1z"/>
	<path class="st1" d="M322.5,165.2h22.2v3.6h-22.2V165.2z"/>
	<path class="st1" d="M544.2,155.2v12.3c0,0.2,0,0.6,0.2,0.8c0.2,0.2,0.6,0.4,0.8,0.4c0.4,0,0.6,0,0.8-0.4c0.2-0.2,0.2-0.4,0.2-0.8
		v-8.7l3.2,4.2c0,0.2,0.2,0.2,0.4,0.4c0,0,0.2,0.2,0.4,0.2c0.2,0,0.4,0,0.6-0.2c0,0,0.2-0.2,0.2-0.4l3.2-4.2v8.7
		c0,0.2,0,0.6,0.2,0.8c0.2,0.2,0.6,0.4,0.8,0.4c0.4,0,0.6-0.2,0.8-0.4c0.2-0.2,0.4-0.4,0.4-0.8v-12.3c0-0.2-0.2-0.6-0.4-0.8
		c-0.2-0.2-0.4-0.4-0.8-0.4c0,0-0.2,0-0.4,0.2c-0.2,0-0.2,0.2-0.4,0.4l-4,5.7l-4.2-5.7c0-0.2-0.2-0.2-0.4-0.4
		c-0.2,0-0.4-0.2-0.4-0.2c-0.2,0-0.4,0-0.6,0c0,0-0.2,0.2-0.4,0.2c0,0.2-0.2,0.2-0.2,0.4C544.2,154.8,544.2,155,544.2,155.2z"/>
	<path class="st1" d="M528.9,155.8l4.2,5.9v5.5c0,0.2,0,0.2,0.2,0.4c0,0.2,0,0.2,0.2,0.4c0,0.2,0.2,0.2,0.4,0.2c0,0,0.2,0,0.4,0
		c0.2,0,0.4-0.2,0.6-0.4c0.2-0.2,0.4-0.4,0.4-0.8v-5.5l4.2-5.9c0-0.2,0.2-0.2,0.2-0.4c0-0.2,0-0.2,0-0.4s0-0.2-0.2-0.4
		c0-0.2-0.2-0.2-0.2-0.4c-0.2,0-0.2-0.2-0.4-0.2c-0.2,0-0.2,0-0.4,0c-0.2,0-0.2,0-0.4,0.2c-0.2,0-0.2,0.2-0.4,0.4l-3.4,4.9l-3.6-4.9
		c-0.2-0.2-0.4-0.4-0.8-0.4c-0.2,0-0.6,0-0.8,0.2c-0.2,0.2-0.4,0.4-0.4,0.6S528.7,155.6,528.9,155.8z"/>
	<path class="st1" d="M515.4,162.8h2.5v4.4c0,0.2,0.2,0.6,0.4,0.8c0.2,0.2,0.4,0.4,0.8,0.4c0.2,0,0.6-0.2,0.8-0.4
		c0.2-0.2,0.4-0.4,0.4-0.8V155c0-0.2-0.2-0.2-0.2-0.4c0-0.2-0.2-0.2-0.2-0.4c-0.2-0.2-0.2-0.2-0.4-0.2c-0.2,0-0.2,0-0.4,0h-3.8
		c-1.1,0-2.1,0.4-3,1.3c-0.8,0.8-1.5,1.9-1.5,3.2c0,1.3,0.6,2.3,1.5,3.2C513.2,162.4,514.3,162.8,515.4,162.8L515.4,162.8z
		 M517.9,160.5h-2.5c-0.4,0-1.1-0.2-1.5-0.6c-0.4-0.4-0.6-0.8-0.6-1.5c0-0.6,0.2-1.1,0.6-1.5c0.4-0.4,1.1-0.6,1.5-0.6h2.5V160.5z"/>
	<path class="st1" d="M498.6,166.9c-0.2,0.2-0.2,0.6,0,0.8c0.2,0.2,0.4,0.4,0.6,0.6h0.4c0.4,0,0.6,0,0.8-0.2
		c0.2-0.2,0.4-0.4,0.6-0.6c0.4-0.6,0.4-1.5,0.4-2.3c0-0.4,0.2-0.6,0.2-0.8c0.2-0.2,0.4-0.4,0.6-0.6c0.4-0.2,0.8-0.4,1.3-0.4h2.3v4.4
		c0,0.4,0.2,0.6,0.4,0.8c0.2,0.2,0.4,0.4,0.8,0.4c0.2,0,0.6-0.2,0.8-0.4c0.2-0.2,0.2-0.4,0.2-0.8v-12.3c0-0.2,0-0.2,0-0.4
		s-0.2-0.2-0.2-0.4c-0.2-0.2-0.2-0.2-0.4-0.2c-0.2,0-0.2,0-0.4,0h-3.8c-0.8,0-1.7,0.2-2.5,0.8c-0.6,0.4-1.3,1.3-1.7,2.1
		c-0.2,0.8-0.2,1.7,0,2.8c0.2,0.8,0.8,1.7,1.5,2.3c-0.2,0.2-0.6,0.4-0.6,0.8c-0.6,0.6-0.8,1.5-0.8,2.3c0,0.4,0,0.8,0,1.3
		c0,0-0.2,0-0.4,0.2C498.8,166.6,498.6,166.6,498.6,166.9z M501.4,158.4c0-0.6,0.2-1.1,0.6-1.5c0.4-0.4,1.1-0.6,1.7-0.6h2.5v4.2
		h-2.5c-0.4,0-0.6,0-0.8-0.2c-0.4-0.2-0.6-0.2-0.8-0.4c-0.2-0.2-0.2-0.4-0.4-0.6C501.6,159,501.4,158.8,501.4,158.4z"/>
	<path class="st1" d="M484,155.8c-1.3,1.5-2.1,3.4-2.1,5.3c0,1.9,0.8,3.8,2.1,5.3c0.6,0.6,1.5,1.3,2.3,1.7c0.8,0.4,1.7,0.6,2.8,0.6
		c0.8,0,1.9-0.2,2.8-0.6c0.8-0.4,1.7-0.8,2.3-1.7c1.3-1.5,2.1-3.4,2.1-5.3c0-1.9-0.8-3.8-2.1-5.3c-0.6-0.6-1.5-1.3-2.3-1.7
		c-0.8-0.4-1.9-0.6-2.8-0.6c-1.1,0-1.9,0.2-2.8,0.6C485.5,154.6,484.7,155,484,155.8z M484.4,160.9c0-1.3,0.4-2.5,1.3-3.6
		c0.4-0.4,1.1-0.8,1.5-1.1c0.6-0.2,1.3-0.4,1.9-0.4c0.6,0,1.3,0.2,1.9,0.4c0.4,0.2,1.1,0.6,1.5,1.1c0.8,1.1,1.3,2.3,1.3,3.6
		c0,1.3-0.4,2.5-1.3,3.6c-0.4,0.4-1.1,0.8-1.5,1.1c-0.6,0.2-1.3,0.4-1.9,0.4c-0.6,0-1.3-0.2-1.9-0.4c-0.4-0.2-1.1-0.6-1.5-1.1
		C484.9,163.7,484.4,162.4,484.4,160.9z"/>
	<path class="st1" d="M477.9,167.3V155c0-0.2,0-0.2,0-0.4c-0.2-0.2-0.2-0.2-0.2-0.4c-0.2-0.2-0.4-0.2-0.4-0.2c-0.2,0-0.4,0-0.4,0
		H470c-0.4,0-0.6,0.2-0.8,0.4c-0.2,0.2-0.4,0.4-0.4,0.8c0,0.2,0.2,0.6,0.4,0.8c0.2,0.2,0.4,0.4,0.8,0.4h5.5v3.8h-4.7
		c-0.4,0-0.6,0.2-0.8,0.4c-0.2,0.2-0.4,0.4-0.4,0.8c0,0.4,0.2,0.6,0.4,0.8c0.2,0.2,0.4,0.4,0.8,0.4h4.7v5.1c0,0.4,0.2,0.6,0.4,0.8
		c0.2,0.2,0.4,0.4,0.8,0.4c0,0,0.2,0,0.4,0c0.2,0,0.2-0.2,0.4-0.2c0-0.2,0.2-0.2,0.2-0.4C477.9,167.7,477.9,167.5,477.9,167.3z"/>
	<path class="st1" d="M465.2,155.2c0-0.2,0-0.2,0-0.4c-0.2-0.2-0.2-0.2-0.2-0.4c-0.2-0.2-0.4-0.2-0.4-0.2c-0.2,0-0.4,0-0.4,0
		c-0.2,0-0.4,0-0.4,0c-0.2,0-0.4,0.2-0.4,0.2c-0.2,0-0.2,0.2-0.2,0.4c-0.2,0.2-0.2,0.2-0.2,0.4v12.3c0,0.2,0,0.2,0.2,0.4
		c0,0.2,0,0.2,0.2,0.4c0,0.2,0.2,0.2,0.4,0.2c0,0,0.2,0,0.4,0c0,0,0.2,0,0.4,0c0,0,0.2-0.2,0.4-0.2c0,0,0-0.2,0.2-0.4
		c0-0.2,0-0.2,0-0.4V155.2z"/>
	<path class="st1" d="M459,167.3V155c0-0.2-0.2-0.6-0.4-0.8s-0.4-0.4-0.6-0.4s-0.4,0-0.6,0l-0.2,0.2c-0.2,0-0.2,0.2-0.4,0.4
		c0,0.2,0,0.2,0,0.4V166H451c-0.2,0-0.4,0.2-0.8,0.4c-0.2,0.2-0.2,0.4-0.2,0.8c0,0.4,0,0.6,0.2,0.8c0.4,0.2,0.6,0.4,0.8,0.4h7
		c0,0,0.2,0,0.4-0.2c0,0,0.2-0.2,0.4-0.2c0-0.2,0-0.2,0.2-0.4C459,167.7,459,167.5,459,167.3z"/>
	<path class="st1" d="M447.4,167.3V155c0-0.2,0-0.2-0.2-0.4c0-0.2,0-0.2-0.2-0.4c0-0.2-0.2-0.2-0.4-0.2c0,0-0.2,0-0.4,0h-6.8
		c-0.2,0-0.6,0.2-0.8,0.4c-0.2,0.2-0.2,0.4-0.2,0.8c0,0.2,0,0.6,0.2,0.8c0.2,0.2,0.6,0.4,0.8,0.4h5.7v3.8h-4.9
		c-0.2,0-0.4,0.2-0.8,0.4c-0.2,0.2-0.2,0.4-0.2,0.8c0,0.4,0,0.6,0.2,0.8c0.4,0.2,0.6,0.4,0.8,0.4h4.9v3.8h-5.7
		c-0.2,0-0.6,0.2-0.8,0.4c-0.2,0.2-0.2,0.4-0.2,0.8c0,0.4,0,0.6,0.2,0.8c0.2,0.2,0.6,0.4,0.8,0.4h6.8c0.2,0,0.4,0,0.6-0.2l0.2-0.2
		c0.2-0.2,0.2-0.2,0.2-0.4C447.4,167.7,447.4,167.5,447.4,167.3z"/>
	<path class="st0" d="M552.2,332c-13.1,0-23.7-10.6-23.7-23.5c0-13.1,10.6-23.5,23.7-23.5c12.9,0,23.5,10.6,23.5,23.5
		C575.7,321.6,565.1,332,552.2,332z"/>
	<path class="st5" d="M436.6,258.3c-9.1,0-16.3-7.4-16.3-16.5c0-9.1,7.2-16.5,16.3-16.5c9.1,0,16.5,7.4,16.5,16.5
		C453.1,251.1,445.7,258.3,436.6,258.3z"/>
	<path class="st4" d="M555.4,361.9c-0.2,0.6-0.6,1.1-1.1,1.5c-0.6,0.4-1.3,0.4-1.9,0.4c-0.6-0.2-1.3-0.4-1.7-0.8s-0.6-1.1-0.6-1.7
		v-7.6c0-0.2,0-0.4-0.2-0.6c-0.2-0.2-0.6-0.2-0.8-0.2c-0.2,0-0.4,0.2-0.6,0.2c-0.2,0.2-0.4,0.4-0.4,0.6v7.8
		c-0.2,1.3,0.2,2.5,0.8,3.6c0.8,1.1,1.9,1.7,3.2,1.9c1.3,0.2,2.5-0.2,3.6-0.8c1.1-0.6,1.7-1.9,1.9-3.2c0-0.2,0-0.2,0-0.4
		c0-0.2,0-0.2,0-0.4c-0.2-0.2-0.2-0.2-0.4-0.4l-0.2-0.2c-0.4-0.2-0.6-0.2-0.8,0C555.8,361.4,555.6,361.7,555.4,361.9z"/>
	<path class="st4" d="M535.9,361v3.8c0,0.2,0,0.6,0.2,0.8c0.2,0.2,0.4,0.2,0.8,0.2c0.2,0,0.4,0,0.6-0.2c0.2-0.2,0.2-0.4,0.4-0.6
		c0.8,0.6,1.9,0.8,3,0.8c1.1-0.2,2.1-0.6,2.8-1.5c1.1-0.8,1.5-2.1,1.5-3.4c0-0.6-0.2-1.3-0.4-1.9c-0.2-0.6-0.4-1.1-1.1-1.7
		c-0.6-0.8-1.7-1.3-2.8-1.5c-1.1,0-2.1,0.2-3,0.8c-0.2-0.2-0.2-0.4-0.4-0.6c-0.2-0.2-0.4-0.2-0.6-0.2c-0.4,0-0.6,0.2-0.8,0.4
		c-0.2,0.2-0.2,0.4-0.2,0.6V361z M538,361c0-0.6,0.2-1.5,0.6-2.1c0.2-0.2,0.6-0.4,0.8-0.6c0.4-0.2,0.6-0.2,1.1-0.2
		c0.2,0,0.6,0,0.8,0.2c0.4,0.2,0.6,0.4,0.8,0.6c0.6,0.6,0.8,1.3,0.8,2.1s-0.2,1.5-0.8,1.9c-0.2,0.2-0.4,0.4-0.8,0.6
		c-0.2,0.2-0.6,0.2-0.8,0.2c-0.4,0-0.6,0-1.1-0.2c-0.2-0.2-0.6-0.4-0.8-0.6C538.2,362.5,537.8,361.9,538,361L538,361z"/>
	<path class="st4" d="M532.3,363.1c0-0.2,0-0.2-0.2-0.2c-0.2,0-0.2-0.2-0.4-0.2c0,0-0.2,0-0.4,0l-0.2,0.2c-0.6,0.4-1.5,0.8-2.3,0.8
		c-0.4,0-0.8-0.2-1.3-0.4l-0.2-0.2c0-0.2-0.2-0.2-0.2-0.4l0,0l0,0c0,0,0-0.2,0.4-0.2c0.4-0.2,0.8-0.4,1.5-0.4
		c0.6-0.2,1.1-0.2,1.7-0.4c0.6-0.2,1.1-0.6,1.3-1.1c0.2-0.4,0.4-0.8,0.4-1.3c0-0.4-0.2-0.8-0.4-1.3c-0.2-0.4-0.4-0.6-0.8-0.8
		c-0.6-0.4-1.5-0.6-2.3-0.6c-1.1,0-2.1,0.4-3,1.1c-0.2,0.2-0.2,0.4-0.4,0.6c0,0.2,0,0.6,0.2,0.8c0,0.2,0.2,0.2,0.2,0.2
		c0.2,0,0.2,0.2,0.4,0.2c0.2,0,0.2,0,0.4,0c0.2,0,0.2,0,0.4-0.2c0.4-0.4,1.1-0.6,1.7-0.8c0.4,0,0.8,0,1.3,0.4
		c0.2,0.2,0.2,0.4,0.2,0.4l0,0l0,0c0,0,0,0.2-0.2,0.2c-0.4,0.2-0.8,0.4-1.3,0.4c-0.6,0-1.3,0.2-1.9,0.6c-0.6,0.2-1.1,0.6-1.5,1.1
		c-0.2,0.6-0.4,1.3-0.2,1.9c0.2,0.6,0.6,1.3,1.1,1.7c0.8,0.4,1.7,0.8,2.5,0.8c1.3,0,2.5-0.4,3.6-1.3c0.2-0.2,0.2-0.4,0.2-0.6
		S532.5,363.3,532.3,363.1z"/>
	<path class="st4" d="M521.5,364.4c0.8-0.8,1.3-2.1,1.3-3.4s-0.4-2.5-1.3-3.4c-0.4-0.4-1.1-0.8-1.7-1.1c-0.4-0.2-1.1-0.4-1.7-0.4
		c-0.6,0-1.3,0.2-1.9,0.4c-0.4,0.2-1.1,0.6-1.5,1.1c-0.8,0.8-1.3,2.1-1.3,3.4c0,0.6,0,1.3,0.2,1.9c0.2,0.6,0.6,1.1,1.1,1.5
		c0.4,0.4,1.1,0.8,1.5,1.1c0.6,0.2,1.3,0.4,1.9,0.4c0.6,0,1.3-0.2,1.7-0.4C520.4,365.3,521.1,365,521.5,364.4z M520.7,361
		c0,0.8-0.2,1.5-0.6,2.1c-0.6,0.4-1.3,0.6-1.9,0.6c-0.6,0-1.5-0.2-1.9-0.6c-0.4-0.6-0.8-1.3-0.8-2.1c0-0.6,0.4-1.5,0.8-2.1
		c0.4-0.4,1.3-0.6,1.9-0.6c0.6,0,1.3,0.2,1.9,0.6C520.4,359.5,520.7,360.4,520.7,361z"/>
	<path class="st4" d="M501.8,360.2v4.7c0,0.2,0.2,0.4,0.4,0.6c0.2,0.2,0.4,0.4,0.6,0.4c0.4,0,0.6-0.2,0.8-0.4
		c0.2-0.2,0.2-0.4,0.2-0.6v-4.7c0-0.2,0-0.4,0.2-0.8c0-0.2,0.2-0.4,0.4-0.6c0.2-0.2,0.4-0.4,0.6-0.4c0.2-0.2,0.4-0.2,0.8-0.2
		c0.2,0,0.4,0,0.6,0.2c0.2,0,0.4,0.2,0.6,0.4c0.2,0.2,0.4,0.4,0.4,0.6c0.2,0.2,0.2,0.4,0.2,0.8v4.7v0.2c0,0.2,0.2,0.4,0.4,0.6
		c0.2,0.2,0.4,0.2,0.6,0.2s0.4-0.2,0.6-0.2c0.2-0.2,0.4-0.4,0.4-0.6v-7.6c0-0.2-0.2-0.4-0.2-0.6c-0.2-0.2-0.4-0.4-0.6-0.4
		s-0.4,0-0.6,0s-0.4,0.2-0.6,0.4c-0.6-0.4-1.3-0.6-2.1-0.6c-0.8,0-1.9,0.4-2.8,1.3C502.4,358.1,502,359.1,501.8,360.2z"/>
	<path class="st4" d="M492.5,362.5c-0.2-0.2-0.4-0.4-0.8-0.4c-0.2,0-0.4,0-0.6,0.2c-1.1,0.8-2.3,1.5-3.8,1.5c-0.8,0-1.7-0.2-2.3-0.6
		c-0.2-0.2-0.4-0.4-0.6-0.6c0-0.2-0.2-0.4-0.2-0.8c0-0.2,0-0.4,0.2-0.6c0.2-0.2,0.4-0.4,0.6-0.6c0.8-0.4,1.7-0.8,2.5-0.8
		c0.8-0.2,1.7-0.4,2.5-0.8c0.8-0.4,1.5-0.8,1.9-1.5c0.2-0.4,0.4-1.1,0.4-1.7c0-0.6-0.2-1.1-0.4-1.7c-0.2-0.4-0.6-0.8-1.3-1.3
		c-0.8-0.6-2.1-1.1-3.2-1.1c-1.7,0-3.2,0.6-4.4,1.5c-0.2,0.2-0.2,0.4-0.4,0.6c0,0.2,0,0.4,0.2,0.8c0,0.2,0.2,0.2,0.2,0.2
		c0.2,0,0.2,0.2,0.4,0.2c0.2,0,0.2,0,0.4,0c0.2,0,0.2,0,0.4-0.2c0.8-0.6,1.9-1.1,3.2-1.3c0.6,0,1.5,0.2,2.1,0.6
		c0.2,0.2,0.4,0.2,0.4,0.4c0.2,0.2,0.2,0.4,0.2,0.6c0.2,0.2,0.2,0.4,0,0.4c0,0.2-0.2,0.4-0.4,0.4c-0.8,0.4-1.5,0.6-2.3,0.8
		c-1.1,0.2-1.9,0.4-2.8,0.8c-0.8,0.4-1.5,0.8-1.9,1.7c-0.4,0.4-0.6,1.1-0.6,1.7c0.2,0.6,0.2,1.3,0.6,1.7c0.2,0.4,0.6,1.1,1.1,1.3
		c1.1,0.6,2.3,1.1,3.6,1.1c1.9,0,3.6-0.8,5.1-1.9c0.2-0.2,0.2-0.4,0.2-0.6C492.7,362.9,492.7,362.7,492.5,362.5z"/>
	<path class="st4" d="M470.9,360.2v4.7c0,0.2,0.2,0.4,0.4,0.6c0.2,0.2,0.4,0.4,0.6,0.4c0.4,0,0.6-0.2,0.8-0.4
		c0.2-0.2,0.2-0.4,0.2-0.6v-4.7c0-0.4,0.2-1.1,0.6-1.5c0.4-0.4,0.8-0.6,1.5-0.6c0.4,0,1.1,0.2,1.3,0.6c0.4,0.4,0.6,0.8,0.6,1.5v4.7
		c0,0,0,0,0,0.2c0,0,0,0,0,0.2s0.2,0.4,0.4,0.4c0.2,0.2,0.4,0.2,0.6,0.2h0.2c0.2,0,0.4-0.2,0.4-0.4c0.2-0.2,0.2-0.4,0.4-0.6v-4.7
		v-2.8c0-0.2-0.2-0.2-0.2-0.4c0-0.2,0-0.2-0.2-0.4c0-0.2-0.2-0.2-0.2-0.2c-0.2,0-0.4,0-0.4,0c-0.2,0-0.4,0-0.6,0.2
		c-0.2,0-0.2,0.2-0.4,0.4c-0.6-0.4-1.3-0.6-2.1-0.6c-0.4,0-1.1,0.2-1.7,0.4c-0.4,0.2-0.8,0.6-1.3,1.1c-0.4-0.4-0.8-0.8-1.5-1.1
		c-0.4-0.2-1.1-0.4-1.7-0.4c-1.1,0-2.1,0.4-2.8,1.3c-0.8,0.8-1.3,1.7-1.3,3v4.7c0,0.2,0.2,0.6,0.4,0.6c0,0.2,0.4,0.2,0.6,0.2
		s0.6-0.2,0.6-0.2c0.2-0.2,0.4-0.4,0.4-0.6v-4.7c0-0.4,0.2-1.1,0.6-1.5c0.2-0.4,0.8-0.6,1.3-0.6s0.6,0,0.8,0.2
		c0.2,0,0.4,0.2,0.6,0.4c0.2,0.2,0.4,0.4,0.6,0.6C470.9,359.5,470.9,360,470.9,360.2z"/>
	<path class="st4" d="M458.4,353.6c0,0.2,0,0.2,0,0.4s0.2,0.2,0.2,0.4c0.2,0.2,0.2,0.2,0.4,0.2c0.2,0,0.2,0,0.4,0c0.2,0,0.2,0,0.4,0
		c0.2,0,0.2-0.2,0.4-0.2c0-0.2,0.2-0.2,0.2-0.4s0-0.2,0-0.4v-0.4c0-0.2-0.2-0.4-0.4-0.6c-0.2-0.2-0.4-0.2-0.6-0.2
		c-0.2,0-0.4,0-0.6,0.2s-0.4,0.4-0.4,0.6V353.6z M458.4,357.2v7.6c0,0.2,0,0.4,0,0.4c0,0.2,0.2,0.2,0.2,0.4c0.2,0.2,0.2,0.2,0.4,0.2
		c0.2,0,0.2,0,0.4,0c0.2,0,0.2,0,0.4,0c0.2,0,0.2-0.2,0.4-0.2c0-0.2,0.2-0.2,0.2-0.4s0-0.2,0-0.4v-7.6c0-0.2,0-0.2,0-0.4
		c0-0.2-0.2-0.2-0.2-0.4c-0.2-0.2-0.2-0.2-0.4-0.2c-0.2,0-0.2,0-0.4,0c-0.2,0-0.2,0-0.4,0c-0.2,0-0.2,0.2-0.4,0.2
		c0,0.2-0.2,0.2-0.2,0.4C458.4,357,458.4,357,458.4,357.2z"/>
	<path class="st4" d="M450.6,357.2c0,0.2,0.2,0.6,0.4,0.8c0.2,0.2,0.4,0.4,0.6,0.4h0.6v5.5c-0.2,0-0.4,0-0.4,0
		c-0.2,0-0.4,0.2-0.4,0.2c0,0.2-0.2,0.2-0.2,0.4c0,0.2,0,0.2,0,0.4s0,0.2,0,0.4c0,0.2,0,0.2,0.2,0.4c0,0,0.2,0.2,0.4,0.2
		c0,0,0.2,0,0.4,0c0.4,0,1.1-0.2,1.5-0.6c0.4-0.4,0.6-1.1,0.6-1.5v-5.5h0.4c0.4,0,0.6-0.2,0.8-0.4c0.2-0.2,0.4-0.4,0.4-0.8
		c0-0.2-0.2-0.2-0.2-0.4c0-0.2,0-0.2-0.2-0.4c0,0-0.2-0.2-0.4-0.2c0,0-0.2,0-0.4,0h-0.4v-2.8c0-0.2,0-0.2-0.2-0.4
		c0-0.2,0-0.2-0.2-0.4l-0.2-0.2c-0.2,0-0.4,0-0.4,0c-0.4,0-0.6,0-0.8,0.2c-0.2,0.2-0.2,0.4-0.2,0.8v2.8h-0.6c-0.2,0-0.4,0-0.6,0.2
		C450.8,356.6,450.6,357,450.6,357.2z"/>
	<path class="st4" d="M445.5,364.8c0,0.2,0,0.6,0.2,0.8s0.4,0.2,0.8,0.2c0.2,0,0.4,0,0.6-0.2s0.2-0.4,0.4-0.6v-0.2v-11.4
		c0-0.2-0.2-0.6-0.4-0.8c-0.2-0.2-0.4-0.2-0.6-0.2c-0.4,0-0.6,0-0.8,0.2c-0.2,0.2-0.4,0.4-0.4,0.8v3.4c-0.6-0.4-1.3-0.6-1.9-0.6
		c-1.3,0-2.3,0.4-3.2,1.3c-0.6,0.8-1.1,1.9-1.1,3v4.4c-0.2,0.2-0.2,0.4,0,0.4c0,0.2,0,0.2,0.2,0.4c0,0.2,0.2,0.2,0.2,0.2
		c0.2,0,0.4,0,0.6,0c0,0,0.2,0,0.4,0l0.2-0.2c0.2-0.2,0.2-0.2,0.4-0.4c0-0.2,0-0.4,0-0.4v-4.4c0-0.2,0-0.6,0-0.8
		c0.2-0.2,0.2-0.4,0.4-0.6c0.2-0.2,0.4-0.4,0.8-0.4c0.2-0.2,0.4-0.2,0.8-0.2c0.2,0,0.4,0,0.8,0.2c0.2,0.2,0.4,0.2,0.6,0.4
		c0.2,0.2,0.4,0.4,0.4,0.6c0,0.2,0.2,0.6,0,0.8L445.5,364.8z"/>
	<path class="st3" d="M364.2,433.4c-0.4,0-0.8,0.2-1.1,0.4c-0.4,0.2-0.6,0.6-0.6,1.1s0.2,0.8,0.6,1.1c0.2,0.2,0.6,0.4,1.1,0.4
		c0.2,0,0.6-0.2,1.1-0.4c0.2-0.2,0.4-0.6,0.4-1.1s-0.2-0.8-0.4-1.1C364.8,433.4,364.4,433.4,364.2,433.4z"/>
	<path class="st3" d="M359.5,433.4c-0.4,0-0.8,0.2-1.1,0.4c-0.4,0.2-0.6,0.6-0.6,1.1s0.2,0.8,0.6,1.1c0.2,0.2,0.6,0.4,1.1,0.4
		s0.6-0.2,1.1-0.4c0.2-0.2,0.4-0.6,0.4-1.1s-0.2-0.8-0.4-1.1C360.2,433.4,359.9,433.4,359.5,433.4z"/>
	<path class="st3" d="M354.9,433.4c-0.4,0-0.8,0.2-1.1,0.4c-0.4,0.2-0.6,0.6-0.6,1.1s0.2,0.8,0.6,1.1c0.2,0.2,0.6,0.4,1.1,0.4
		c0.4,0,0.6-0.2,1.1-0.4c0.2-0.2,0.4-0.6,0.4-1.1s-0.2-0.8-0.4-1.1C355.5,433.4,355.3,433.4,354.9,433.4z"/>
	<path class="st5" d="M502.4,437.2c-15.9,0-31.5-0.8-47.2-2.5c31.3-3,62.9-3,94.2,0C533.8,436.6,518.1,437.5,502.4,437.2z"/>
	<path class="st3" d="M549.4,459.7l-25-0.4l-25-0.2l-50-0.2l-50,0.2l-24.8,0.2l-25,0.4l25,0.4l24.8,0.2l50,0.2l50-0.2l25-0.2
		L549.4,459.7z"/>
	<path class="st3" d="M549.4,468.6l-25-0.4l-25-0.2l-50-0.2l-50,0.2l-24.8,0.2l-25,0.4l25,0.4l24.8,0.2l50,0.2l50-0.2l25-0.2
		L549.4,468.6z"/>
	<path class="st3" d="M549.4,451l-25-0.4l-25-0.2l-50-0.2l-50,0.2l-24.8,0.2l-25,0.4l25,0.4l24.8,0.2l50,0.2l50-0.2l25-0.2
		L549.4,451z"/>
	<path class="st3" d="M549.4,477.3l-18.6-0.4l-18.8-0.2l-37.3-0.2l-37.5,0.2l-18.6,0.2l-18.8,0.4l18.8,0.4l18.6,0.2l37.5,0.2
		l37.3-0.2l18.8-0.2L549.4,477.3z"/>
	<path class="st2" d="M575.3,879.3l0.2-59.7l0.2-59.7V640.5V521.1l-0.2-59.7l-0.2-59.7l-0.2,59.7v59.7l-0.2,119.4l0.2,119.4v59.7
		L575.3,879.3z"/>
	<path class="st2" d="M677.8,389.2l-44.9-0.2h-45.1H498h-90h-44.9l-44.9,0.2l44.9,0.2l44.9,0.2h90h89.8l45.1-0.2L677.8,389.2z"/>
	<path class="st2" d="M564.9,514.1l-30.9-0.2l-30.9-0.2l-61.6-0.2l-61.6,0.2l-30.9,0.2l-30.7,0.2l30.7,0.2l30.9,0.2l61.6,0.2
		l61.6-0.2l30.9-0.2L564.9,514.1z"/>
	<path class="st5" d="M502.4,557.3c-15.9,0-31.5-0.8-47.2-2.5c31.3-3,62.9-3,94.2,0C533.8,556.4,518.1,557.3,502.4,557.3z"/>
	<path class="st3" d="M549.4,579.7l-25-0.4l-25-0.2l-50-0.2l-50,0.2l-24.8,0.2l-25,0.4l25,0.4l24.8,0.2l50,0.2l50-0.2l25-0.2
		L549.4,579.7z"/>
	<path class="st3" d="M549.4,588.4l-25-0.4l-25-0.2l-50-0.2l-50,0.2l-24.8,0.2l-25,0.4l25,0.4l24.8,0.2l50,0.2l50-0.2l25-0.2
		L549.4,588.4z"/>
	<path class="st3" d="M549.4,570.8l-25-0.4l-25-0.2l-50-0.2l-50,0.2l-24.8,0.2l-25,0.4l25,0.4l24.8,0.2l50,0.2l50-0.2l25-0.2
		L549.4,570.8z"/>
	<path class="st3" d="M549.4,597.1l-18.6-0.4l-18.8-0.2l-37.3-0.2l-37.5,0.2l-18.6,0.2l-18.8,0.4l18.8,0.4l18.6,0.2l37.5,0.2
		l37.3-0.2l18.8-0.2L549.4,597.1z"/>
	<path class="st3" d="M364.2,553.3c-0.4,0-0.8,0.2-1.1,0.4c-0.4,0.2-0.6,0.6-0.6,1.1s0.2,0.8,0.6,1.1c0.2,0.2,0.6,0.4,1.1,0.4
		c0.2,0,0.6-0.2,1.1-0.4c0.2-0.2,0.4-0.6,0.4-1.1s-0.2-0.8-0.4-1.1C364.8,553.5,364.4,553.3,364.2,553.3z"/>
	<path class="st3" d="M359.5,553.3c-0.4,0-0.8,0.2-1.1,0.4c-0.4,0.2-0.6,0.6-0.6,1.1c0.2,0.4,0.2,0.8,0.6,1.1
		c0.2,0.2,0.6,0.4,1.1,0.4s0.6-0.2,1.1-0.4c0.2-0.2,0.4-0.6,0.4-1.1s-0.2-0.8-0.4-1.1C360.2,553.5,359.9,553.3,359.5,553.3z"/>
	<path class="st3" d="M354.9,553.3c-0.4,0-0.8,0.2-1.1,0.4c-0.4,0.2-0.6,0.6-0.6,1.1s0.2,0.8,0.6,1.1c0.2,0.2,0.6,0.4,1.1,0.4
		c0.2,0,0.6-0.2,1.1-0.4c0.2-0.2,0.4-0.6,0.4-1.1s-0.2-0.8-0.4-1.1C355.5,553.5,355.1,553.3,354.9,553.3z"/>
	<path class="st2" d="M564.9,633.9l-30.9-0.2l-30.9-0.2h-61.6h-61.6l-30.9,0.2l-30.7,0.2l30.7,0.2l30.9,0.2l61.6,0.2l61.6-0.2
		l30.9-0.2L564.9,633.9z"/>
	<path class="st5" d="M502.4,677.1c-15.9,0-31.5-0.8-47.2-2.5c31.3-3,62.9-3,94.2,0C533.8,676.5,518.1,677.3,502.4,677.1z"/>
	<path class="st3" d="M549.4,699.6l-25-0.4l-25-0.2l-50-0.2l-50,0.2l-24.8,0.2l-25,0.4l25,0.4l24.8,0.2l50,0.2l50-0.2l25-0.2
		L549.4,699.6z"/>
	<path class="st3" d="M549.4,708.5l-25-0.4l-25-0.2l-50-0.2l-50,0.2l-24.8,0.2l-25,0.4l25,0.4l24.8,0.2l50,0.2l50-0.2l25-0.2
		L549.4,708.5z"/>
	<path class="st3" d="M549.4,690.9l-25-0.4l-25-0.2l-50-0.2l-50,0.2l-24.8,0.2l-25,0.4l25,0.4l24.8,0.2l50,0.2l50-0.2l25-0.2
		L549.4,690.9z"/>
	<path class="st3" d="M549.4,717.2l-18.6-0.4l-18.8-0.2l-37.3-0.2l-37.5,0.2l-18.6,0.2l-18.8,0.4l18.8,0.4l18.6,0.2l37.5,0.2
		l37.3-0.2l18.8-0.2L549.4,717.2z"/>
	<path class="st3" d="M364.2,673.3c-0.4,0-0.8,0.2-1.1,0.4c-0.4,0.2-0.6,0.6-0.6,1.1c0,0.4,0.2,0.8,0.6,1.1c0.2,0.2,0.6,0.4,1.1,0.4
		c0.2,0,0.6-0.2,1.1-0.4c0.2-0.2,0.4-0.6,0.4-1.1c0-0.4-0.2-0.8-0.4-1.1C364.8,673.5,364.4,673.3,364.2,673.3z"/>
	<path class="st3" d="M359.5,673.3c-0.4,0-0.8,0.2-1.1,0.4c-0.4,0.2-0.6,0.6-0.6,1.1c0.2,0.4,0.2,0.8,0.6,1.1
		c0.2,0.2,0.6,0.4,1.1,0.4s0.6-0.2,1.1-0.4c0.2-0.2,0.4-0.6,0.4-1.1c0-0.4-0.2-0.8-0.4-1.1C360.2,673.5,359.9,673.3,359.5,673.3z"/>
	<path class="st3" d="M354.9,673.3c-0.4,0-0.8,0.2-1.1,0.4c-0.4,0.2-0.6,0.6-0.6,1.1c0,0.4,0.2,0.8,0.6,1.1c0.2,0.2,0.6,0.4,1.1,0.4
		c0.2,0,0.6-0.2,1.1-0.4c0.2-0.2,0.4-0.6,0.4-1.1c0-0.4-0.2-0.8-0.4-1.1C355.5,673.5,355.1,673.3,354.9,673.3z"/>
	<path class="st2" d="M564.9,754l-30.9-0.2l-30.9-0.2l-61.6-0.2l-61.6,0.2l-30.9,0.2l-30.7,0.2l30.7,0.2l30.9,0.2l61.6,0.2l61.6-0.2
		l30.9-0.2L564.9,754z"/>
	<path class="st5" d="M502.4,797.2c-15.9,0-31.5-0.8-47.2-2.5c31.3-3,62.9-3,94.2,0C533.8,796.3,518.1,797.2,502.4,797.2z"/>
	<path class="st3" d="M549.4,819.6l-25-0.4l-25-0.2l-50-0.2l-50,0.2l-24.8,0.2l-25,0.4l25,0.4l24.8,0.2l50,0.2l50-0.2l25-0.2
		L549.4,819.6z"/>
	<path class="st3" d="M549.4,828.3l-25-0.4l-25-0.2l-50-0.2l-50,0.2l-24.8,0.2l-25,0.4l25,0.4l24.8,0.2l50,0.2l50-0.2l25-0.2
		L549.4,828.3z"/>
	<path class="st3" d="M549.4,811l-25-0.4l-25-0.2l-50-0.2l-50,0.2l-24.8,0.2l-25,0.4l25,0.4l24.8,0.2l50,0.2l50-0.2l25-0.2
		L549.4,811z"/>
	<path class="st3" d="M549.4,837.2l-18.6-0.4l-18.8-0.2l-37.3-0.2l-37.5,0.2l-18.6,0.2l-18.8,0.4l18.8,0.4l18.6,0.2l37.5,0.2
		l37.3-0.2l18.8-0.2L549.4,837.2z"/>
	<path class="st3" d="M364.2,793.2c-0.4,0-0.8,0.2-1.1,0.4c-0.4,0.2-0.6,0.6-0.6,1.1c0,0.4,0.2,0.8,0.6,1.1c0.2,0.2,0.6,0.4,1.1,0.4
		c0.2,0,0.6-0.2,1.1-0.4c0.2-0.2,0.4-0.6,0.4-1.1c0-0.4-0.2-0.8-0.4-1.1C364.8,793.4,364.4,793.2,364.2,793.2z"/>
	<path class="st3" d="M359.5,793.2c-0.4,0-0.8,0.2-1.1,0.4c-0.4,0.2-0.6,0.6-0.6,1.1c0.2,0.4,0.2,0.8,0.6,1.1
		c0.2,0.2,0.6,0.4,1.1,0.4s0.6-0.2,1.1-0.4c0.2-0.2,0.4-0.6,0.4-1.1c0-0.4-0.2-0.8-0.4-1.1C360.2,793.4,359.9,793.2,359.5,793.2z"/>
	<path class="st3" d="M354.9,793.2c-0.4,0-0.8,0.2-1.1,0.4c-0.4,0.2-0.6,0.6-0.6,1.1c0,0.4,0.2,0.8,0.6,1.1c0.2,0.2,0.6,0.4,1.1,0.4
		c0.2,0,0.6-0.2,1.1-0.4c0.2-0.2,0.4-0.6,0.4-1.1c0-0.4-0.2-0.8-0.4-1.1C355.5,793.4,355.1,793.2,354.9,793.2z"/>
	<path class="st2" d="M564.9,873.8l-30.9-0.2l-30.9-0.2l-61.6-0.2l-61.6,0.2l-30.9,0.2l-30.7,0.2l30.7,0.2l30.9,0.2l61.6,0.2
		l61.6-0.2L534,874L564.9,873.8z"/>
	<path class="st2" d="M677.8,893.5l-44.9-0.2h-45.1l-89.8-0.2l-90,0.2h-44.9l-44.9,0.2l44.9,0.2l44.9,0.2h90h89.8l45.1-0.2
		L677.8,893.5z"/>
	<path class="st4" d="M674.8,502c-6.4-0.4-12.9-0.6-19.3-0.8C649,501,642.6,501,636,501c-6.4,0-12.9,0-19.3,0.2l-9.7,0.2
		c-3.2,0.2-6.6,0.4-9.7,0.6c3.2,0.2,6.6,0.4,9.7,0.6l9.7,0.4c6.4,0.2,12.9,0.2,19.3,0.2s12.9,0,19.5-0.2
		C661.9,502.7,668.4,502.7,674.8,502z"/>
	<path class="st1" d="M636,488.1c-19.3,0-34.9-15.7-34.9-34.9s15.7-34.9,34.9-34.9s34.9,15.7,34.9,34.9S655.3,488.1,636,488.1z"/>
	<path class="st1" d="M615.7,438.9c1.9,1.3,3.6,2.8,5.3,4l5.1,4.2l5.7,4.7c1.5,1.3,2.8,2.3,4.2,3.6l4.2-3.6c1.9-1.7,3.8-3.2,5.7-4.7
		l5.1-4.2c1.7-1.3,3.4-2.8,5.3-4H615.7z"/>
	<path class="st1" d="M653.6,462c1.3,1.1,2.8,2.1,4,3.2v-25c-1.7,1.5-3.4,3-5.1,4.7l-5.1,4.4c-1.7,1.5-3.4,3.2-5.1,4.7l-0.2,0.2
		l-0.2,0.2l0.4,0.2c1.1,0.6,2.3,1.3,3.2,2.1c1.1,0.6,2.8,1.7,4.2,2.8C651.1,460.3,652.4,461.2,653.6,462z"/>
	<path class="st1" d="M614.7,440.2v25c1.1-1.1,2.5-2.1,3.8-3.2c1.3-1.1,2.5-1.9,4-2.8c1.3-0.8,2.5-1.9,4-2.8
		c1.3-0.8,2.1-1.5,3.2-2.1l0.4-0.2h-0.2c0,0,0,0-0.2-0.2l-5.1-4.7l-5.1-4.4C617.8,443.4,616.1,441.9,614.7,440.2z"/>
	<path class="st1" d="M619.5,464.8c-1.5,0.8-3,1.9-4.4,2.5v0.8H657v-0.6l-4.4-2.8c-1.3-0.8-2.8-1.9-4-2.8c-1.5-0.8-2.8-1.9-4.2-3
		c-1.3-1.1-2.1-1.7-3.2-2.5l-0.2-0.2c-1.5,1.3-3.2,2.5-4.7,4l-0.2,0.2l-0.2-0.2l-4.7-4l-0.2,0.2c-1.1,0.8-2.1,1.7-3.2,2.5
		c-1.1,0.8-2.8,1.9-4,3C622.3,462.9,621,463.9,619.5,464.8z"/>
	<path class="st4" d="M674.8,742.6c-6.4-0.4-12.9-0.6-19.3-0.8c-6.6-0.2-12.9-0.2-19.5-0.2c-6.4,0-12.9,0-19.3,0.2l-9.7,0.4
		c-3.2,0.2-6.6,0.2-9.7,0.6c3.2,0.2,6.6,0.4,9.7,0.6l9.7,0.4c6.4,0.2,12.9,0.2,19.3,0.2s12.9,0,19.5-0.2
		C661.9,743.2,668.4,743.2,674.8,742.6z"/>
	<path class="st1" d="M602.2,701.9c-4.4-18.8,7-37.5,25.8-41.9c18.6-4.4,37.5,7.2,41.9,25.8c4.4,18.8-7,37.5-25.8,41.9
		C625.5,732.2,606.6,720.5,602.2,701.9z"/>
	<path class="st1" d="M615.5,711.6h41.1v-35.8h-41.3L615.5,711.6z M654,708.9h-36v-30.5h36V708.9z"/>
	<path class="st1" d="M655.3,710.4l-11.2-10.8l-10.2,10.8H655.3z"/>
	<path class="st1" d="M640.9,710.4l-13.3-16.9l-10.8,16.9H640.9z"/>
	<path class="st1" d="M640.7,692.4c0,0.8,0.2,1.5,0.6,2.1s1.1,1.3,1.9,1.5c0.6,0.2,1.5,0.4,2.1,0.2c0.8-0.2,1.5-0.4,2.1-1.1
		c0.6-0.6,0.8-1.3,1.1-1.9c0.2-0.8,0.2-1.5-0.2-2.3c-0.2-0.6-0.6-1.3-1.3-1.9c-0.6-0.6-1.5-0.6-2.3-0.6c-0.4,0-1.1,0-1.5,0.2
		c-0.4,0.2-0.8,0.4-1.3,0.8c-0.4,0.4-0.6,0.8-0.8,1.3C640.9,691.3,640.7,692,640.7,692.4z"/>
	<path class="st4" d="M674.8,863c-6.4-0.4-12.9-0.6-19.3-0.8C649,862,642.6,862,636,862c-6.4,0-12.9,0-19.3,0.2l-9.7,0.4
		c-3.2,0.2-6.6,0.4-9.7,0.6c3.2,0.2,6.6,0.4,9.7,0.6l9.7,0.4c6.4,0.2,12.9,0.2,19.3,0.2s12.9,0,19.5-0.2
		C661.9,863.7,668.4,863.5,674.8,863z"/>
	<path class="st1" d="M636,848.9c-19.3,0-34.9-15.7-34.9-34.9c0-19.3,15.7-34.9,34.9-34.9s34.9,15.7,34.9,34.9
		C671,833.4,655.3,848.9,636,848.9z"/>
	<path class="st1" d="M617.4,812.9c0,8.9,8.5,16.1,18.6,16.1c10.4,0,18.6-7.2,18.6-16.1s-8.3-16.1-18.6-16.1
		C625.9,796.8,617.4,804,617.4,812.9z"/>
	<path class="st1" d="M649.6,822l3.4,9.3l-11.9-3.6L649.6,822z"/>
	<path class="st4" d="M674.8,622.3c-6.4-0.4-12.9-0.8-19.3-0.8c-6.6-0.2-12.9-0.2-19.5-0.2c-6.4,0-12.9,0-19.3,0.2l-9.7,0.4
		c-3.2,0.2-6.6,0.2-9.7,0.6c3.2,0.2,6.6,0.4,9.7,0.6l9.7,0.2c6.4,0.2,12.9,0.2,19.3,0.2s12.9,0,19.5-0.2
		C661.9,622.9,668.4,622.7,674.8,622.3z"/>
	<path class="st1" d="M602.2,581.4c-4.4-18.8,7.2-37.5,25.8-41.9c18.6-4.4,37.5,7.2,41.9,25.8c4.4,18.8-7,37.5-25.8,41.9
		C625.5,611.9,606.6,600.3,602.2,581.4z"/>
	<path class="st1" d="M622.5,565.8c0.6-6.8,5.3-13.6,13.6-13.6s12.9,6.8,13.6,13.6c1.1,10.6-5.9,19.9-13.6,28.6
		C628.4,585.9,621.4,576.3,622.5,565.8z M636,573.4c1.5,0,3-0.4,4.2-1.3c1.1-0.8,2.1-1.9,2.8-3.4c0.4-1.3,0.6-3,0.2-4.2
		c-0.2-1.5-0.8-2.8-1.9-3.8s-2.3-1.7-3.8-2.1c-1.5-0.2-3-0.2-4.2,0.4c-1.5,0.6-2.5,1.5-3.4,2.8c-0.8,1.3-1.3,2.5-1.3,4
		c0,1.9,0.8,3.8,2.1,5.3C632.2,572.8,634.1,573.4,636,573.4z"/>
	<path class="st1" d="M443.8,290.7c2.5,10.6,8,20.1,15.9,27.5c8,7.4,17.8,12.3,28.6,14.4h0.4h0.2c7.4,1.3,15,1.1,22.2-0.8
		c2.5-0.6,4.9-1.3,7-2.3c0.4-0.2,0.8-0.2,1.3-0.4c0.2-0.2,0.6-0.2,1.1-0.4c2.3-0.8,4.7-2.1,6.8-3.6c8.9-5.5,15.9-13.1,20.5-22.4
		c4.7-9.1,6.6-19.5,5.7-29.6c-0.8-10.4-4.4-20.1-10.6-28.4c-5.9-8.3-14.2-14.8-23.7-18.6c-9.5-3.8-20.1-5.1-30.3-3.4
		s-19.7,6.1-27.3,12.9c-7.8,6.8-13.8,15.5-16.7,25.2C441.7,270,441.3,280.6,443.8,290.7L443.8,290.7z"/>
	<path class="st6" d="M486.8,306.4l0.2,0.8c0,0.2,0.2,0.6,0.2,0.8c0,0.2,0.2,1.3,0.4,1.9c0.2,1.1,0.6,2.3,0.8,3.8
		c0.2,0.4,0.2,1.1,0.2,1.7c0.2,1.1,0.4,1.9,0.6,3.2c0,1.3,0.2,2.3,0.2,3.6c0.2,1.3,0.2,2.3,0.2,3.6c0,0.6-0.2,1.3-0.2,1.9v0.4
		c-0.2,1.1-0.4,2.5-0.6,4.7c7.4,1.3,15,1.1,22.2-0.8c2.5-0.6,4.9-1.3,7-2.3c0.4-0.2,0.8-0.2,1.3-0.4c0.2-0.2,0.6-0.2,1.1-0.4
		c0-2.3-1.1-7.8-1.5-14.2c-0.2-3.2-0.4-6.8-0.6-10.2c0-0.8,0-1.5,0-2.3v-2.8c0-0.2-0.2-0.2-0.4-0.2c-0.6,0-1.3,0.2-1.9,0.6
		c-0.4,0.2-0.6,0.4-1.1,0.6l-2.1,0.4l-4.4,1.1l-20.3,4.7l-0.6,0.2L486.8,306.4z"/>
	<path class="st4" d="M489.5,327.6c0,0,0,0.2,0,0.4c1.1,0.2,2.1,0.2,3.2,0.2c21.2-0.2,23.9-27.1,23.9-27.1l-8.3,0.4l-21.6,5.1
		c1.9,6.4,2.8,12.7,3,19.3C489.7,326.1,489.5,326.9,489.5,327.6z"/>
	<path class="st6" d="M523.8,265.5c2.8,11.4-5.1,43-13.6,49.8c-12.1,9.7-30.7,9.5-38.7-4.7c-7.8-13.8,3.2-55.1,12.3-61
		C497.4,240.8,519.8,248.8,523.8,265.5z"/>
	<path class="st4" d="M493.1,285.9l0.2,0.2c-0.6,2.1-0.8,4.7,0.8,5.9C491.9,291.1,492.3,288,493.1,285.9z"/>
	<path class="st4" d="M495.7,284.2c3.4,0.6,2.1,7.6-1.3,7C491.2,290.9,492.7,283.7,495.7,284.2z"/>
	<path class="st4" d="M480.2,282.9c0,0-0.2,0-0.2,0.2c-0.4,2.1-1.1,4.7-3.2,4.9c0,0,0,0,0,0.2C479.2,288.2,480.2,285,480.2,282.9z"
		/>
	<path class="st4" d="M478.7,280.3c-3.4-0.8-5.1,5.9-1.9,6.8C480,288,481.7,281,478.7,280.3z"/>
	<path class="st4" d="M499.1,281.6c-0.8-0.4-1.7-0.8-2.5-1.5c-1.1-0.6-1.9-1.1-2.3-2.1c0-0.4,0-0.6,0-1.1c0.2-0.4,0.4-0.6,0.6-0.8
		c0.6-0.2,1.3-0.4,1.9-0.4c0.6,0,1.3,0.4,1.9,0.6c1.1,0.6,2.1,1.7,2.5,3c0.2,0.2,0.2,0.6,0,0.8c0,0.2-0.2,0.6-0.4,0.8
		c-0.2,0.2-0.6,0.4-0.8,0.4C499.7,281.6,499.3,281.6,499.1,281.6z"/>
	<path class="st4" d="M476.6,276.1c1.1,0,1.9,0,3-0.2c1.1,0,2.1-0.2,3-0.8c0.2-0.2,0.4-0.4,0.4-0.8c0-0.4,0-0.6-0.2-0.8
		c-0.4-0.4-0.8-0.8-1.5-1.3c-0.6-0.4-1.3-0.4-1.9-0.2c-1.5,0-2.8,0.4-3.8,1.5c-0.2,0.2-0.4,0.4-0.4,0.8c0,0.2,0,0.6,0,0.8
		c0.2,0.2,0.4,0.6,0.6,0.6C476,276.1,476.4,276.1,476.6,276.1z"/>
	<path class="st4" d="M491.4,305.5c-0.6,0.4-1.3,1.1-2.1,0.8c-0.8-0.2-1.5-0.4-2.3-1.1l0,0c0.4,0.4,0.6,0.8,1.1,1.3
		c0.4,0.2,1.1,0.4,1.5,0.4c0.4,0,1.1-0.2,1.3-0.4C491.2,306.4,491.4,306,491.4,305.5C491.6,305.5,491.4,305.5,491.4,305.5z"/>
	<path class="st4" d="M490.4,298.6c-0.6,0.6-1.5,1.3-2.5,1.7c-0.8,0.4-1.9,0.6-3,0.6c-0.8,0-1.9-0.2-2.8-0.4l-0.4-0.2l-0.4-0.2
		c-0.2,0-0.2-0.2-0.2-0.2c-0.2,0-0.2-0.2-0.2-0.4v-0.2V299c0.2-1.7,1.1-4.2,1.1-4.2c-0.8,0.2-4.2,0.8-3.8,0c1.7-7.4,4-14.8,7.2-21.6
		c0.2-0.2,0.4,0,0.4,0c-1.5,7-4.2,13.6-5.9,20.3c1.3-0.2,2.5-0.4,3.6-0.4c0.2,0-1.3,4.7-1.3,5.5c1.3,0.4,2.8,0.6,4,0.4
		c1.5-0.2,2.8-0.6,4-1.3C490.4,298.3,490.6,298.3,490.4,298.6z"/>
	<path class="st4" d="M483.4,299.8c0.6,1.5,1.7,2.5,3,3.4c0.6,0.4,1.5,0.6,2.3,0.6c1.7,0,2.1-1.7,2.1-3.2c0-0.8-0.2-1.5-0.4-2.3
		C488.3,299.6,485.7,300.2,483.4,299.8z"/>
	<path class="st7" d="M486.4,303.2c0.6,0.4,1.5,0.6,2.3,0.6c1.7,0,2.1-1.7,2.1-3.2c-1.1-0.2-1.9,0-2.8,0.4
		C487.2,301.7,486.6,302.4,486.4,303.2z"/>
	<path class="st4" d="M520.9,293.3c0,0,11.2-18,10.4-28.4c-0.2-4.7-6.8-8-6.8-8c0.6-1.9,0.6-4,0-5.9c-0.4-1.9-1.5-3.6-3-4.9
		c-5.5-5.3-19.3-4.4-19.3-4.4s-8.5-12.9-21-8c-12.5,4.9-4.9,19.1-4.9,19.1s-4.7,6.4,6.4,11.6c11.2,5.3,33.2,0.8,33.2,0.8
		c-1.3,7.6-1.3,15.5-0.2,23.1c0.2,1.3,0.8,2.5,1.7,3.4C518.3,292.2,519.6,292.8,520.9,293.3z"/>
	<path class="st4" d="M500.1,241.6c3-1.1,5.9-1.5,8.9-1.5c2.5,0,5.3,0.4,7.8,1.5c2.3,0.6,4.2,1.9,5.9,3.8c1.5,1.7,2.5,3.8,3,6.1
		c0.2,1.3,0.2,2.5-0.2,3.6c-0.2,1.1-0.8,2.3-1.5,3.2h-0.2c3-3.4,1.5-9.1-1.3-12.1c-3.6-3.2-8.3-5.1-13.1-5.1
		c-3.2-0.2-6.1,0.2-9.1,0.8c-0.2,0-0.2,0-0.2,0s0,0,0-0.2C500.1,241.8,500.1,241.6,500.1,241.6L500.1,241.6z"/>
	<path class="st4" d="M472.2,239.1c0.6-1.7,1.7-3.2,3-4.2c1.3-1.1,3-1.9,4.7-2.3c3.8-1.1,8-0.8,11.9,0.6c3.6,1.5,7,4,9.3,7.4
		c0,0,0,0.2,0,0c-2.3-2.8-5.1-5.1-8.5-6.4c-3.4-1.3-7-1.7-10.6-1.1c-1.7,0.2-3.4,0.8-4.7,1.7c-1.5,0.8-2.5,2.1-3.4,3.6
		c-0.8,1.5-1.1,3-1.1,4.7c0,1.7,0.2,3.2,1.1,4.7c1.7,3.4,4.4,6.1,7.8,8.3c0,0,0,0.2,0,0c-3.2-1.7-5.9-4-7.8-7
		c-1.1-1.5-1.7-3-1.9-4.7C471.7,242.4,471.7,240.8,472.2,239.1z"/>
	<path class="st4" d="M480.2,264.5c4.9,2.1,10.2,3.2,15.5,3.2c5.7,0,11.2-0.6,16.7-1.9c3-0.6,6.1-1.5,9.3-2.3c0,0,0.2,0.2,0,0.2
		c-5.5,2.3-11,3.8-16.9,4.9c-5.3,0.8-10.8,0.6-16.3-0.4C485.7,267.2,482.8,266.2,480.2,264.5C480.2,264.7,480,264.5,480.2,264.5z"/>
	<path class="st6" d="M515.4,291.4c0,0,8-9.7,12.5-6.8c4.4,3-2.1,17.6-7.8,19.3c-0.6,0.2-1.5,0.4-2.1,0.2c-0.8,0-1.5-0.2-2.3-0.6
		c-0.6-0.4-1.3-0.8-1.7-1.5c-0.4-0.6-0.8-1.3-1.1-1.9L515.4,291.4z"/>
	<path class="st4" d="M525.9,288.6C525.9,288.6,525.9,288.8,525.9,288.6c-1.9,0.8-3.6,1.9-4.9,3.4c-1.5,1.5-2.5,3.2-3.2,5.1
		c0.2-0.4,0.6-0.6,0.8-0.8c0.4-0.2,0.8-0.4,1.3-0.4c0.6,0,1.1,0,1.5,0.2s0.8,0.4,1.1,0.6v0.2c-0.8-0.2-1.5-0.4-2.1-0.2
		c-0.8,0.2-1.5,0.4-1.9,1.1c-0.8,0.8-1.5,1.9-2.1,3c-0.2,0.4-0.6,0-0.6-0.2C516.2,295.4,520.7,288.8,525.9,288.6z"/>
	<path class="st6" d="M627.8,978.4c5.3,1.7,156.9-0.2,162.6-4c2.1-1.5,3.2-23.5,3.6-50.2v-0.8c0-5.5,0.2-11.2,0.2-16.9
		c0-0.8,0-1.7,0-2.3l-7.4-78.8l-101.4,1.1l10,77.9l0.2,3l0.6,16.1v1.7c0,0-57.8,26.7-63.5,31.5C626.7,961.5,622.5,976.7,627.8,978.4
		z"/>
	<path class="st0" d="M627.8,978.4c5.3,1.7,156.9-0.2,162.6-4c2.1-1.5,3.2-23.5,3.6-50.2v-0.8c0-5.5,0.2-11.2,0.2-16.9
		c0-0.8,0-1.7,0-2.3l-98.9,0.2l0.2,3l0.6,16.1v1.7c0,0-57.8,26.7-63.5,31.5C626.7,961.5,622.5,976.7,627.8,978.4z"/>
	<path class="st1" d="M627.8,978.4c2.8,0.8,43.8,0.8,84.1,0c8-0.2,16.1-0.4,23.7-0.6c28.8-0.8,52.5-1.9,54.6-3.4
		c2.3-1.5,3.2-22.9,3.6-49.1c0-0.4,0-0.6,0-1.1s0-0.6,0-0.8l-97.6,0.2v1.7c0,0-57.8,26.7-63.5,31.5
		C626.7,961.5,622.5,976.7,627.8,978.4z"/>
	<path class="st4" d="M629.3,972.5c25.6-1.1,128.7-2.3,153.9-1.5c0.2,0,0.2,0.2,0,0.2c-25.2,1.5-128.3,2.1-153.9,1.7
		C628.8,972.9,628.8,972.5,629.3,972.5z"/>
	<path class="st4" d="M685.4,924c10-1.9,22.2-0.6,30.1,6.4c0.2,0.2,0,0.6-0.4,0.6c-9.7-3-19.7-4.9-29.6-5.7c-0.2,0-0.2,0-0.4-0.2
		c0-0.2-0.2-0.2-0.2-0.4s0-0.2,0.2-0.4C685,924,685.2,924,685.4,924z"/>
	<path class="st4" d="M678.2,928.5c10-2.1,22.2-0.6,30.1,6.4c0.2,0.2,0,0.6-0.4,0.6c-9.7-3-19.7-4.9-29.6-5.7
		c-0.2,0-0.2-0.2-0.4-0.2c0-0.2-0.2-0.2-0.2-0.4s0-0.2,0.2-0.4C677.8,928.5,678,928.5,678.2,928.5z"/>
	<path class="st4" d="M670.8,932.9c10.2-2.1,22.4-0.6,30.3,6.4c0.2,0.2,0,0.6-0.4,0.6c-9.7-3-19.7-4.9-29.9-5.7c0,0-0.2,0-0.4-0.2
		c0-0.2-0.2-0.2-0.2-0.4c0-0.2,0.2-0.4,0.2-0.4C670.6,932.9,670.8,932.9,670.8,932.9z"/>
	<path class="st4" d="M711.8,978.4c8-0.2,16.1-0.4,23.7-0.6c28.8-0.8,52.5-1.9,54.6-3.4c2.3-1.5,3.2-22.9,3.6-49.1
		c0-0.4,0-0.6,0-1.1s0-0.6,0-0.8C780.4,932.7,733.4,964,711.8,978.4z"/>
	<path class="st8" d="M689.6,923.8h109c0,0-21.8-254.9-21-259.6c1.1-5.7,7.4-31.5,16.1-65.2c2.5-10.6,5.5-21.8,8.5-33.7
		c8.3-31.8,17.1-66.3,25-96.6c11.9-45.3,21-80.2,21-80.2h-92.5c0,0-10.8,34.1-24.3,78.6c-22.2,72.4-51.9,171.9-54.8,196.1
		C671.8,702.3,689.6,923.8,689.6,923.8z"/>
	<path class="st4" d="M694.3,905.2c16.7-0.4,11.9-0.4,28.6-0.6c8.3,0,61.8-0.6,69.4,0.6h0.2c0,0,0,0,0,0.2v0.2h-0.2
		c-7.6,1.3-61.2,0.8-69.4,0.6c-16.5-0.2-11.9-0.2-28.6-0.6l0,0c-0.2,0-0.2-0.2-0.2-0.2S694.1,905.4,694.3,905.2L694.3,905.2z"/>
	<path class="st4" d="M757.2,648.8c3.4-15.7,8.9-31.3,13.6-46.8c9.3-31.5,18.8-62.9,28.6-94.4c4.7-15.9,9.5-31.5,14.4-47.2
		c2.3-7.8,4.9-15.9,7.2-23.7c2.5-8,5.3-15.5,7.4-23.3c1.1-3.2,1.5-1.5,0.2,2.5c-2.3,8-4.4,16.3-6.8,24.3
		c-4.9,16.1-9.5,32.2-14.4,48.3c-9.3,32-18.8,63.9-28.6,95.9c-4.7,16.1-9.5,32-14.4,48.1c-2.5,7.6-4.4,15.5-5.9,23.3
		c-1.3,8.3-1.5,16.5-0.8,24.8c0.8,16.5,3,33.5,4.4,50l4.7,50.2c3.2,33.2,6.1,66.5,9.1,99.7c0.4,4.2,0.8,8.5,1.1,12.7
		c0.2,1.5-0.8,1.5-1.1,0.2c-3.6-32.8-7.4-66.1-10.6-99.1c-3-33-6.1-65.4-9.1-98.2c-0.8-8.3-1.7-16.5-1.7-24.8
		C754.4,663.8,755.3,656.2,757.2,648.8z"/>
	<path class="st4" d="M766.1,388.5c6.6,49.8,18.8,142.9,27.7,210.5c20.7-81.9,54.4-210.5,54.4-210.5H766.1z"/>
	<path class="st6" d="M743.4,979.9c5.3,1.7,156.9,0.4,162.6-3.4c2.3-1.5,3.4-23.5,3.8-50.2c0-0.2,0-0.4,0-0.8
		c0-5.5,0.2-11.2,0.2-16.9c0-0.8,0-1.7,0-2.3c0.4-38.5-2.3-78.8-2.3-78.8l-99.1,0.6l2.8,77.9v3.2l0.6,16.1v1.7
		c0,0-57.8,26.5-63.7,31.3C742.3,963.2,738.1,978.2,743.4,979.9z"/>
	<path class="st0" d="M743.4,979.9c5.3,1.7,156.9,0.4,162.6-3.4c2.3-1.5,3.4-23.5,3.8-50.2c0-0.2,0-0.4,0-0.8
		c0-5.5,0.2-11.2,0.2-16.9c0-0.8,0-1.7,0-2.3h-98.7v3l0.4,16.1v1.7c0,0-57.8,26.5-63.5,31.3C742.3,963,738.1,978.2,743.4,979.9z"/>
	<path class="st1" d="M743.4,979.9c5.3,1.7,156.9,0.4,162.6-3.4c2.3-1.5,3.4-23.5,3.8-50.2c0-0.2,0-0.4,0-0.8l-97.8-0.2v1.7
		c0,0-57.8,26.5-63.7,31.3C742.5,963,738.1,978.2,743.4,979.9z"/>
	<path class="st4" d="M745.1,974c25.6-0.8,128.7-1.9,153.9-0.8c0.2,0,0.2,0.2,0,0.2c-25.4,1.5-128.5,1.7-153.9,1.1
		C744.5,974.4,744.5,974,745.1,974z"/>
	<path class="st4" d="M801.2,925.5c10-1.9,22.2-0.4,30.1,6.6c0.2,0.2,0,0.6-0.4,0.6c-9.7-3-19.7-4.9-29.6-5.9c-0.2,0-0.4,0-0.6-0.2
		c0-0.2,0-0.2,0-0.4s0-0.4,0-0.4C800.8,925.7,801,925.5,801.2,925.5z"/>
	<path class="st4" d="M794,929.9c10-1.9,22.4-0.4,30.1,6.6c0.4,0.2,0,0.6-0.4,0.6c-9.5-3-19.5-5.1-29.6-5.9c-0.2,0-0.2-0.2-0.4-0.2
		c0,0,0-0.2,0-0.4s0-0.2,0-0.4C793.8,930.2,793.8,930.2,794,929.9z"/>
	<path class="st4" d="M786.8,934.6c10-1.9,22.2-0.6,30.1,6.6c0.2,0.2,0,0.6-0.4,0.6c-9.7-3-19.7-5.1-29.6-5.9c-0.2,0-0.2,0-0.4-0.2
		c0-0.2-0.2-0.2-0.2-0.4c0-0.2,0.2-0.2,0.2-0.4C786.4,934.6,786.6,934.6,786.8,934.6z"/>
	<path class="st8" d="M758.4,388.5c0,0,2.1,44.3,12.3,79.4c0.8,3,1.7,5.7,2.8,8.5c9.3,3.8,18.2,8.3,26.7,13.8c0,0,1.1,35.6,2.1,75.4
		c1.1,44.5,2.3,94,2.1,104.4c-0.8,39.4,4.9,255.6,4.9,255.6l109.3,0.4c0,0-19.7-241.4-19.7-255.8c0.2-23.1-5.3-125.6-9.3-200.1
		c-2.8-45.9-4.9-81.3-4.9-81.3L758.4,388.5z"/>
	<path class="st4" d="M813.1,906c16.7-0.2,11.9-0.4,28.6-0.4c8.3,0,61.8-0.2,69.4,1.1h0.2c0,0,0,0,0,0.2l0,0h-0.2
		c-7.6,1.3-61.2,0.6-69.4,0.4c-16.5-0.2-11.9-0.4-28.6-0.8l0,0l0,0c-0.2,0-0.2,0-0.2,0l0,0l0,0C812.8,906.2,813.1,906,813.1,906
		L813.1,906L813.1,906z"/>
	<path class="st4" d="M875.5,404.4c2.1,61,4.2,121.7,7,182.7c2.5,61,16.9,279.7,20.5,313.8c0,0.2-0.2,0.2-0.2,0
		c-8-60.3-12.5-149.9-16.3-210.7c-4-60.8-6.6-121.7-8.7-182.5c-1.1-34.5-2.1-68.8-3.2-103.3C874.7,404,875.5,404,875.5,404.4z"/>
	<path class="st4" d="M769,473.9c10.8,4.4,21.2,10,31.1,16.3c0.4,0.2,0,0.8-0.2,0.6c-10.6-5.1-21.4-10-31.5-15.7
		c-0.2,0-0.2-0.2-0.4-0.4c0-0.2,0-0.4,0.2-0.4c0-0.2,0.2-0.2,0.2-0.4C768.6,473.7,768.8,473.7,769,473.9z"/>
	<path class="st4" d="M768.4,436.2c0.6,3.8,1.7,7.8,2.5,11.6c0.8,3.8,1.3,7.2,2.3,10.8c0.8,3.4,2.5,6.6,5.1,9.1
		c1.5,1.3,3,2.5,4.4,3.8c0.8,0.6,1.7,1.3,2.5,1.9l-0.2-1.5c-0.2-1.5-0.6-3-0.8-4.4c-0.4-3.2-1.1-6.6-1.5-9.7
		c-1.1-6.4-1.9-12.9-3.4-19.3c0.2,0,0.2,0,0.2,0l0,0c0.2,0,0.2,0,0.2,0l0,0c1.7,6.4,3.4,12.5,4.9,19.1c0.6,3.2,3.2,18.6,3.2,19.7
		c0,1.1,0.2,2.3,0.2,3.4c0.2,1.1,0.2,2.3,0,3.4c0,0,0,0,0,0.2c-0.2,0-0.2,0-0.2,0h-0.2c0,0,0,0,0-0.2c-0.6-1.1-0.8-2.1-1.1-3.4
		c-0.2-1.1-0.4-2.3-0.6-3.4c0-0.4-0.2-0.8-0.2-1.3c-1.5-0.8-3-2.1-4.4-3.2c-1.3-1.1-3-2.1-4.4-3.4c-2.8-2.3-4.7-5.3-5.5-8.7
		c-1.1-3.6-1.7-7.4-1.9-11c-0.4-4.4-0.8-8.9-1.5-13.1C768,436,768.4,436,768.4,436.2z"/>
	<path class="st6" d="M818.4,270.2c-17.4,23.7-71.6,63.3-94.2,62.5c-16.5-0.6-67.3-53.1-81.1-70.3c-13.3-16.5,40.7-48.3,48.7-38.7
		c12.9,15.5,37.7,51,40.4,51.7c4.4,0.8,31.5-7.4,72.8-23.3C830.2,242.2,828.7,256.2,818.4,270.2z"/>
	<path class="st6" d="M631.6,240.5c3.4,12.1,20.3,33.9,26.5,37.5c6.1,3.8,44-23.7,44.3-31.1c0.2-7.4-14.8-46.8-25.4-54.2
		C666.5,185.5,627.8,228.3,631.6,240.5z"/>
	<path class="st6" d="M685.8,208.6c-4,5.3-11.9,14.4-12.5,14c0.4,0.6,7.2,10.4,2.1,15.9c-4.9,5.5-11.6-2.8-12.1-3.4
		c0.2,0.6,2.8,9.1-1.9,12.5c-8,5.7-15.2-15.9-22.7-19.3c0,0-7.2,11.9-7.2,12.1c-0.2,0.2-7.4-20.5-2.5-30.1c0.8-1.5,1.9-2.5,3.4-3.2
		c1.5-0.6,3.2-0.8,4.7-0.4c0,0-3.2-6.4,0.6-10.8c1.9-2.3,7.2-1.3,7.2-1.3s-14.8-34.9-4.4-37.3c10.4-2.3,23.3,36,23.3,36
		s-10.4-38.7,0-40.9C674.8,150.3,687.7,206,685.8,208.6z"/>
	<path class="st4" d="M644.9,194.8c0,0,0-0.2,0.2-0.2c12.7,5.7,22.9,15.7,28.8,28.2c0.2,0.4,0,1.1-0.4,0.6
		C669.1,214.7,654.7,200.7,644.9,194.8z"/>
	<path class="st4" d="M663.4,236.3c-5.7-12.3-15-21.4-25.8-29.2c0,0,0-0.2,0.2-0.2c6.4,2.3,12.7,8.3,17.1,13.1
		c4.4,4.4,7.4,10,8.9,16.1C664,236.3,663.6,236.5,663.4,236.3z"/>
	<path class="st4" d="M638.8,228.5c1.5,1.1,3,2.3,3.8,4c1.3,1.5,2.3,3.2,3.4,4.7c1.9,3.2,4.2,6.4,7,9.1c1.3,1.5,3.2,2.5,5.1,3.2
		c1.1,0.2,2.3,0,3.4-0.4c1.1-0.4,1.9-1.3,2.5-2.1c1.1-1.9,1.5-3.8,1.3-5.9c0-0.6,0-1.3,0-1.7c0.8,1.1,2.1,1.7,3.4,2.3
		c1.3,0.6,3,0.8,4.4,0.4c1.3-0.4,2.5-1.3,3.6-2.3c0.8-1.1,1.5-2.5,1.9-3.8c0.2-1.3,0.2-2.8,0-4.2c-1.5-4.7-3.8-9.1-7-12.9v1.9
		c2.3,3.4,4,7.2,4.9,11.2c0.2,1.1,0.2,2.3,0,3.4c-0.4,1.1-0.8,2.1-1.5,3c-0.6,0.8-1.5,1.5-2.5,1.7c-1.1,0.2-2.1,0.2-3-0.4
		c-2.1-1.1-4-2.5-5.3-4.4l-3.8-5.3l1.9,6.1c0.4,1.7,0.8,3.6,0.8,5.3c0.2,1.7-0.2,3.4-1.1,4.7c-0.4,0.6-0.8,1.3-1.5,1.5
		c-0.8,0.4-1.5,0.4-2.3,0.4c-1.7-0.4-3.2-1.3-4.4-2.5c-2.5-2.5-5.1-5.5-7.2-8.5c-1.3-1.5-2.3-3-3.6-4.4
		C642,230.8,640.5,229.5,638.8,228.5z"/>
	<path class="st6" d="M701,239.9c0,0,6.1-52.9-15.7-45.1c-6.6,2.3-30.5,19.5-27.1,24.3c4.2,6.4,15.7,1.1,22.2-3.4
		c0,0-4.7,17.8,6.6,24.6c2.1,1.3,4.7,1.9,7,1.7C696.6,241.8,698.9,241.2,701,239.9z"/>
	<path class="st4" d="M687.3,194.2c-2.8,0.6-5.3,1.5-7.6,3c-2.3,1.3-4.7,2.8-7,4.2c-4.4,3.2-8.7,6.6-12.5,10.4
		c-1.1,1.1-1.9,2.1-2.5,3.4c-0.4,0.6-0.8,1.5-0.8,2.3c0,0.4,0,0.8,0.2,1.5c0.2,0.4,0.2,0.8,0.6,1.3c0.8,1.3,2.3,2.3,3.8,2.8
		c1.5,0.4,3,0.4,4.4,0.2c2.8-0.4,5.5-1.3,8-2.5c2.5-1.3,4.9-2.5,7.2-4.2l-1.5-1.1c-0.4,2.1-0.8,4-0.8,6.1c0,2.1,0,4,0.4,6.1
		c0.4,2.1,1.1,4,1.9,5.9c0.8,1.9,2.1,3.4,3.8,4.7c-1.5-1.5-2.5-3.2-3.2-5.1c-0.8-1.9-1.3-3.8-1.5-5.7c-0.2-4,0-7.8,1.1-11.6l0.8-2.3
		l-2.1,1.3c-2.3,1.5-4.7,2.8-7,3.8c-2.3,1.3-4.9,1.9-7.4,2.3c-1.1,0.2-2.3,0.2-3.4-0.2c-1.1-0.4-2.1-0.8-2.8-1.7
		c-1.3-1.5,0.4-3.8,2.3-5.7c1.7-1.9,3.6-3.8,5.7-5.5c1.9-1.7,4-3.6,6.1-5.1C677.8,199,682.4,196.3,687.3,194.2z"/>
	<path class="st1" d="M745.7,271.5l12.7,56.5c0,0,32.6-26.3,53.6-47.6c21-21.6,26-40-3.8-31.1S745.7,271.5,745.7,271.5z"/>
	<path class="st9" d="M783.2,257.5l10,40.9l-1.9,1.7l-10.2-41.9L783.2,257.5z M772.6,261.3l11,45.5l-1.9,1.7l-11.2-46.4L772.6,261.3
		z M762.2,265.1l12.1,49.8l-1.9,1.7l-12.3-50.6L762.2,265.1z M751.7,269.1l13.1,53.8l-1.9,1.5L749.7,270L751.7,269.1z"/>
	<path class="st4" d="M757.6,270.6c1.3,4,2.1,8,3,12.3c0.8,4,1.7,8,2.5,12.1c1.7,8,3.4,16.3,4.4,24.3c0,0,0,0,0,0.2
		c-0.2,0-0.2,0-0.2,0s0,0-0.2,0c0,0,0,0,0-0.2c-2.3-8-3.8-16.1-5.5-24.1c-0.8-4-1.7-8-2.3-12.1c-0.8-4-1.7-8.3-2.1-12.3l0,0
		c0.2,0,0.2,0,0.2,0l0,0C757.6,270.6,757.6,270.6,757.6,270.6z"/>
	<path class="st10" d="M752.9,302.8l5.5,25.2c0,0,32.6-26.3,53.6-47.6c16.7-17.2,23.3-32.4,10.2-33.5L752.9,302.8z"/>
	<path class="st1" d="M896.1,454.4c-0.4,0.4-160.3-10.6-161.8-12.3c-1.7-2.3,48.9-164.9,61.6-188.9c5.3-10.2,31.1-11.6,41.5-1.9
		c25.6,24.1,43.4,101.8,47,125.3C890.8,415,897.5,452.9,896.1,454.4z"/>
	<path class="st9" d="M795.7,253.5l46.8,3.4c-0.6-0.8-1.3-1.7-1.9-2.3l-43.6-3.2c-0.4,0.6-0.8,1.1-1.1,1.7
		C795.7,253.2,795.7,253.5,795.7,253.5z M791.9,262.1l57,4c0.4,0.8,0.8,1.5,1.3,2.3l-59.1-4.2C791.2,263.6,791.5,262.8,791.9,262.1z
		 M787.6,272.9l67.3,4.7l1.1,2.3l-69.2-4.9C787,274.4,787.4,273.8,787.6,272.9L787.6,272.9z M783.6,283.7l76.4,5.5l1.1,2.3
		l-78.3-5.5C783.2,285.2,783.4,284.6,783.6,283.7z M779.8,294.7l84.7,5.9c0.2,0.8,0.6,1.5,0.8,2.3l-86.4-6.1
		C779.4,296,779.6,295.4,779.8,294.7z M776,305.5l92.5,6.6c0.2,0.6,0.4,1.5,0.6,2.3l-93.8-6.6C775.6,307,775.8,306.2,776,305.5
		L776,305.5z M772.4,316.3l99.5,7.2c0.2,0.8,0.4,1.5,0.6,2.3l-100.8-7.2C772,317.8,772.2,317.2,772.4,316.3L772.4,316.3z
		 M768.8,327.1l106.3,7.6c0.2,0.8,0.4,1.5,0.6,2.3l-107.6-7.6C768.4,328.6,768.6,328,768.8,327.1L768.8,327.1z M765.2,338.1l112.9,8
		c0.2,0.8,0.4,1.5,0.6,2.3l-114.1-8L765.2,338.1z M761.8,348.9l119,8.5c0,0.8,0.2,1.5,0.4,2.3l-120.1-8.7
		C761.4,350.4,761.6,349.6,761.8,348.9L761.8,348.9z M758.2,359.7l124.9,8.9c0,0.8,0.2,1.5,0.4,2.1l-126-8.9
		C757.8,361.2,758,360.6,758.2,359.7L758.2,359.7z M754.8,370.8l130.2,9.1l0.4,2.1l-131.3-9.3C754.4,372.2,754.6,371.4,754.8,370.8
		L754.8,370.8z M751.4,381.6l135.5,9.7l0.2,2.1l-136.4-9.7C751,383,751.2,382.4,751.4,381.6L751.4,381.6z M748.1,392.6l140.6,10
		c0,0.6,0.4,1.5,0.4,2.3l-141.7-10C747.6,393.8,747.8,393.2,748.1,392.6L748.1,392.6z M744.9,403.4l145.7,10.4l0.4,2.1l-146.7-10.4
		C744.2,404.8,744.7,404,744.9,403.4L744.9,403.4z M741.5,414.2l151,10.6l0.4,2.3l-152-10.8L741.5,414.2z M738.5,425.2l155.6,11.2
		c0,0.8,0.2,1.5,0.4,2.1l-156.7-11C738.1,426.7,738.3,425.8,738.5,425.2L738.5,425.2z M735.6,436l160.3,11.4c0,0.8,0.2,1.5,0.2,2.1
		l-160.9-11.4C735.1,437.7,735.4,436.8,735.6,436L735.6,436z"/>
	<path class="st6" d="M862.2,271c21.6,20.7,79,94.6,70.9,118.6c-7.2,21.4-51.2,58.2-70.3,75.6c-7,6.4-57.6-49.3-51-54.2
		c9.7-7.2,52.9-46.6,53.6-49.8s-12.9-39.4-29.2-83.2C820.9,236.9,848.8,258.1,862.2,271z"/>
	<path class="st6" d="M816.9,407.4c0,0-23.3,16.7-37.9,28.4c-8.3,6.6-21.2,18.8-25,26.5c-5.9,11.2-22.4,61.8-10.4,66.3
		c11,3.8,19.9-41.5,19.9-41.5s-12.9,44.9,1.3,47.2c14.2,2.1,17.4-50.6,17.4-50.6s-12.3,46.6,2.8,46.6c11.2,0,16.9-47.4,16.9-47.4
		s-10.4,40,1.3,40.7c12.9,0.6,20.7-43,20.7-43c29.6-3.6,43.2-16.5,50.2-28.6C875.7,449.3,816.9,407.4,816.9,407.4z"/>
	<path class="st4" d="M766.5,473.2c-12.1,32.4-8,51.9-8,51.5c0-12.7,4.2-32,5.5-37.5C765,481.9,765.4,478.5,766.5,473.2
		C766.7,473.2,766.7,473,766.5,473.2z"/>
	<path class="st4" d="M786.6,475.1c-5.5,12.9-8.7,26.7-9.3,40.7c0,0.4,0.2,0.4,0.2-0.2C779,508.8,784.9,482.1,786.6,475.1
		L786.6,475.1z"/>
	<path class="st4" d="M803.7,475.8c-4,10-6.1,20.7-6.1,31.5c0,0.4,0.4,0.2,0.4-0.2c1.9-10.6,3.2-19.1,6.1-31.3
		C804.2,475.8,804,475.6,803.7,475.8z"/>
	<path class="st1" d="M855.8,335.8l56.3-13.8c0,0-26.7-32.2-48.7-52.7c-21.8-20.7-40.4-25.2-30.9,4.4
		C842.1,303.4,855.8,335.8,855.8,335.8z"/>
	<path class="st9" d="M841,297.9l41.3-9.5l1.7,1.9l-42.3,10C841.4,299.2,841.2,298.6,841,297.9z M844.8,308.5l45.9-10.8l1.7,1.9
		l-46.8,11C845.5,309.8,845.2,308.9,844.8,308.5z M848.8,318.9l50.4-11.6l1.7,1.9L849.7,321L848.8,318.9z M853.1,329.3l54.4-12.7
		c0.4,0.6,1.1,1.3,1.5,1.9l-55.1,12.9C853.7,330.5,853.3,329.9,853.1,329.3L853.1,329.3z"/>
	<path class="st4" d="M854.3,325.2c3.8-1.5,8-2.3,12.1-3.6s7.8-2.1,11.9-3.2c8-2.1,15.9-4.2,24.1-5.7l0,0c0.2,0,0.2,0,0.2,0.2
		c0,0,0,0-0.2,0.2l0,0c-7.8,2.8-15.9,4.7-23.9,6.8c-4,1.1-8,1.9-11.9,3c-3.8,0.8-8,2.1-12.3,2.8c0,0,0,0-0.2,0c0,0,0,0,0-0.2
		c0-0.2,0,0,0-0.2C854.1,325,854.3,325.2,854.3,325.2z"/>
	<path class="st4" d="M839.1,292.6c0.8,3.8,1.9,7.4,3.2,11.2c1.3,3.6,2.3,7.2,3.8,11c1.5,3.6,2.8,7.2,4.4,10.8
		c1.5,3.6,3.2,7,5.1,10.4l1.5-0.4l-1.5,0.2h0.2c-1.5-3.6-3-7-4.2-10.8l-4-10.8c-1.3-3.6-2.8-7.2-4.2-10.8
		C841.9,299.4,840.8,296.2,839.1,292.6z"/>
	<path class="st4" d="M839.3,300.5c0.4,1.7,1.1,3.4,2.1,4.9c0.8,1.5,2.3,2.8,3.8,3.8c-0.4-0.8-1.1-1.5-1.5-2.3l-1.5-2.1
		C841.4,303.4,840.4,301.9,839.3,300.5z"/>
	<path class="st6" d="M800.8,274.6c8,1.9,23.7-11.2,29.2-21.2c0.4-0.6-0.6-7.8-1.3-16.5c-0.6-5.3-0.8-11.2-0.8-16.7
		c0-1.1-3.8,0.8-3.8,0.8l-7.2,1.7l-23.3,5.5c1.9,6.8,3,14,3,21c0,0.8,0,1.7-0.2,2.3v0.4C795.7,256,793.2,272.7,800.8,274.6z"/>
	<path class="st4" d="M796.3,251.3v0.4c1.3,0.2,2.3,0.2,3.6,0.2c23.1-0.4,26-29.6,26-29.6l-9.1,0.4l-23.5,5.5c1.9,6.8,3,14,3.2,21
		C796.5,249.9,796.5,250.7,796.3,251.3z"/>
	<path class="st6" d="M833.8,183.8c3,12.3-5.5,47-14.6,54.2c-13.1,10.6-33.7,10.4-42.3-5.3c-8.5-15,3.4-60.1,13.6-66.5
		C805.2,156.7,829.6,165.6,833.8,183.8z"/>
	<path class="st4" d="M802.9,204.8c0,0,0.2,0.2,0,0.2c-0.6,2.3-0.8,5.1,1.1,6.4v0.2C801.4,210.5,802,206.9,802.9,204.8z"/>
	<path class="st4" d="M805.6,202.9c3.8,0.6,2.3,8.3-1.3,7.6C800.8,209.8,802.5,202.2,805.6,202.9z"/>
	<path class="st4" d="M789.1,201.8C789.1,201.8,788.9,201.8,789.1,201.8c-0.6,2.5-1.5,5.3-3.8,5.5v0.2
		C788.1,207.7,789.3,204.1,789.1,201.8z"/>
	<path class="st4" d="M787.6,199c-3.8-1.1-5.7,6.6-2.1,7.4C788.9,207.3,790.6,199.9,787.6,199z"/>
	<path class="st4" d="M809.2,199.9c-0.8-0.4-1.7-1.1-2.8-1.7c-0.8-0.6-1.9-1.1-2.3-2.1c0-0.4,0-0.6,0-1.1c0.2-0.4,0.4-0.6,0.6-0.8
		c0.6-0.2,1.5-0.4,2.1-0.4c0.8,0,1.5,0.4,2.1,0.6c1.3,0.6,2.3,1.9,2.8,3.2c0.2,0.4,0.2,0.6,0,1.1c0,0.4-0.2,0.6-0.4,0.8
		c-0.4,0.2-0.6,0.4-1.1,0.4C809.9,200.3,809.7,200.1,809.2,199.9z"/>
	<path class="st4" d="M785.3,194.6c1.1,0,2.1,0,3.2-0.2c1.3,0,2.3-0.2,3.2-0.8c0.4-0.2,0.4-0.6,0.6-0.8c0-0.4,0-0.6-0.2-1.1
		c-0.4-0.6-1.1-1.1-1.7-1.3c-0.6-0.2-1.5-0.4-2.1-0.2c-1.5,0-3,0.4-4,1.5c-0.2,0.2-0.4,0.6-0.4,0.8c-0.2,0.4-0.2,0.6,0,1.1
		c0.2,0.2,0.4,0.6,0.6,0.8C784.7,194.4,785.1,194.6,785.3,194.6z"/>
	<path class="st4" d="M799.1,218.3c-0.8,0.8-1.7,1.5-2.8,1.9c-1.1,0.4-2.1,0.6-3.4,0.6c-0.8,0-1.9-0.2-3-0.4c0,0-0.2,0-0.4-0.2
		l-0.4-0.2c-0.2,0-0.2-0.2-0.4-0.2c0,0,0-0.2,0-0.4v-0.2v-0.2c0.2-1.9,1.1-4.4,1.1-4.4c-0.8,0.2-4.4,1.1-4.2,0
		c1.9-8,4.4-16.1,8-23.7l0,0l0,0l0,0c0.2,0,0.2,0,0.2,0l0,0l0,0c0.2,0,0.2,0,0.2,0s0,0-0.2,0c-1.5,7.6-4.7,14.6-6.4,22.2
		c1.3-0.4,2.8-0.4,4-0.4c0.2,0-1.5,5.3-1.5,6.1c1.5,0.4,3,0.6,4.4,0.4c1.5-0.2,3-0.6,4.2-1.3C799.1,218.1,799.3,218.3,799.1,218.3z"
		/>
	<path class="st4" d="M791.2,219.8c0.8,1.5,1.9,2.8,3.4,3.8c0.6,0.4,1.5,0.6,2.5,0.6c1.9-0.2,2.3-1.9,2.3-3.4c0-0.8-0.2-1.7-0.4-2.3
		C796.8,219.6,794,220.2,791.2,219.8z"/>
	<path class="st7" d="M794.6,223.4c0.6,0.4,1.5,0.6,2.5,0.6c1.9-0.2,2.3-1.9,2.3-3.4c-1.1-0.2-2.1,0-3,0.4
		C795.7,221.7,794.8,222.5,794.6,223.4z"/>
	<path class="st4" d="M830.6,213.9c0,0,12.3-19.5,11.4-30.9c-0.4-5.3-7.4-8.9-7.4-8.9c0.6-2.1,0.6-4.2,0-6.4c-0.6-2.1-1.7-4-3.4-5.5
		c-5.9-5.9-20.7-4.9-20.7-4.9s-9.3-14.2-23.1-8.9c-13.8,5.3-5.1,20.7-5.1,20.7s-5.3,7,6.8,12.7s36.2,0.8,36.2,0.8
		c-1.3,8.3-1.5,16.7-0.2,25.2c0.2,1.5,0.8,2.8,1.9,3.8C827.9,212.8,829.1,213.7,830.6,213.9z"/>
	<path class="st4" d="M808,157.5c3.2-1.1,6.4-1.7,9.5-1.5c3,0,5.9,0.4,8.7,1.5c2.3,0.8,4.7,2.1,6.4,4c1.7,1.9,3,4.2,3.4,6.8
		c0.2,1.3,0.2,2.8-0.2,4c-0.4,1.3-1.1,2.5-1.7,3.6c0,0-0.2,0-0.2-0.2c3.2-3.8,1.7-10-1.5-13.1c-3.8-3.6-8.9-5.5-14.2-5.5
		c-3.4-0.2-6.8,0.2-10.2,0.8l0,0C808,157.8,808,157.8,808,157.5L808,157.5L808,157.5z"/>
	<path class="st4" d="M777.5,155c0.8-1.7,1.9-3.4,3.4-4.7c1.3-1.3,3-2.1,4.9-2.5c4.2-1.3,8.9-0.8,12.9,0.6c4,1.7,7.6,4.4,10.4,8
		c0,0,0,0.2-0.2,0c-2.3-3.2-5.5-5.5-9.3-7c-3.6-1.5-7.6-1.9-11.4-1.3c-1.9,0.2-3.6,0.6-5.1,1.7s-2.8,2.3-3.6,3.8
		c-1.1,1.7-1.5,3.4-1.5,5.1s0.4,3.6,1.3,5.1c2.1,3.8,5.1,6.8,8.7,8.9v0.2c-3.4-1.7-6.4-4.4-8.7-7.6c-0.8-1.5-1.7-3.2-1.9-5.1
		C777.1,158.4,777.1,156.7,777.5,155z"/>
	<path class="st4" d="M786.2,182.7c5.5,2.3,11.2,3.4,17.1,3.4s12.1-0.6,18-2.1c3.4-0.6,6.8-1.7,10.2-2.5c0,0,0.2,0.2,0,0.2
		c-5.9,2.3-12.1,4.2-18.4,5.3c-5.9,1.1-11.9,0.8-17.8-0.6C792.1,185.5,788.9,184.2,786.2,182.7L786.2,182.7z"/>
	<path class="st6" d="M824.7,211.7c0,0,8.7-10.6,13.8-7.4c4.9,3.2-2.5,19.1-8.7,21c-0.8,0.2-1.5,0.4-2.3,0.4c-0.8,0-1.7-0.2-2.5-0.6
		c-0.6-0.4-1.3-0.8-1.9-1.5c-0.4-0.6-0.8-1.3-1.1-2.1L824.7,211.7z"/>
	<path class="st4" d="M836.1,209L836.1,209c-4.2,1.5-6.8,5.3-8.7,9.3c0.2-0.4,0.6-0.8,1.1-1.1s0.8-0.4,1.3-0.4c0.6,0,1.1,0,1.5,0.2
		s0.8,0.4,1.3,0.8l0,0l0,0l0,0l0,0c-0.6-0.2-1.5-0.4-2.3-0.2c-0.6,0.2-1.5,0.6-1.9,1.3c-0.8,1.1-1.7,2.1-2.3,3.2
		c-0.4,0.4-1.1,0-0.8-0.2C825.5,216.2,830.4,209,836.1,209z"/>
</g>
</svg>
